<mxfile host="app.diagrams.net" modified="2022-08-29T11:18:25.323Z" agent="5.0 (Windows NT 10.0; Win64; x64) AppleWebKit/537.36 (KHTML, like Gecko) Chrome/104.0.0.0 Safari/537.36" etag="AUHHIY-gYBUHtdE420EF" version="20.2.7" type="github">
  <diagram id="XjEXuhJqiqcT0uUTZPxp" name="第 1 页">
    <mxGraphModel dx="1805" dy="1754" grid="1" gridSize="10" guides="1" tooltips="1" connect="1" arrows="1" fold="1" page="1" pageScale="1" pageWidth="827" pageHeight="1169" math="0" shadow="0">
      <root>
        <mxCell id="0" />
        <mxCell id="1" parent="0" />
        <mxCell id="Fqt_2ASM-14fc0Zu32w8-1" value="" style="rounded=1;whiteSpace=wrap;html=1;dashed=1;strokeWidth=2;" parent="1" vertex="1">
          <mxGeometry x="-50" y="470" width="1025" height="470" as="geometry" />
        </mxCell>
        <mxCell id="Fqt_2ASM-14fc0Zu32w8-2" value="&lt;b&gt;&lt;font style=&quot;font-size: 16px; line-height: 1.4;&quot;&gt;Template&lt;br&gt;Database&lt;/font&gt;&lt;/b&gt;" style="shape=cylinder3;whiteSpace=wrap;html=1;boundedLbl=1;backgroundOutline=1;size=15;fillColor=#dae8fc;strokeColor=#6c8ebf;" parent="1" vertex="1">
          <mxGeometry x="240" y="625" width="100" height="160" as="geometry" />
        </mxCell>
        <mxCell id="Fqt_2ASM-14fc0Zu32w8-3" value="" style="endArrow=classic;html=1;rounded=0;strokeWidth=3;strokeColor=#CCCCCC;" parent="1" edge="1">
          <mxGeometry width="50" height="50" relative="1" as="geometry">
            <mxPoint x="344" y="704.5" as="sourcePoint" />
            <mxPoint x="404" y="704.5" as="targetPoint" />
          </mxGeometry>
        </mxCell>
        <object label="M" id="Fqt_2ASM-14fc0Zu32w8-4">
          <mxCell style="ellipse;whiteSpace=wrap;html=1;aspect=fixed;fillColor=#67AB9F;strokeColor=none;fontFamily=Times New Roman;fontStyle=1" parent="1" vertex="1">
            <mxGeometry x="30" y="540" width="20" height="20" as="geometry" />
          </mxCell>
        </object>
        <mxCell id="Fqt_2ASM-14fc0Zu32w8-6" value="Y" style="ellipse;whiteSpace=wrap;html=1;aspect=fixed;fillColor=#FFCCFF;strokeColor=none;fontStyle=1" parent="1" vertex="1">
          <mxGeometry x="70" y="565" width="20" height="20" as="geometry" />
        </mxCell>
        <mxCell id="Fqt_2ASM-14fc0Zu32w8-9" value="R" style="ellipse;whiteSpace=wrap;html=1;aspect=fixed;fillColor=#9999FF;strokeColor=none;fontStyle=1" parent="1" vertex="1">
          <mxGeometry x="50" y="550" width="20" height="20" as="geometry" />
        </mxCell>
        <mxCell id="Fqt_2ASM-14fc0Zu32w8-10" value="F" style="ellipse;whiteSpace=wrap;html=1;aspect=fixed;fillColor=#9999FF;strokeColor=none;fontStyle=1" parent="1" vertex="1">
          <mxGeometry x="60" y="760" width="20" height="20" as="geometry" />
        </mxCell>
        <mxCell id="Fqt_2ASM-14fc0Zu32w8-11" value="T" style="ellipse;whiteSpace=wrap;html=1;aspect=fixed;fillColor=#FF6666;strokeColor=none;fontStyle=1" parent="1" vertex="1">
          <mxGeometry x="115" y="677" width="20" height="20" as="geometry" />
        </mxCell>
        <mxCell id="Fqt_2ASM-14fc0Zu32w8-12" value="A" style="ellipse;whiteSpace=wrap;html=1;aspect=fixed;fillColor=#FFCCCC;strokeColor=none;fontStyle=1" parent="1" vertex="1">
          <mxGeometry x="90" y="585" width="20" height="20" as="geometry" />
        </mxCell>
        <mxCell id="Fqt_2ASM-14fc0Zu32w8-13" value="N" style="ellipse;whiteSpace=wrap;html=1;aspect=fixed;fillColor=#FFCC99;strokeColor=none;fontStyle=1" parent="1" vertex="1">
          <mxGeometry x="120" y="810" width="20" height="20" as="geometry" />
        </mxCell>
        <mxCell id="Fqt_2ASM-14fc0Zu32w8-14" value="W" style="ellipse;whiteSpace=wrap;html=1;aspect=fixed;fillColor=#7EA6E0;strokeColor=none;fontStyle=1" parent="1" vertex="1">
          <mxGeometry x="80" y="780" width="20" height="20" as="geometry" />
        </mxCell>
        <mxCell id="Fqt_2ASM-14fc0Zu32w8-15" value="E" style="ellipse;whiteSpace=wrap;html=1;aspect=fixed;fillColor=#FF8000;strokeColor=none;fontStyle=1" parent="1" vertex="1">
          <mxGeometry x="120" y="630" width="20" height="20" as="geometry" />
        </mxCell>
        <mxCell id="Fqt_2ASM-14fc0Zu32w8-20" value="A" style="ellipse;whiteSpace=wrap;html=1;aspect=fixed;fillColor=#FFCCCC;strokeColor=none;fontStyle=1" parent="1" vertex="1">
          <mxGeometry x="50" y="740" width="20" height="20" as="geometry" />
        </mxCell>
        <mxCell id="Fqt_2ASM-14fc0Zu32w8-21" value="A" style="ellipse;whiteSpace=wrap;html=1;aspect=fixed;fillColor=#FFCCCC;strokeColor=none;fontStyle=1" parent="1" vertex="1">
          <mxGeometry x="110" y="605" width="20" height="20" as="geometry" />
        </mxCell>
        <mxCell id="Fqt_2ASM-14fc0Zu32w8-22" value="A" style="ellipse;whiteSpace=wrap;html=1;aspect=fixed;fillColor=#FFCCCC;strokeColor=none;fontStyle=1" parent="1" vertex="1">
          <mxGeometry x="130" y="657" width="20" height="20" as="geometry" />
        </mxCell>
        <mxCell id="Fqt_2ASM-14fc0Zu32w8-23" value="T" style="ellipse;whiteSpace=wrap;html=1;aspect=fixed;fillColor=#FF6666;strokeColor=none;fontStyle=1" parent="1" vertex="1">
          <mxGeometry x="90" y="690" width="20" height="20" as="geometry" />
        </mxCell>
        <mxCell id="Fqt_2ASM-14fc0Zu32w8-24" value="C" style="ellipse;whiteSpace=wrap;html=1;aspect=fixed;fillColor=#A680B8;strokeColor=none;fontStyle=1" parent="1" vertex="1">
          <mxGeometry x="70" y="700" width="20" height="20" as="geometry" />
        </mxCell>
        <mxCell id="Fqt_2ASM-14fc0Zu32w8-25" value="N" style="ellipse;whiteSpace=wrap;html=1;aspect=fixed;fillColor=#FFCC99;strokeColor=none;fontStyle=1" parent="1" vertex="1">
          <mxGeometry x="50" y="720" width="20" height="20" as="geometry" />
        </mxCell>
        <mxCell id="Fqt_2ASM-14fc0Zu32w8-26" value="R" style="ellipse;whiteSpace=wrap;html=1;aspect=fixed;fillColor=#9999FF;strokeColor=none;fontStyle=1" parent="1" vertex="1">
          <mxGeometry x="100" y="790" width="20" height="20" as="geometry" />
        </mxCell>
        <mxCell id="Fqt_2ASM-14fc0Zu32w8-28" value="" style="endArrow=classic;html=1;rounded=0;fontSize=16;strokeWidth=2;strokeColor=#CCCCFF;" parent="1" edge="1">
          <mxGeometry width="50" height="50" relative="1" as="geometry">
            <mxPoint x="120" y="704.5" as="sourcePoint" />
            <mxPoint x="230" y="704.5" as="targetPoint" />
          </mxGeometry>
        </mxCell>
        <object label="M" id="Fqt_2ASM-14fc0Zu32w8-29">
          <mxCell style="ellipse;whiteSpace=wrap;html=1;aspect=fixed;fillColor=#67AB9F;strokeColor=none;fontFamily=Times New Roman;fontStyle=1" parent="1" vertex="1">
            <mxGeometry x="30" y="587" width="20" height="20" as="geometry" />
          </mxCell>
        </object>
        <mxCell id="Fqt_2ASM-14fc0Zu32w8-30" value="A" style="ellipse;whiteSpace=wrap;html=1;aspect=fixed;fillColor=#FFCCCC;strokeColor=none;fontStyle=1" parent="1" vertex="1">
          <mxGeometry x="40" y="610" width="20" height="20" as="geometry" />
        </mxCell>
        <mxCell id="Fqt_2ASM-14fc0Zu32w8-31" value="H" style="ellipse;whiteSpace=wrap;html=1;aspect=fixed;fillColor=#B5739D;strokeColor=none;fontStyle=1" parent="1" vertex="1">
          <mxGeometry x="60" y="630" width="20" height="20" as="geometry" />
        </mxCell>
        <mxCell id="Fqt_2ASM-14fc0Zu32w8-32" value="H" style="ellipse;whiteSpace=wrap;html=1;aspect=fixed;fillColor=#B5739D;strokeColor=none;fontStyle=1" parent="1" vertex="1">
          <mxGeometry x="80" y="650" width="20" height="20" as="geometry" />
        </mxCell>
        <mxCell id="Fqt_2ASM-14fc0Zu32w8-33" value="H" style="ellipse;whiteSpace=wrap;html=1;aspect=fixed;fillColor=#B5739D;strokeColor=none;fontStyle=1" parent="1" vertex="1">
          <mxGeometry x="60" y="670" width="20" height="20" as="geometry" />
        </mxCell>
        <mxCell id="Fqt_2ASM-14fc0Zu32w8-34" value="H" style="ellipse;whiteSpace=wrap;html=1;aspect=fixed;fillColor=#B5739D;strokeColor=none;fontStyle=1" parent="1" vertex="1">
          <mxGeometry x="40" y="690" width="20" height="20" as="geometry" />
        </mxCell>
        <mxCell id="Fqt_2ASM-14fc0Zu32w8-35" value="H" style="ellipse;whiteSpace=wrap;html=1;aspect=fixed;fillColor=#B5739D;strokeColor=none;fontStyle=1" parent="1" vertex="1">
          <mxGeometry x="20" y="710" width="20" height="20" as="geometry" />
        </mxCell>
        <mxCell id="Fqt_2ASM-14fc0Zu32w8-36" value="H" style="ellipse;whiteSpace=wrap;html=1;aspect=fixed;fillColor=#B5739D;strokeColor=none;fontStyle=1" parent="1" vertex="1">
          <mxGeometry x="20" y="740" width="20" height="20" as="geometry" />
        </mxCell>
        <mxCell id="Fqt_2ASM-14fc0Zu32w8-37" value="V" style="ellipse;whiteSpace=wrap;html=1;aspect=fixed;fillColor=#FFE6CC;strokeColor=none;fontStyle=1" parent="1" vertex="1">
          <mxGeometry x="20" y="770" width="20" height="20" as="geometry" />
        </mxCell>
        <mxCell id="Fqt_2ASM-14fc0Zu32w8-38" value="A" style="ellipse;whiteSpace=wrap;html=1;aspect=fixed;fillColor=#FFCCCC;strokeColor=none;fontStyle=1" parent="1" vertex="1">
          <mxGeometry x="30" y="790" width="20" height="20" as="geometry" />
        </mxCell>
        <mxCell id="Fqt_2ASM-14fc0Zu32w8-39" value="V" style="ellipse;whiteSpace=wrap;html=1;aspect=fixed;fillColor=#FFE6CC;strokeColor=none;fontStyle=1" parent="1" vertex="1">
          <mxGeometry x="40" y="810" width="20" height="20" as="geometry" />
        </mxCell>
        <mxCell id="Fqt_2ASM-14fc0Zu32w8-41" value="&lt;b&gt;Chain_1&lt;/b&gt;" style="text;html=1;align=center;verticalAlign=middle;resizable=0;points=[];autosize=1;strokeColor=none;fillColor=none;fontSize=16;" parent="1" vertex="1">
          <mxGeometry x="5" y="840" width="90" height="30" as="geometry" />
        </mxCell>
        <mxCell id="Fqt_2ASM-14fc0Zu32w8-42" value="&lt;b&gt;Chain_2&lt;/b&gt;" style="text;html=1;align=center;verticalAlign=middle;resizable=0;points=[];autosize=1;strokeColor=none;fillColor=none;fontSize=16;" parent="1" vertex="1">
          <mxGeometry x="95" y="840" width="90" height="30" as="geometry" />
        </mxCell>
        <mxCell id="Fqt_2ASM-14fc0Zu32w8-43" value="" style="rounded=1;whiteSpace=wrap;html=1;dashed=1;fontSize=16;strokeWidth=2;fillColor=#ffe6cc;strokeColor=#d79b00;" parent="1" vertex="1">
          <mxGeometry x="414" y="550" width="240" height="310" as="geometry" />
        </mxCell>
        <mxCell id="Fqt_2ASM-14fc0Zu32w8-40" value="&lt;div style=&quot;text-align: left;&quot;&gt;&lt;span style=&quot;background-color: initial;&quot;&gt;&lt;b&gt;Chain_1&lt;/b&gt;&lt;/span&gt;&lt;/div&gt;&lt;div style=&quot;text-align: left;&quot;&gt;&lt;span style=&quot;background-color: initial;&quot;&gt;&lt;br&gt;&lt;/span&gt;&lt;/div&gt;&amp;gt;7ckq_F&lt;br&gt;&amp;gt;5uh5_F&lt;br&gt;&amp;gt;5tw1_F&lt;br&gt;&amp;gt;3t72_o&lt;br&gt;&amp;gt;4g6d_A&lt;br&gt;&amp;gt;2p7v_B&lt;br&gt;...&lt;br&gt;&lt;b style=&quot;&quot;&gt;&lt;font color=&quot;#cc99ff&quot;&gt;&amp;gt;6ono_B&lt;/font&gt;&lt;/b&gt;&lt;br&gt;&amp;gt;6wmr_Z" style="text;html=1;align=center;verticalAlign=middle;resizable=0;points=[];autosize=1;strokeColor=none;fillColor=none;fontSize=16;" parent="1" vertex="1">
          <mxGeometry x="434" y="600" width="90" height="220" as="geometry" />
        </mxCell>
        <mxCell id="Fqt_2ASM-14fc0Zu32w8-44" value="H1151" style="text;html=1;align=center;verticalAlign=middle;resizable=0;points=[];autosize=1;strokeColor=none;fillColor=none;fontSize=16;" parent="1" vertex="1">
          <mxGeometry x="50" y="890" width="70" height="30" as="geometry" />
        </mxCell>
        <mxCell id="Fqt_2ASM-14fc0Zu32w8-45" value="&lt;div style=&quot;text-align: left;&quot;&gt;&lt;span style=&quot;background-color: initial;&quot;&gt;&lt;b&gt;Chain_2&lt;/b&gt;&lt;/span&gt;&lt;/div&gt;&lt;div style=&quot;text-align: left;&quot;&gt;&lt;span style=&quot;background-color: initial;&quot;&gt;&lt;br&gt;&lt;/span&gt;&lt;/div&gt;&amp;gt;2ewt_A&lt;br&gt;&amp;gt;4zef_A&lt;br&gt;&amp;gt;7kif_Z&lt;br&gt;&lt;b&gt;&lt;font color=&quot;#cc99ff&quot;&gt;&amp;gt;6ono_A&lt;/font&gt;&lt;/b&gt;&lt;br&gt;&amp;gt;2itm_A&lt;br&gt;&amp;gt;6nur_A&lt;br&gt;...&lt;br&gt;&amp;gt;1zsx_A&lt;br&gt;&amp;gt;3hz7_A" style="text;html=1;align=center;verticalAlign=middle;resizable=0;points=[];autosize=1;strokeColor=none;fillColor=none;fontSize=16;" parent="1" vertex="1">
          <mxGeometry x="544" y="600" width="90" height="220" as="geometry" />
        </mxCell>
        <mxCell id="Fqt_2ASM-14fc0Zu32w8-46" value="&lt;font color=&quot;#000000&quot;&gt;&lt;b&gt;Template list&lt;/b&gt;&lt;/font&gt;" style="text;html=1;align=center;verticalAlign=middle;resizable=0;points=[];autosize=1;strokeColor=none;fillColor=none;fontSize=16;fontColor=#CC99FF;" parent="1" vertex="1">
          <mxGeometry x="470" y="555" width="120" height="30" as="geometry" />
        </mxCell>
        <mxCell id="Fqt_2ASM-14fc0Zu32w8-47" value="" style="rounded=1;whiteSpace=wrap;html=1;dashed=1;fontSize=16;strokeWidth=2;fillColor=#f8cecc;strokeColor=#b85450;" parent="1" vertex="1">
          <mxGeometry x="720" y="550" width="190" height="310" as="geometry" />
        </mxCell>
        <mxCell id="Fqt_2ASM-14fc0Zu32w8-49" value="" style="shape=image;verticalLabelPosition=bottom;labelBackgroundColor=default;verticalAlign=top;aspect=fixed;imageAspect=0;image=data:image/png,iVBORw0KGgoAAAANSUhEUgAAAjQAAAGLCAYAAADQ/wg+AAAAAXNSR0IArs4c6QAAAARnQU1BAACxjwv8YQUAAAAJcEhZcwAADsMAAA7DAcdvqGQAAAAOdEVYdFNvZnR3YXJlAFB5TU9M9r96vQAAABh0RVh0VVJMAGh0dHA6Ly93d3cucHltb2wub3JnmI83TgAAACF0RVh0Q3JlYXRpb24gVGltZQAyMDIyOjA4OjI5IDE3OjMyOjQ3AmmSbAAA/zpJREFUeF7svQlgXFd59n9mpNlHGu3LyJIXeZEX2bKuHNuJE8dx4iyOQyANUBdIAo5U2n4UCv2Xth80AfpBW7pAKVSClqZAIIQlJA6BhODEcbwkGu/7KsvWvm+jfeb/Pu+5Z+ZKlhPbsWPLOc/o1bn73Lnb+d33vOccoaWlpaWlpaWlpaWlpaWlpaWlpaWlpaWlpaWlpaWlpaWlpaWlpaWlpaWlpaWlpaWlpaWlpaWlpaWlpaWlpaWlpaWlpaWlpaWlpaWlpaWlpaWlpaWlpaWlpaWlpaWlpaWlpaWlpaWlpaWlpaWlpaWlpaWlpaWlpaWlpaWlpaWlpaWlpaWlpaWlpaWlpaWlpaWlpaWlpaWlpaWlpaWlpaWlpaWlpaWlpXVpspmpltZ1rc9+9rvGvHlLjTVrisWJE62iunpf6HOfuy1kztbS0tLSmuSym6mW1vUug6zS4RCVNltC5eBgb7mcrKWlpaV1PUgDjdZ7QqOjwyISGRXRqBAOh10kJDjMOVpaWlpa14M00Gi9J9TR0cRAMzoaJaCxCbs9wZyjpaWlpXU9SAON1ntCZ88eiwFNYiI8NPrS19LS0rqepJ/qWu8JwUMzOiqBxm63k+kiJy0tLa3rSRpotN4Tam2tYw9NJAKgsYmEBF3kpKWlpXU9SQON1ntCra1nxfDwEFmEi5scDpc5R0tLS0vrepAGGq33hMLh3qqennYxMDAqnM4E0d/fo6tta2lpaV1H0kCj9Z5Rc/MZ0d09zEDjcnnMqVpaWlpa14M00Gi9Z2Sz2ULh8IhISLAx0Hz2s99GY3taWlpaWteBNNBovWeUmTklNDAwJEZGhHA63cJud2mg0dLS0rpOpIFG6z0jBAYPDg5ya8Hw0LjdXnOOlpaWltZklwYarfeMmpvrCGj6BWpse71usiRzjpaWlpbWZJcGGq33jILBGSEAzchIRCQlOYXNlqCLnLS0tLSuE2mg0XrPaNu258XAQJ8YGhoVgYBTeL0+c46WlpaW1mSXBhqt94xqa/eFADSDg6PC40kU0WhUe2i0tLS0rhNpoNF6z6ihoTbU0HBK9PSMCLc7UdjtiRpotLS0tK4TaaDRek+pqem06O0dEh6Pncyn26LR0tLSuk6kgUbrPaXZs5dUDQwMCztd+ai27XB4NdBoaWlpXQfSQKP1nlJzc60YGBjkqtsAGpdLt0WjpaWldT1IA43We0qtrWe4LZrRUSF8PtR08ptztLS0tLQmszTQaL2nlJ8/OzQ4OCCGh6NcdVvXdNLS0tK6PqSBRus9pTfffFEMDobFwEBE+P0O4XZrD42WlpbW9SANNFpXRQUFRQbMHH3XtGfPZgYatEXjdCZyTSctLS0trckvm5lqaV0xrVv3yXLDuNXo7Gw3+vu7DXhFfL6AcLs9oq+vW3R3t4mZM0uqWlvrRE3NYdHcfDp08OCOUEPDiZC5icuqr33t+ei9995G358gnn12i/iLv7hN3wdaWlpak1z6Qa51xfTgg58tz8qaQpZvoDbR6OiwSEhwiMREB6WJFktAI3fC4XDyvOHhIXH69EHR2Hg61NnZVLVt24shtPJrbvYd6+tff4mA5hbudfs3v9kW+sxnbi0zZ2lpaWlpTVJpoNG67Nqw4atGWlp2pdvtNaJEDZHIqLDZbCa8AGhUKsHGbgfQwOyxYUBOYiIH7YqzZ4+x16a29njVM898s8r8mkuV8c1vvlZ9773LRF/fsHj11d1Vf/ZnN1aY87S0tLS0JqkSzFRL67Jo/frPG+npudU+XyDY29spRkYGxejoCNkogU2E4SYajTCoKNhRhulyGTkfqRCojZQhpk6dG5w9e/G6JUvuXJeSkikOHdpxSR6b1avXr1u48OZ18+blic7OAXHiRE3oxRf/d6M5W0tLS0trkkoDjdZlE2AmNTUbMCO6uloYZkZGADMjDCyAmmgUdi7MWE0CjzQJNxHeBrw8BEvBmTMXrVu06JZ1mFZbe/iiwOYDH/hTIzd3+rqiomxRXx8WNTUnQy+//GMNNFpaWlqTXLqWk9ZlEWCmoKCo0utNEh0dTQK9Wvf393E6MIBq0nIYjdpJU9OQotaRTMfb0FA/G9YZHh6k4QEuiiouXmHceON9lWVla6pzcwsuuLaUy5VE5hFOp+AiJ5st4YoEHmtpaWlpvbvSQKN1WZSamlVptycYCmYkkMShBkAyMjIcM1kMNULDQzFQwTJqXVm1Wm5DrY9lYMPDA7TdXuHx+EVp6Wpj+fL7K0tL11wQ1CQnpxjZ2WkiGhWiq6tXhMNd5hwtLS0trcksXeSk9Y71kY/8TXlSUmp5S8tZEzokoMBQhGS328iswb/SzhVRhpliPdSKQjGVLKpCPA3N4eIqDEXE4cNv0Hbswu9PCbpc7nK/PzVYV3f8vMVHn/3sd43MzDyCnxmirW1EbN/+uvj7v1//eCQSaTAX0dLS0tKapNIeGq13rMzMgnK0J9PT024pZupl74sK7pUgIlMFLPEYGRU/g3FrPE2EvTnwyFiLpDDc3t7E8+X2hMjKyiew+ovyP/uzr1WXlq6a0FuTmpphYDmXyyFqajpoiq1qeHhYFzlpaWlpXQfSQKP1jrR27YZyAg4DjeOhGAhAgxRemkhEQoyUDARWNhZeJNjEh6VXRtaMQkAxgoJH2eMDWML2OzqazeWt6zvE7bd/wvjQh8orV6y4/xyo8XoD5ZmZ6eydaWyEN6nvnVYB19LS0tK6RqSLnLTekWbPLq3Mzi4IorgJ1bRlMdEwFwWpoiVrA3qyEb0EYTNbQJKpKmqCJPDIaXI6ajfBlBB7A6jp6+uyTEeKWlCpIi9vUTAzM80YHh4N1dQc5OKkL3zhR+V5eTPJckRzc7c4ffpw6Itf/IPHMU9LS0tLa/IrnktoaV2kULQzfXpx9fTpC7jxu5Mn93ENJNnir1M4nS4yt0ArwZiGYYfDZYKOnWAE0CNTCS0qjZuCIglBanmbAED19HQwIKEYqqhosSgpuYmXaW/vEsnJ6eLMmd2hF154qqK4eIWYOrWocvbsRYbX6xHHjh0UJ07sqfh//+9j2kOjdd3p09/9dLnD5RAON5mDjIbtiXYjwZkQwv1CCn3u5s9d8aLWlR9eWZ2UlhQ6tP1Q1YmdV6YbEy0tqzTQaF2yVq16sDwjI78yJ2cax7W88cZvTIDxENAAZlzC7fZSimrSLoYZCTQTwUwcaHBZSpiJe3nGg099/XERDveI1NRscdNNa4XPl84xPLJ2VD97caZNmy8aGvaETp6sEYax2ggG8wmEmsWhQ2+G/u//fZ/u7kDrutD6v1tf7va4DbfPbTjdTsPpoZcKAA1ZojNROJwOkeBQ3lG6h+x0D0kLJdgTQvDT030V+uMFf3zZAP/GD9xYnZ6bbhDQ4DtDm3+xuaJ2X62GGq0rKg00Wpesm29+gGBmKkFNUPj9qQQ0L3AxkPTIuBhsMOxywTPjZqhRXR1IoIlDjAIVSA0rkJHLq2XtBCknebnly+8UubmzGWzgpZHBw7LqN4qkoFmzFovOzhYxc+ZChpzDh0Oiqel02de+9rB+uGpNat3/6fvL/QF/OUCGTLh89BLhdrIx0BDIAGgAM4mORIYYvp8SzHuO7z9pkBlgX0XjoUgkEnp07qOXdI+sWr/KcHld8M7E9qW9qT209emtFa0Nrfq+07pi0kCjdclaseL+6pycaYbfnyIANQgEfv31XzF0+HzJDDPw0ABs4t6Z8d4WBSrWh6sqapLLIQWUoNgqLS1HFBYuEtnZ+WaNp3jbNBhW7daEw7003idSU3NEcfFNIikpVZw9e1y8/PKToR/+8O+1d0Zr0mrthrWG0++s9Kf6DW8y3WOAGQ/BjEfCjPLKIAXIsHcm0Xw5AMyYYBNL+Z6TQKMM4Ws0BPioEhERenjmhb0ALL1/qeH1equTM+n+d9M9TzCjvEP7X98fevP5N/W9p3XFpIFG65J14433RbOzpwr0rZScnMZeGlTBrq09Ipqba0V3dzt7RaZOnctFUeiMUsKLfIhKsw4rmLGLrq5WBhYADOAI3SnMn79coCViAIxsnA9VuocYpFRrwqqmFQBHNuI3JG655QH+7t27XxFtbQ1l3/nOlY8f0NK6Err/U/cbtgRbdSA9ILwBelnwuticLqeMmVEgY4EZpApmYIALAI5KMY9FEBNB0woRVQvRtFGyaCRE00MEO6GHZzw8YdFU6ZpSw+11V6dkpQinN+4lUsL31B2rK9v05CZ9/2ldEWmg0bokISDY7fZXp6cHufNIAI3Pl0LA4Rcej+xeALWeUAQlvSWy/RjMg0dHtkEj+3XCZcgsQ1I1ouDdASxlZOSylwfQghaF0TcU1lOwIlsZlkADzwygRs6ThvmAnsLChSI93S5Cof0VVVV/pYOBtSadbv2jWyszghnlKMrxJkmYYYixFC9ZPTNW74zVECgMAHK5CIYSXSLRRsBDLxYQ7sdReikZiY6IEbTkDRtGi97SuDmFEbpvR6NVgBu6w0KPzpRFU2V3l1UHMgJc/MX7QvsFiME2AUXZ07PFgc0Hql796au6d3utKyINNFqXpNLS1eUej78SXpmkpBT20kigSeIuCdxuH8fMoLZTYiIghR60iTAnvxlKiEFxkkql5wYCiABa2OmNhyG9JQKAZNs042FFAQ08MkPsEVLzJfBI6AEUrVixUjQ2domXX/5x2fPPf0+/JWpNGq380MrqrKlZhi/FJzw+j4QZgIxpyivDQAOYoeGJYAb3ooIZr9crkmxJwkcfD32c9KE7UdCrhqC7SwyYn/5IvwiPhsXA8IAYGsT9NEz3G91rBDamhc4cPCNOHzptNNU0SY9QovQEqft3eHBYFJYUin2b91W9+hMNNFpXRrodGq1LUm7uLIPe9NbhoYVuDQAqiHtJgFub4USyMh5oMAkn0isjwQRve7LYKA4fElDkdAkmABI1D6mCF3hiZACw9MioBvZkY3zKZH9RsP7+HnHmzBlRUrJEhMP9xvbtv9ZeGq1JoZs/eHN1Rn6G4Uv2yeIlBNpaipbOARc1bi1awr1Jwww0DgIaetnwJHoYZvBJok8qfQL0wTBSfOhVRfhs9HKSQPc3QUo0ke5jlE1B8rbGeDApLSkYnBkUM0tnxgKT2xvbxcjQiOhu7RbpeenC7XeL/q7+qmOhY/plQuuKSAON1iUpGJxeThBjoHgI3ha4sSXMSO+L9MDYTIiRHhYuj2dTQBM3QMl4wJFAI4uMFOwAZhTQSJCR21NAEx/HduX3qO9D8Vdd3Wlxzz3vC06damzcsuUZ3YeT1jWtG98vqz8zzKAWE2JlLDDDxUoKYixgozwkKm6GY2doOrdLQ+u73W4GFXz85sdNHyW6eylzoOXpA+8NfZMYtY2KkQS6r+ij7jX1wsIvLfiLRAWKxNJy04Q/1c/ByhjOzM8U/d39oqu1a+Pxncc10GhdEWmg0bokBYMz1imgQbERoEF2QIliIwkzkHzojQUNBRgSZKxFRFZTEDMWZpBivvL2xLcrDUHJykujvsNqCDaORIbF7NmFRlfXUKimZp+GGq1rUkvuXlKZmp26zp9CYGBWybbGy1hhBgDDRbvmMMMMpVagwXys63Q6x3hnFNCcT4AbFEH10wdFUENRvGzgfqJ7DPfdKN3jKpCY7ksGHBpHLE1yejLH+2CZ7vZu0dnSufHUnlMaaLSuiMzwdi2tSxceYIAFCACiAnRlkK7qVFJ1Wok2YpCGzdQ6HTWUxlsPb0PGyMiiKAkrVphRqRy2eoXk26OaJtd74YWn4U0ypk+fU847raV1jQnVn/2p/nJPkocDf8cXLXGxLuLPEshQ/ZqARbUrgwBfNawMy3PRExkXO9HHRR94ZayemfOJ7mr+AGxwDymAQao8NDBVDKW8NVxDipYbHaZ7b4juz2HVt5uW1uWXBhqtSxI9o8yHmIIGCTXj41+kd0UWE6mq1ao13/GmipOwHGJl4KWRECIhRnl3JjYr1Fh78lYwIw2QhPZwsExp6Wrz12hpXTsqWlpkOB3OSl/AJ9xeN3tlFMgwzFi8LgAVqzHIKJgxh2PzaXkAjSPBwUBj/byVADKD9LECDXtmcH8BaBTc4DlgQgwvg5cODI+MyppSZMMDw+ZWtbQuvzTQaF2SRkYGDLyGKZhRQKOKkKxwEzfzIUcPQ4xbU6vFlxm7vBqPrzvxOirFPkmQkSmgqb29UcycuYjmZQmfb0B7aLSuOflSfJVo/RfFTIkuS4yMFWbGQ4wFYGLDpncGhuU4MBhAQx9ADFJ8aAnzmycWQIaLmuijippixUyWFxrcY5jH80dMkMHzYJBAZohQaHBYDAwOmFvV0rr80kCjdUmih5ahHmRxLwgeZnjgWWNhzAegWePImlphxGpqO3K+Wl+ZghmVxtdRFh8fie0XvD2In0HMz8yZi7mNHK+3QDz00BcIzLS0rg2tuH8FipoMj9/DAbWxOBkFMwpgzKKmCQFmHMyo5RhqUOREH4AMUtqy+c0Ti+6meOyMCTTyJUGa8tCMsVG83NCaw3TfDcVhZrB/UETCER0/o3XFpIFG65JEz0kTZqQhIFiBioQYGDw04700Y02Bh4IRK8DIZdQ0ZWOBZaL1lKllsV53d5vo7GwS8+ffyEVgKHpKSfGL3NxpGmi0rgkVryg26IkM7wx3Y2CFGYCI8sgoOwdmxoOMxdQ62A4+NBb7vJUAMmH6qGBgbncG95npoYGp1oVj4xbYYagZpnuT0v6efrFz004NNFpXTBpotC5Rskq2Apqx0CFBRnlpFIiMXUZOk9PlvDiUqFTCiFpuomlq3fg8ZZgGuBriXrg7OppFXt4s4fH4YrE6eP9MS8vXQKN1TSjBlVDpcDvQsaOMm7EEAbOHJYEgRnlmFKxgWJk5jUuQTFPTVKCwxBkJNDQHhcb83ROJ7iKGGXhoEEODBvXQcrAK9LXWaFIQo0AGXhoVP2Px1GiY0bqi0kCjdcnihxc/1FB2LgFCQoSMo7Gadb40CR1jISQOJeOhJg48Y4fVtqzryXmjDC0oZmptrad9GCR4yeXaVTDM6+npEenpPg00WlddRUuLyr3JXoYZ1daM8swARM4bNzPeJpqOadgG1qUPgAYCzBCC8PBE6qOPAhpr/Iy8zyS4xADGNAU1bAAa1G4iQ5ETWhQ2N62ldUWkgUbrEkUPMNM7Iz00CmokVMRBRpmCD2XxaYARBS5qXG1HpnJczR87HJ+mlsODF9XAATNtbQ08XFhYQvPosUwgo2pZ9fZGCGq6NdBoXVUVFhcCZGRRk9lbdgxmEuIwcw6sjBu3emQmmsbbwAQS3bUMM3THCLpbeZoSpvWaH0ANFzdxi93qPpPAMhHE8Dg8OKZ3Rr7cjIihgSFM00CjdUWlgUbrEmWrUt6ZuJcmDhpW74wCG/lAPL9ZwWYs1CiLb38ik8sOc9s1XV0tor29iYfz82fTd+OBjKrkspVhbN/jsRHsoM8oLa2rpwRvQiVa1VUN5wFo0CieFWaUKW+LFVqs4+M1ZjkYfRTMAGRQDRvFSapaNrwxgBgFNPDQDEZlcRMARcGKAhkFNcrUfBjf7/DQ0HoICA53hc290tK6MtJAo3VJQvsygALlneGHm6XoaTzQwOT0OICMtTisxKFm/DJvZegwb0D09naJzs4WjpkBzGRmFvC+yjZxpGH72N+kJBuN63YxtK6eCooLyn3JvljcDGCGi5sQvKssUdZwAriMhxr2wMh/58LLeMNCJAUz+ABi4IFRIKM+CmYwbxBtQpk9bo/30KhhNgvMwBTMIB0MEzIND2oPjdYVlQYarUvS0NBQCHAw3kuDB1scWsYDjfLUwOR8BSSAF+WVkeNqWI6fz7AtNMQHkAHEoJ2Zjg54ZnpFWloObxffpRr5k/uB7UdEYqKNxofMX6Sl9e6qoKjA8Pl95egagLs0MI2DgccFBFshRhkLiTmoZC0KhkG0Bqc0JVbMBJiBZ0bVZMJHwQxSBpoRdDei7tfze2hiQGOmfN8CZpQNj4YObzmsgUbrikoDjdYlKRIZDiEWBYCgHpz8gGOooQcYg4ss5pEmhycCEuv4hXpl8JCVcTCd7JFpb2/g4N+OjsZQd3d7yOXy8HLSG4N11H5Iw3S8/aJFYi2tq6EEZ0K5x+9h7wzanOH4GVVVm65NLnZS8MJ/MoUYVFQXA+awFTIYLEy4gHeFXkDY0zIQGZBFSPRR3hnloVFQgw/GsSzWA8zAFLCc8z2YrmwkniqYQTs04Z6whhmtKy4NNFqXpNraw6GhoYEQagzJYhzADMBGQg3e0OSDEA9EBTZWqImDjJyHYYCQ8s7IedLi49gGgnx7ezsIZJrZG4PAXwANgUzV4OBgBYFWRTjcE4JHZqL11T6Ew4ns3dHSerdVUFxgEMAAaGKxM8ojEytWsgCMEt9jBBIME6ZHVIEFrnPARCwlmMB9BaAYHBgU4b6w6OnuEZ0DnaJjpEP0RHti8KKARqUDUQvMoB0ZbBPwYpqqlm01eZ9J4yIqVNUeHOb2Z/ra+zTQaF1x6d62tS5ZgUBGiN4eDXoAB/klEm1dkPG7pOVBHHOPj3s685slnOAxEIoPqwcn4APABE8KQIZAhYuX4JkB1MDC4d4qWqbi8OEdVa2tdQ1dXa0NgUB2KBodKU9MdPB3WL/P5fKKlJRMMX36fHHwYAienobm5lr9wNV615Sak/pccmpy0JfqE4CaWJGT0xHrJVu1OQPB4wEpyIml1hsNkpd6THw/mQAUgw2ClCG8GIxK74zy2IzYzCBhGgfMcFGTip0hOOJ7Ep4X2kYMYExoYm+MWUUbIIMgYMTNDPQNiLa6NvHGC2/cZ+6SltYV07i7QUvr4lRYWGokJiZUo4jH6XRzx4/oXkAZ3jYBFYmJTjOVZrebb6IEQCqF4rEzeCtUnhsJNbKTSzxsZUqwUxWNjlbt27dlQhiZOnVuZUpKVjn2S34HXPl2kZGRJ+bMKROrVq0RP/7xd0V19UsVBw9uqzJX09K6okI17URvYnVqdqoIZAaEL9kn3H43g0BrfavoaethuAGcwLsCKICnA9cwvDmIr4mORkMEPKGsgixRML9A1OytKUev3FlTs0RaTpqYOn+q9PaoWlJmCkhCn04YVwHHKk3E/UrTIdyD3GWBip8BsCgDtAB0lBeGlkN/TUODdI8ODHMV7XBPmGs19Xb1iuaa5qrXfvZaBW9YS+sKSgON1jtWUVGpIURCJcGMAXgAsMSBBinghR6YFrDB+Pi3S1VUpYqHJMjggaoCeuECHw3RW2cVYnjOBzJWFRYuqg4EMgwFUEhzc2eIkpKVorR0sfjhD78j9ux5rezw4R3aQ6P1rmj6ounVyWnJRkZehnB4HOzBQLHMUP8Qwwo8Nue0EkzXLrwtAAozPqXqzRfePB8klJfdVSZmLJxh+NJ8BgGOUbi40Lz+LXCD7SrgMcdxT6r7Unl35D05AdAomDGLlhTMDIQHRH93v+jr6hPd7d3izJEzFXte3qNfGLSuuDTQaF0WmZ6acofDWa6gRYKMAho8NCXY4IE5HmhQGiSDd+HatkLNSIjGCWJGQzt3brroh2JBQaHh92exBwnfif3Kz58jVqy4T+TlpYgnn/xv8ctf/ru+D7TeFSF2xuv1VmcWZIrk9GRxcs9JhgCutu2U1bY5MJiAZgxsoPiJPjGwIKiI2CJlO565IBA3im8pNubeNBcQVb7g5gVymyYo8TBAxgQaqxhqTONipgmAhmHGAjT9vf0i3B1moGk50yLO7D9TdmLfCf3CoHXFpR/kWpdVRUVLEVNTmZCQaIwFGgU1KsYGlx5MFvoDYjjYMBohgInAC0OpIIh58R0/CGfOXFTt9QZofxK5WGzatHniQx9aL2pru8Xvfvek2LixSt8HWu+KZi6eWZmak1ruS/GJ1rOtDALc9ozLAjOqqGi894QsBhXSqrb+cuvFFuUYd224i8Emf16+MWX2lPj2ATW4L9XdYMbjWIFGxc7AS6SKmvAbUNwEmIGXCd4mAA2KmxpPNIa2P7e9TG5JS+vKSj/Ita6YiotXlDscrvLU1CwjNTVbnDy5jx6YdlFaehvDi2x7Bk/NqAgGCwk2XOLQoTcINI4IWqcKtZemTp1X9fTT//yOoAbeI5fLWe1wOIXL5ROzZi0WH/zgJ8SuXTvFtm0bxW9/+4S+D7SuuHILc430YHo1WgWG9wLFOQAJQAzDjAk0DDEEM5hnHQZsxIqAlJcmGinb8vTbF72eR8aGr28wRgZGymeUzDAItMYCDaSghr7XCjP4fo6tgbdmSMbPAGYQCKziZzpbOkVfd9872T8trYuSfpBrXVatWHG/MW1asZGTM9UYHh4oz8ubyUG4eDDjARiN0oOYHopSePOji5AeosqDc+zYLtHYeIrHcXkuXHgzessONTQcr9qy5bkLipuZSLNmlaLYyfD7A2LZsnvF3XevEy+88JzYu/c18fvf/1jfB1pXXIWlheU503IqEeQLIODrnmBFFTUpz8x4kMEwntQMG6QxRT8jI6HNT21+xx4QNPK3YOWC8umLphsZwQwDwcox0T3KLyDKQyO9Q2MCgxXUDPQMMKz1dvaKM4fPhHa/vFt7Z7TeNekHudZl0Zo1DxmpqRmVs2eXUZrF0+CmxkNYVuc+91JTrmx+eHNMjV2cOrVPNDfXmuvYRVnZHQREQV7/xIk9YteuV6refPP3VbW1+y4KbAhoEN9TmZMzTTz00Kc4YHnz5t+Lgwd3iC1bfqnvA60rruJbiqsDWQEDXgy+LwhWUBwLmAG8sI0DGeWZYaDBh4YVXCioiEaiZZue3HTZvCAEXlwsNTwwXJ4eTDeS0pL4O9H2jNU7ZAUaxM+gqjZgpq+zT7Q3tCM4uGznizu1d0brXZN+kGu9I61atd6YPn1+eVpaVnlSUmoMUmQtJwkp0gAwWEP6sNVyVqBBGgr9joexjt+fIkpKbhUoKlLxLx6PX/ziF/+OqtZVR46ct5bHhJo7d2l08eJV4pFH/o/YunWbOH58tzhypFq88cZv9H2gdUWF4qaCuQXV7iQ3x50oUInFy0wEMuYy+PCfCTYQe0tGYh1Ahl7+wctXyhNilP9LuZEzLcdoONVQnp6bHvfQWIKCORi4p589M73tvQCaqgOvH9BVtbXeVekHudYl6/77P2lMmVJUmZmZZ6ChO4gfxgQjElBkTSZ+EJtSEAOwwVsfpIAGfTE1NJw017eLrKx8MX36ArOqNwyQ5BCosbR160axb9/mUH396YoTJy7sLbC09LZq7POCBWXi9ddfEqdPHxRnzhwbnDVr8cNpaTkLaH8+7PX6xIwZxT/p7m6PtrY2iLq6Y6K+/shPNm36+QFzM1paF61pxdNQlbpSBcwqOFHwEoMajKNGk3nPxO4f/FmmWb00sOhItOLFJ1684lWjVzy4onzx7YsNAhiDwMzg2k1k8DrBM9PT0QMvTaj5dHNFw4mGC/bOrFy/smTJXUtK0M7OUP9QCf22KI7L8MDw7sZTjbt/+g8/3WMuqqV1Xsk7REvrIrVhw1eNjIxgZSQyaqAjSNRSUgDDD2UTatRDGFIgE4ea+AMby6KoqaurLbb+lCmzRGbmFG6sT7ZhI9uxgccGAcOnTu0XjY014siR0AV5a9aufbT60Uf/0qipqedYHQCN1xvovuOO9W0eT3I0EW/L9kTeMTNgmYZtBFknogRsPzlxYvdT//u/X9Fgo3XRmmnMrFz1h6vKOxo7RE97D0+ju0Be+ybMKO8MxPeNCTE8bJmmxF4aBTUIELZFyl783juvFXihWv+F9QZ9r9FypuU/UWuLLAqwod/3x7974nffNRc7rz73/c+V1J2oeyRnRk5JSkZKCbxXTqczyrCGKGRSZCgSbTrTFG1vaH+iq6XriV/+6y812GidV7rrA62L1kMPfYlgJqd6eHgwGA53x1rxVX0kIY2b6k8JhqrZMK6ebRrgBrATIUhp5OWUsrOnxtaNt1FDDzsyrzdJ1NefFMnJ6SI3d7rhdvvWjY5GQr29HQ3m6jHde++j68vK7nr4lltufcDpzCWQOcz9QLW3N6ELhKG5c5eGaf9t/f19PL2zs40b8gNUAaIyMnJtGRn5C5KS0j60cuUDWQRZzfv3v95ibl5L6201ZfaUdbPLZsOzwbEmXNRE8IJiWW7WwOzuwE7XnAKbWAroUePmfDYFOwpyosI4vvP4u9aA3b7N+xoObDkQCuQEcnwBX2lmXqbIyM+IZuRl5GRPy44efePoLnPRmO795L2PvO9T7/v4mofX/HVSetLf5Bfll6TlpuV6kjx0u9lQhGXD8RkKy/ZscM+nZKbY0qekL6LtLppTNmdP6MVQk7k5La0xsvC+ltbb68EHP2Wkp+dXo4o1+lUCoAA4AC+4nNQDGEVDsogokcZV0RO2MPaSAzRgHroyqK8/HhsPBDK4yEmNw+CpQRwNvjsx0SUOHNgqMwN7AgPRyZP7QzU1+ypOnNgXet/7/nR9Xt70hQQixbStBaOj4Zy5c8uc+/eHRHPzGfbsNDScQkvCrcHg9J6mprPRxsZTUQKi/bRb8xEPlJycJtLScqMFBXMJrqYJny8Zeyz6+7v39fZ2fbG8fLH21mhdkOYum1u59k/Wlru9bkHQwcVOLLodAClIcY2rlIcxW02T/6TUOIk9NAB9syo1vR6UPf+d59/VQNzim4tLPQHPd/IK80pzZuWIpJSkaH9Pf3RkeGQnwUkItbiS0pKi7Y3tHy+YUyDcye6oy+USUXs0ijicgb6BaF9nX7S7tVuQRXs6eqLo/sHusEfTg+kiWBhEdw5RAiBUB9996I1Df/HDL/5Qe2q0zpG6RbS03laoyTRrVkklPWSNvr4uhhjlQYGXBs9egAaKhGRLwWhTQ76J8iPYfEhbJQHILtra6rnTSQVEGRlTGCis68IwDqgB3CCod3xLxPX1J0Pp6cGOBQuWFxGMcLzN3r1bsv7oj9Y4X375CMNMa2sdpx0djQRl3ZsGBga3hsNd+0+e3PsTuVdSixbdNN/tTl2Qm1vwoWnT5i+YNcsQublT6ft90ePHd0ZTUvIeePjhWRpqtN5WRUuLyu//8/srvQEve2gOvn4QHhUpAIp5ffOw/CfHMdtMY/PMYQgeTi56AtBIsAlFopGKdxtqim4uKk1KTvp2cGawNDgjKHypvih3tGmzRwW9b7g8rig8UHSvRgm8omizprutG5ATJbjbFe4J7+rr7tv96pOvwqvDsJI3K2+RP8X/UMaUjIfm3TiP+6cC1HS3dO/a99q+z74bcTUrHlyBhkIf9fg9Nm+yV/gDfkCjgfaCaN9Cgh5PXMMLHXGGB/AcCg2Hh0NP//PT7+rx15IybwstrbfX8uXryhE3A5gAKCjPjAIbgAy8J5gvaznJvpxiD+sxQvyAhBnMa2o6HSvmwbbR39JYmME68e0glubMmaMMM/HvksOtrWfFXXc93JyQ4BgiwPEtXlySWl/fLOrqTnExU0sLYKZFdHe30fjZssOH3z6o+NZb/+BDubkzPzRv3vL5RUVlIikpRfT1dYuf/OQf9z/99L8+YC6mpTWhAlmB8of//uHK3Bm53K0BgoNP7Dohejt6+SnMoII/vtblNW6dzqNqOqTmkRhoItJDwzWfIiNVG7+18V2vYVS0rKjU5XZty52dKzKnZKKoCP1SRe2JBDURAY8NGt2LdrZ0Rnvbe3cN9A/8d29r766tv9q629zEhJp1w6xFqempL5feVSqmzp0qvCle1KLavX/z/j22iI2hJmqP2ugY7L4cMTbL719e7nQ7DYIwwxfwGYAoNIaoOhPFcSdo5JSL/uiDeCj8PoDawa0HGSz7+/pD3iSv7NYCnY2S2KM2PCoSXYmh3q7e0NNf0+BzOWW5Q7S03lorV36wsqOjsRzFTPn5sxlcADMYB4hImIH3RFazVpChYCQu+WqqgAbenq6ultg4YCE1NYeG6VERe8Aj5bXwj4UiI/U9cQPUOMS8eUsJeI70LVq00uf1jorDh49zfAyCidvbG/k7OztbxJtv/ta6Y2+re+999OclJSsXFBffLLKzg6K3t0f88Idf+wKBzU/NRbS0zpHD4TDW/9366gW3oNaebHcGbbYcCx1jqOFrnP9kCsUARk03h2XCE1kch2a2EaOChOkWK3vmm8+865llcGZwMcHABl+qbzFBQGlmMFMkOBOi7XXt0UBO4L+G+oZ20e/d+XYQ88DnHlhIEPQR+o0Lu1q6Fg30DdjodyYuuXuJmDJnCntFqn9TLaK2qDwKHF9tszldzt1dzV2f+fX3fv2W2x+v0jWlRqIzsZzWLweAEMiIlKwUBpi03DQUmfH5OrX3lOhq7WJwQQOJKDJDPFRSRpIY7Bvkauz+FL9ISk3ibfjT/LyN5LRkPk84RxzAbULo0MBQqLutO9Re3x564v8+oTvwfIcybwktrbfXmjUfrT579hhX0fZ4krhPJHhmVHGPinFRxU0wCSljLzPc2JgmzU4w0yr6+3vMZe1cswnbkR4aukh5fSzLY5yiiAtwgnlxmJEdYuKhkZaWLf7wD+8Tp093CNRqgjcG1cJRtAWYgXelu7s1FApdfPsdDzzwfz44bdr8Ly9ZcpfIy8sTra1tUdr/B9av18VPWufX3eV3V9/+sdu5uIIDgMnQbsvRN49y2y1422dRYgUW6zA05n4yB1XXBApoyELPfOOZq9pKbyA78HECj13hrvA5wcFvp7K7yj4yMjLyTwRq9HPlD6ZfZ8vOz7YVLS+y1R+tlzBDjxL8dofLYXP73baCogJx5tiZ/3nib574NG/obQSvktPjLHf73OVcrJTkFckZyeyNyZ6aLdLz0kXT6SY+R/CoccDywBA/w3AeUQwFcAGwwJMDeAEIAYIARgAf1Gw7c+QMp4muREHQJFweelZ6nfw9iBPCue/v6odXp+pY9bHQ1YDR60GWO0NL6/xaunStEQikV7e3N7BnhO5nkZ2dL1JSshgiULQEDw1ARIEFptn5Ia0uM1mjSb5OSdCBhwfbVDCDbaSno2VgOV8+yuT65nONhRpJACu5DGJrVNFTgli4sFjceusqsWdPA0FMEy/X09POQAOwQTVzQE1vb1fVrl2/vyTX/Mc+9n/nB4Mzf75s2Z22zMwMsXPnG9GkpJQHHn54voYarQm1+I7FlR/4zAfKAxmBMb1pw0Nz5I0jsjo3XeJjYMZyzcfmmcNjRPcV1wAE0MSDhK861LwTFcwr+A1BQonT6bTRsZJGx8uWQE8HerDg+CUkJtj8aX4bPCj+VL8NgIDfv2/TvltfeuKlt/TSFK8qNugMvElQYnP5XAIwg/VTslNE3sw8QYAktj2zTZzcezLWkSiE4iOAC4qhuCgqi9YhiMmamiWmFE4RvT29ouFkgzhz6AzDUGdzJxcxcvEUGYLAOaXfwt4d2vfsadli2oJpIn1KOjx4oZP7ToY6mzqrnvzykxpsLkK62rbWBWn69PnrHA7nOgALwGBoaICLmlwuLwMM35wEFLKISUIGFK+eLV2sqto2v29RCtgA1MgntE34fEm8HbwBqWXR/5MalumoGBjoM9fDd8hG+hwOh1i+fLUoLLxRHD1aCw8Me2J6ezsYaFArC7WpBgcHeP2+vo5Qa2v9Rt7IRWrPns0tubmFzfQ7V2Vk5NlmzJhOoDQyf+XKDx349a+/p6t0a52jkcGR4Nzlc9cFsghouGhUQo3H7xH5RfnC4/Pw2//gwGA848O9hIzQvKfGDI833EP8Z6ZRW3DO0jkNh7cfnpSZIsHCXjo+H3F6nPJ345gQ1FAqgQZwQ0pwJthw78PzQVNt8I70dfeJ/a/t/425qXNEsPQdX7KvkiDGhu17/V72qsBbUjC3gIuOXv7fl8W+1/aJ9rr2qsH+wepoJFrlSfbcm5mfaYNHBssDYnKm54jpC6cL2p6ofrFabH9uu6BjLmoP1Yrm2mbuqNPaMzkPD43EvGn9ff3svcHyZ4+cxTLB6QumG2nBNGPp2qWhLb/Yck5TFFoTSwON1gWpoGCekZjoWJefP4cAQnAQLyDF7fYy1OCBChCxVtFWoBE3tCczyuthHoqN+vrQwjAtTIaiKrQvI+HHCjNyPD6dHgL9vbHtYH/cbp+47bYPcTBxXV0Ng1IcZjq4SGtkZIhBbGgozPPC4e4qgrNLftgfPLjtQHp67q0uVyAL8TRZWUlZ/f2j83/+82/AS6OhRmuM0At1bmFu+fTi6RJmEmU7NIAaGN7yYaiyjKIKhhILwJgZ+HlNcowlhaJi3Zwb52w8vO3wpMsU6Tg0JaUl3UHAkQ1PhoIaGI4X/WbADRe3uTwugA3idYTT4bS5vK5FHo/nNzUHas5ps2amMfONpPSk+9w+tw0tEwMoATJZBVli6oKpoq2+Tfz+h78XNftrKmr21dzX19W3kSCnITkj+bGU7JQgipawLJ1LMXPxTJFdkC1O7Tsltvx8CwcEN59uhrctSuACfzTKzBheCFRsiHVSRYOxvrCUEeSg7R2sX3e8DrE4wdTs1PKS1SXrtj+7XcfXXIA00GhdkAoK5hgej39dWlqOKClZySCDqs9oUA9ttqgiHxQx4QYGZEjYsHpY4jAjoaSHY3D4CUyWlJRmLjseYOIgo8bhYcF28J1FRQvEhz/8hxyMfOZMHUDFhJlOBhrAD7w5qEUFQ3EVfXfo8OHqd1wT5ODB7T8NBqfd6nanZuXn5wifz5Pldmcg2PgVcxEtLaUGyhDXFd9SHGSYoXtGwYzy2CAmY0bxDG57pbutm6sC435Cxs2gYsKLMvPWYcXGrUKWOiqMOTfMCR3eMfmgJi0nrdjpdC6CF4aOQdzoh3IXETSM5RxuB3ott6GqOI4VinD6evvE/s37f8sbMjWzdOabBDJlACCX2yU8SQQzuQQzU7PEjEX0MnSoTmzbuC3U2dB539Hqo+y9LVpRZDgcjurk9OQgvDLKI1NsFIuWxhax7bltYu+mvYLgKTTQO3DG7rBnJjoTI4mOxKiKmfF4PVFaH0VVURQ3olgL+9hc28wxQKqYkF/iaBzVwBtPNXJRVf7c/ODtH7t9XemtpSH6Lu2teQtpoNG6IAWDM8pdLo/hdvt5fMoUeGoiDDWoZo2AYFncJAN58SSVQIIyfdnKL6ACXhKk8JSgCAjgw89h+gc4ORdmYKqlYGnhsOxqISMjV9x553oxZ85SUV/fgeBchhfAjIyR6YwVTcnWjFHc1M8gNTjY93hLS91lccVnZ0+FR2Z+cnIwa9q0NDomffPnz7/5le3bn9NeGq0x8mf4Q9lTssspo+YMOQY0iQQ0ZKgBheITFGnML5svZs2ZJdw2t2hqbBoLMKZxxi4HpFTKvgFz0BYN0rBRdEPRpIMago07nD7nQoICLmZijxY8VWaxky/JJ+BpoWNoQ6/lWA5wA6+Ly+favfUXW2NAg17ECXj+zuV1sWcGcTOAGVQxn75ouqg7Uie2/GJLqK2ureLgtoP8bCheUWzQOQHMcIAwAoWLlhRxcdPrz78udr60U5zafyrU3dx939kjZx/v7ej9Hi17F52rXJxXwBWMRecD+0z7K/D9U+ZMsS1du1Q0nGoIhTvDQVQFN2Of6Pkm086WTlF/vB7XQzCQEzBmLZoV2vnyTg0155G6/LW03lJLltxZ6fMFynNypopAIJMbvaNxeCLE2bPHRGpqNgf0qngaeWnJNw+AxMBAL0HMEE9ToINl5JtpvLq1LLaymbWc5MPLKoAJWuxdtuwesXDhYoKYbtHT08mgQpDCkKS8MwMDYYKZQTNuBvMlzPT0dLB3JhzuumyxBRs2fGn+jBmlP1+9ejX9tqjYsePNpz796ZV/Z87Wus710FceKscbPwJG2VtAKd7ECVLQnkmI3toZVDDt6JtHKxeuXMjD8Cggc0ONGQxjGRfdR263W3htXuGnTzJ9uhu6RXNDs3hl9yuipqHG/FZTlFHSXSVTvCGQuFgDb/uozo2XArz9j0ZC9PZfMZlq0Mwqm/UPvoDvowQoCI9BoK6NjhvARhqOsTmOOBi0UZOUmmQDgHS3df/PP33snz6D7eQW5Ja6Aq5qzAPIqGImeFtmGbNEy5kW8fozr4fqD9VXnNh3IgYztkRbNfqpysjLYI/KjIUz+Lxtf3a7OL7ruOho7qg6e+jsOZ7eqXOnLqbH2+t2Jz3FaN8AXPyhFNeHWdPJNvemuSI1JzX0gy/+4JO0WiU97wwGXXru4ZpAfA+uD9SkKr2jVAQyAqH/9+H/N2kDva+0NNBoXZAM4/ZKjyepPD09l2s2oa0Y9KOEYqLq6he5OjQau1MwMzo6TAAhg29lkQ+3JByi9yoyWwg8g2Vp2ADMYJhAoBxxNLLat0xRjASwAQQBoMrKbhKLFt1K2x4RXV0d/B1xmOnl70KREzxAACnAjIyb6WfAAewQAFXt3//aZW94rKLiH352661/sODGG6eLLVuOiY6Ozgf+7M+W6lpP16nu/9T9Bqr8+lJ9BsGMwTADIzCBtyBmlDEhE+Q0MV7MxCbvAX6Lx3qAIq/XK5x2p8hwZYgcVw4DDcCGlubvBdDUNJJR+srOV86BGU7NcQU2SPnNn6CG5k0aqJmzdM4/JKUlfRQgQseHYSYxMdFGx9FmxiDxMI6vy++yITCXoMYWSAuIjqaOGNAEZwbfJMgpQ80leEhQmyl3Zq6Ys2QO9xL+xq/fCNXsq6k4vEMGUBctLTISXYnVAAnufmFmkMEHsU20LNoPglelovZw7XmPY35R/jfpHG9IcCbQI0zCDD50HXAgMkAlJSvFVrK6RIz2jy754d//EMVplbQcWifma4O9TrQclkdtqBvuuQHAHPraH35NQ80E0kCjdUEqK1tT7nS6KwEwKSmZDDR+P6AmgwN5a2r2i+PH9zBQSMAIM2xEIiNV0ehoFfpXMjc1oe69t/yRe+/d8M3R0VH7oUPb7bt3v7aXIOWG7OwCMX16sSgsnC8KChBM6SJ4aufvAKjgewAq+F753WH24gCg4kCjvDO9At0r0HjZvn1bLvsDHVW5Z81a/PO77rqL3rATxVNPPb3/K1/5yB+Ys7WuE615aI2R4EqopAzGQANqiHs5B2YAL04JMQpkkOkyvKMjSmRYCmhQLAGoIZtIM/wzGGbSHeliVtIsngaIGaZPmD6HGg6J4w3Hxdn6s2glmL2isuhWgkx7YzvXosEwGqWj/QzNLpld8ejCR695qJlRMqMucwrXKrIluBMYauj4SoiRx1IO0/F1e93cPQGqYcNDc2rfqd3/+ef/uaqgqMCgc8HVswEzaGcGLTaX3lQqBqIDYvNPN4uu5q6yHc/v4ONB8FJJy5SjSraKmZl/43yujfTmr99kmGk/217R2tD6tsePvvs12kcD+2h30NlG7SwCG4YUtxNt54jCkkJb1tSs0D/+0T/ekFuYa9D8avwedY1gGG3aMABlp4ibPnATcu6yL7//y9f8+Xu3pYFG64JUWroaMTTw0hDIBDgQ2O+HBbiRPRQD4Y3w1Kn94vTpg2gsL0TwEBoYGCCYGdu1QEFBUTlibtCqcCCQSpYtiorKHnG7vQaKs1BkEw53OQoK5ggEIePBBe8L4ASeH+lxQTESoAkw08eeIAAMYmxUvAxS5Z0xA4HFlCmz0ApxRVXVX12RWgOPPPKln91++x8uuPXWQrFp03EaX/zA8HCf9tJcJ1q7Ya1hc9iqkSmiKAIeAbw9j/HKWDwy42GGMypL7SaeZg5TVjfmiYz7CQGiHFth8bQU+gqFz+HjbQuXEH30CUfpXkDxKmB+mO6BkWH2yMTgBh4aM/AUKc0LRYejFX9i/Mk1nSkqoCF4tLOHxsXFdApqcAxkERQNe31emyfg4fZk/Gl+29HtR8V3/7/vpmZPz2bvDIqZ4HFBDaXgrKBYvHKxePEHL4ojoSMV+zbt4+cB4MfhcVTDG4K2ZrAsqtRPmz9NvPTESyhmCh3aduiCvSNT500toWP/GkFkAkCGrh0ugoKhYT1cOykZKbbS20vpJWzkhn/66D/tRE04+n2V6rpAERSuL5eHnpluBwAINbVCf/8Hf6+9NOOkgUbrgrRo0apytxtA4+Nq2vDKwEMDqMGwx+Mnowe8L8BFRYAJeERkkVOfdJ+aRUiqewRADbaFoGLEzCAGB8ugplQ4LGFFBRQjKFgGFSPAF54Z5Z3p42G5nJwvl5E1mgA0yoPT3d0uPvnJrxBwnaj66lcfuiJ93aAV4eXL133p/e9fRXDXI15++fkvfvWrH9XdIlwHQhETXYvV6KMInUwi48SbMzwzDC8EM2NAxhxmoDFNjSODctI94HQ6hQsdutocgrK5mJcGEDMaHRUjUYKTCF3PfF3TNU6QolLExji4aDaR9wFPc8xT82MQRMZgZIINjJcZGg39nyX/55rOFBXQ+FP9DDSoNQSYiRni78x2aAAxAEx3klskpybbtv1q2+6tv9z6OcTBoI0fAE1KTgp7XBasWCAGegfEC997IVT9m+rYMZhWPK3an+I3UPspY0qGyJmWI+avmM/Vsjc/tTm0b/O+iz5eU4qmfIP27xN03rnoiQCFU+w/rh+Aymxjti1nRk7oqx/+6lKskzcrr5rmw7MjYZdMeWnQtULZ3WX0/HSUfe2Pvqa9NBaNjbjU0jqPIvRQVTWPAA+ACFnM02Om0lT7L3h4AnhycqaJmTMXicLChdxVQl7eLIFiJHhe4OUBxGC7AJOurjbR2togmprOcqN4CPCV25fVsFXNJRQbof0aTDOLtUygUSY7y4zXboIBeobFlClpaInYMH/WZdfPf/7vP21uPis6O4dEVpaHvitnvjlLaxJrzQZZzIS3dmR2DDL0thzLcFCMRGnsrZqgHBDPqZkhYVmYyyXjZAJJAZHtzhZTE6eK2QmzxVz7XFFkKxJzbHPETPtMMS1hmpiSOEXkOHNEuiddBJID8EIIt8fNsTaAIhQx9fb1itbmVtHW3Ca62ru4vRtu18QCNzHAMQ2AE41GjX95/V+qzZ94bSoKTrPx84RjgyICfTrJYfrjmSRAjQJJ1HRC7aCmE02fHh4eflQddxQBAngApLC9m/eKjrqO2ItNQVEBd0oJEAVkwJuTWQCPcUSc2HMi1FrTekkvQXS8vw9fG56etN8oLUSNCO51HP064VzVHq6NEiyXfvo/P13K6yREKugchWK/k4RziPOG7hfQcjH98ko5R0tJA43WBYkeDCF+wyNjlzUH/fYzdCAIV6bSACfSMwPIkcPwksRNjVuXUya3AViJtycjQQYN5KFdmXgNJgku42GGH+Im0MhYmgGeNnfuDeLkyVZRUJBirF//+SsGNXSMnqqv7xGBgANFcRpoJrlWrV9luL3uSsooUWNJtXkiYQbFR0hNaGFT8THmsIIbGIAHy8Oj4LF5RBJ9KHsVmfQJmB81HqRPLn2y6JNuS+fgYJ/LxzWg8P3YhgIobBuggpZo0ThbTwfdQ5193IkjMkIuhkILtZQy3MTbPDG+/srXy82feu2J83PpXYqBDDq6xnQ5zCm8XewpcyXaAAmh34b+Z9NPN+2haWV8jOg80Tlkz9r0+dNFc00zYouqVI0mFDXRMpXsQaPlAa3whNB07septba1qqG24ZK8IfXH6ncPDQ5FbDZbVO45fpCIEotF6ZxFo6PRKDq6RKvCEXvk21in4XBDiM5TFYMnPvQbcX753FGKNmoAX5/67qeu2HNsMkoDjdYF6fDhHSFAgmojRnlBUKwDEBkPNXHPjUwluABgrOCC9eLrSICB90Wa9MZIk639Io5GFS9JeJHgokBGwYwEGQkzQ7w+gpgR69PaWi+cziwUcV2xhzjt64HW1lbKcOwiIyNnwapVH9ZQM0m1dO1S9sygFhPc/cg0AROxoiQTKFTKAb5W74wJMmoYy6GICMVMbvr46OOlz0SiNYWLPvSNgr4p9lHbRMyNCibmoir4KkxDpoduFLraurgvIfQUDdihjHVM8/tIB/oHKr/wyy9ckxkjQww+ZpGZytytUEPngmNrcD7wmzc/vVns3bL3f7KmZZXTcUKQLc9DwDCCuDPTMsX+rfsBfLE4uogtUgnPDJYFsAJoEBCMhg3rjtWhWOqdxdxFxS46X1G6DuJQg59FQINzBahpPtmM/TQe/oeH2UtD31tFvxlV7bE0G5bFccD5RN9fgdSABhqLNNBoXbAACDKeBUZvg2acDKYj8FZBifKyKMiR3hYJOXJ6fH7cExMvTlIAg2nYPjxBE8FLHGyUKaiJFzXhewBTEGAKPXs76MGVkpJxxR4EXV0tBDR1tO+jIicnWaxb96gGmkkqwIzP70P1bOkBMONkVOanzAovMCvUADZ4upmxwrPipI/H/ABazifKvgRd9bEPXdnmPSDvQc7wTVOZXsxI9O0CHgt4azqbCGw6+mR/Uf2DnFmjRVp4Byit3PDVDdcm1MBLoYAGw+o3R6Jc/KS8KvS7bEerj6JNmf+p2V2zBx41VRQICMU5BKh0DdAzpqO3aueLsrICvDO0Pser4HzBCwdvTmZ+pjhz+Ixob25/ZzBDIojdTddAVEGNLYHABmcJLDMyylDT29kbHegeiCYnJ2+QawnESVUx8Ji/2YQf9rCh7Rz6TRpoLNJAo3XBoodoSMKM9NKobgoURAAo4EGRNYrgfZGt9kqwkVADi09TXhxZBKWqYgNEFKSMBRf5HfKBPn6amo5UwgyChjs7m0VaWi7PV98/MtJFQJNjrFnz0BV5GPzkJ/94oL29iX7TsAgEnGh4UAPNJJRxp1GZlJJkoGotGkJTnhmYFWasEMNmNowWGzeNgYYyXgANvDOAGaRvJQCM+gBoECjMb+lkfL2r2JhxmT2CitWwMnhjKNMU7Q3tDDj93fQS0h1mI9AxWhtar7mYDMAg/TbuHgDGjQSavw0pjjM8XkODQ7ZTe09xdxFtTW3/g3XpeLN3JnbsCVgANAQRouVsS6z4iLZfzh4285xx4G2an8EGQLPjmR3vGGhwfmjbUfoOGA/bEiXY0PmLEqBw2nimER6iGNBEhiOh2PnFb6ZUmel5u3aLC6+CNNBoXbDohooVO6mbCmCjgGa8WWEDgKGmyyBebAOGYdm1gYIlNSxjdSSkII2DTHy7cnr8O2H4LniMmppqufaV2paErB5x5kybyM3NI9i4cl4aWUMrQhmYnbuJ0JpcKl1TavgCvnLVxozyzLA3AB4aMwNUmSAghlNknmqaWRSklsM6XCOJPvDKAGbeyjsD0ZVsQRpc33T943rm+8QCMmQ8bsLOROPKADboABOBs+jdubGmUTTVNOF3GQXFBdfWG7/N9NBEoyiosYlRgQ4ebXQ/M+TYE+224eFhcebgGQaW1jOtu+Gd4VVtNm6gjs+BCZMICm5vbhc7X9wZgxTadhx8aHkUOWXlZ4mu1i7R1XJ5WhPHucBvwXWSYE+wgs2Y6vr9nf0c5/RHf/NHXOzUcKIhRL9extLI4xALDkY/TziXn/zGJzXUmNJAo3XBQnCtggP1MMU44mhUzIqEivFpHG4UzEgwGT98fpPbGAsvcaiJG/YFMNHSchZxMpSBOPg7sZ+qZtbw8CiBTgJ+zxV7ECQnZz6F1oydzgSRlpZlTtWaDEKfPy63qxLtzIyplm3CDGd+8MKo1AQWZQpk2EywwXQFNChuwuftvDN0Jcc+DDPw0PD9QvffeHCxGk1nz43s7kCOq3VovlpndGiUfxuKpCD0Mk1fc20JQAMPE4pZsO8YVpk7wIZ+Z3t9O7ca3N/bbxvuH/40VssqyCrn80PHHsIwlgmkBhjgrALIqfMEKMJ5xvfCA0LbvCxAgxgZJPQd8Mqo60TG1CQSqtlpHu2DSBDRwf7BaKIvcbFck3bFZuN94N9Ops4pig1RZOj06WInJQ00WhcstPgLgBjrTcFDUnU8CZPFPVaYsdqFAczEy8j11bYwPhZwZDFTv0C16YaGU6GhoTB7lNT25D6hPymUadMLXzRyxR4EAwM9ord3RLhcdnH8+C5d5DSJRG/x5Z4kj4FWZeGZAYSwV4YyO84YFbiYb/QqM4wZxpXROC9vrgeogYdGQc1baYA+gBl4adhTY173DCd835FZi5bMjF7N4+ueMnxlDDYYJoDhlOYjMBiBwsi8m083h96qKf+rITp+HCcDj5T6bRhHjBB+T1dzF2fsBGa2jqaO3bs37WbvDGJgcOzZK2KeExz/ro4uUf3r6thvzMjLiIMP/XHMDS0HoZuDgb6By3I8ADGcmtcFXxMWg3AW4a3B76Jp7KFhoZI3hE2Yv1tdA6jN5vF6NNCY0kCjdcFC9wUELyH5UB0LNQoo4jAzMdDAFKCca3jITjRdmVpfgc3Y70Hwb2PjadHSUhvq6Ggq6+1tr6D1TKiRhn3lpwJd+uh76koJAci9vcNc02lgoF8DzSQRipq8yd5y1SNyLAiYYIbNLGpSmZLKoMYYMlDTrMsm2Ont30aARB/ADMDmfALIAGgU1LCHBlWukZFZMrSYt8ICMzwMjwYtp5YFwPD6BDNIYSiuAMwg40ZMTW9n7zuOFbmcSslK+SOksd82GrHB4JmhcVtPVw8gD94ZG2pudTV2cewMREsaDDPyHx9/HIO9r+5FoHUMUtA4IsOMKQU2OB6pOam4Hi4L0OA6wj7wviAwGNeHvC7Ya0PTYTwPj6dARsBck2Tm0uq3QOrcdrV0sYdJTtXSQKN1URoYUF4PBTR4G5RgEwcMgI2EjPHQAbMCxnjDdiaabl1fmtymjJcZ4JpRDQ2nRFtbQ6ilpY5b82xoqA11dbWe41XCUwFF8gCa0tI1V+RhgIDogYFBekAKdLdgPoa0rmVxWyR2eyXiZlDUFPPOmDDDXha8zZuAMh5ezmdYlo3WBcwAZJCeT8jR0EdTP30AM+ylwYsC3wvSs4LMTAGM1WIgo6ZhGEVPZAw1QxJmuMr2AAENvBC9AwguDdUerL2mgEYkyIQBhm5YeKNiv4uGxQidAjquCNam/d+959U9MaCJCQxA5wDHqru1m707gJ+YLDkglgNM4JihSjSKc7x+b/WDn3/wnT8joqIEXhr+Dvwl2KIExxxHowyNJcJDhPND10rcQwOZTxDaglwf2yEN9g3y8lpSGmi0LkoEElWqSwL5cIlDDabJLgcUxFhBJj5NeljOhRYYlo2Pj10uvi3lDaK32IE+0dHRxDDT1dUSam4+PaZp8trawwQ0g+xVwj5iXc4yCGgSEihzcdivCNAMDWH/cEwE93Olde3L5XdVohpsDGZUALCCGcpszoEZpOPBRk2zTMc68NBYP+eTghl84KEZitJ9Q5kWFxORxTJ1MuW9OAduADJkCoCUl4ahxgQaVWUb3ojuzu5rC2Ys4t9HoKaKmmiIA3ZxTggKuJNKFDeZi8dER16mdPzxmwFBGMZ5UBoaGIrd/zhf+A4si6rtaHEZnUEWLiqsXv83699RvB1te5G6FhhIrNcHpVyt3O2MIqYJsEPjO81VGexw/fDP4dXjvwvrjgxqoFHSQKN1USJA4E4nZdswca8HvzWaqYKNtyp+ioPKRHAzdhk5LMfV+vh+tCnT3HxGtLbW0f6EywhqztPPSkKFXF8GMOORGInAQwM38Pnd/u9E/AASdhtxjW1wEN+pdS2reEWxgT58uL8cVNE2A4EZZghkkGlai5vGZEhmxnLOtHGGdfEBzNAU85vHCt4YAI3VQ4OiIXhnYApWJgIYnmaCDJvpmbF6aJQhw0Y7NPDO9HT2hHqbe6+p2BmraO8lzKAxPcrHezp6uMdqNjo36AW7t6d3jHcmMkzrgH5IWFdBH4RzrARQgtQ5grgBQjo+8GABnHANFN1YVLn+C+urVzy44pJegOhaQh9OY64HNprG7RI5ZfGmCTbwEMkdI+GaoSVj6+AoqGFck7g+tKQ00GhdtOgBWoFG75SnxgozMoWnRkGNrAFlhRs1rIAlbhPBjTQJMrJ4qaenHRAjWlrq2CsTDvdVALTM3TtHspXj4SpZw2pEBAKJtO/DlMGgTZC3rmlyqaJt89OxtxfFdLJhP61rU7lFuUbEHqlE54Voe8TsAFEGiEovQCxY9O2gBWZlFZ5GyzPMmEBDU8y5Y4XAX/Sczb1n04e9M7hf+NqnaxcwwvcYZfFkKpNWxhBjwo0VXpRZi52QYQ+Fh0RvVy9qO1W0NrRek0BDxw/RJbHfGO4N83R4WXBcAZ7hnvDug68eHOOhoZeVEPOMuS4HT1OKzQ0Nxr0yiZ5E2V8Sib+KlkExHGxwgHAyPCjb7OntFwtuXmAsu3dZ5frPr78oqMmclrkI1xFfC2SqCBN9S3GcFl1vCe6EKK45TEPRE1p4VrJFbQZyar7+zG3wJUQGDyL2WUtKA43WRauh4QSCg8sQt4LWf1V1bqsBHJSXRgGMTCWYKE+LCjCO29hpWEY21id7y25rq2eQ6e5uDY2MDJSdPn2oDPtj7tp5NTpqq8J20SFmRka+aG5uoDc3vPldmZpONpudtj1K+xkheNJAcy3L5XBVulyuWFET3pJjmQ6Z8tC8FcyoDAZGU8ZMty6HDwSvA90lPAyNhxn2zkTN2BkTZhSsKKCJmQVkYjBD4MNmwgyDDIqayOCBQEYNzwbaWTm84/wvA1dTfMzlMbTRL+PaThCOJACBIZPus86mznOKm+gXs4eGvTMwVWRFonMYu+fhyWHwUaKvw7FSwIcYFRTLofFB1ARLy00zZi2fVf3Bv/rgBTdC6HQ4F/F1RPsKYAGEKFCGhwbz4KVh74zLGUU7ONGR6C5zdRG1Rw2sq64/8xKSgEzHQCsufTS0LknwiBBsENT0hFSLv4AP5aVR3hDlpVEwowBHQY4VYuKAg+UQH9Mv0Kt2Z2eLaG9vZAPIDAz0VRw7trsMta7M3XlbnTixM5SQkFhVUDCXHx7o5BKgZMcD4goIDxs8QAcGIoC+K/MlWu9YaHPGm+Q1XD7Z3gzemFVxkzUgeAzMqGHrNMsHf5woiFHGM+IwA4hB7SXAi4IZBTQcCDwUhxkFKApcOIOmN3Ok42GGh1URkwk1CmY4PkRWR+Y2VgYHBy+pB+l3Qwnwcpp3Du4lVDQg+JAwQzcujilNsw31DZ0DNGBFBTEwHCMFNChSVEKnu7SEOUaiQSyH44QiOXhmYObx4laWcW/f+L4byz/3xOeq13/h7b01BMkPAZSxv4kJdE0RyFihBqnyCpoW7euJvwQRzMTayYExyJjPF1lsrrNxJX0ktC5ZgJrR0aEKAhqGGnRpgOIVwIh6ACuokV6ZsWaFGqRDQzLIF/05dXe3EcA0MMQAaBC3Q9BUcfhwNYHMnksKYAwE0oRhlIqOjlaOwYHxE+wKCGXiBFC2wcEhW3d33H2sde0otyAXb76V6NoARU2x/pqssTOAGWQklgzF+oGsGWJsGBmjZTg+SJkrfQAyKl4GENNLHwUzXFUb9wwAhEEfkC9BhSGGbLxnRt1v1lgZHkZgusU4dgYeh56waD3bWlW779pqd+a8wvGTMTQxDwVSeFjwu8eLjkuIjw1ABscLxwrHjyBg/k3zxaqHVjGItNa2yqIpixhoUBuMDK3xwuCh4WGCGnhqGk83iuyp2QZtq/rjX/v4eb01KG6ia2oRvC+4YFB8qEBGQQ0gJgbTtBzOT29HLwcFF8wrkO3kWABarcvFVXStOr3OyXEO3wVpoNF6RwLU1NQcKBsZGSzr7++pQjGU6owScKL6ZlIp4AbD6LsJ87EcAKanpwPxMNz3EgAGhml9fT1oIK/i4MFtZceOxZsrvxRlZRUY2dkzxJkzjQwz2B/ajyvSWvDIyPACZH74vW1tDeZUrWtJib7EctRqUm3O4M0dmQsXZVAmAoNwHiFkdLEPhmEmYMTG1TSko1HObAEkKDrqh8eRPt306aIP0h76SL+MpahpBB5N5bWMw4zKoMeYmVEDXhhgADYm0ACIzml3Jkz7QZkyAU2oZl/NNVuzSYmOPRc14RMTBumUUPbO3R8QNMjpFqHLgEhU9lSN9XGsMFx0Q5GYWTITxYxxz0pUxOJoWDSojiuOGx8vs8+rcJcEGwIOUX+inovuFq1aVP53z/xd9Se/8clzvDVOh/NjvmSfjaBDeHwevpYYSEzPDBc3AWbMaw9wPdg3uPPlH7zMRU60vOy+wQRqDDPMEHzjuk3OTBadjZ0aaExpoNG6LELxz/HjuyuGh/vLCGhiYKPgBp1RYhoMoILAXtRSUhCDYTkfPWx3hwYGequGhgbLADKHD7/DrvtJRUWlRl7eLAM9bfeZAc0o4kpIcFyph/oCMhvAac6cxT+Vk7SuFaHPIrfXjRaBJcxQBoEMhTMaZCCAGMrYODOFIWOEoYhnHFxgemzYLAJisADMmCCBANNwOCy6erpE62CraBhpELWRWnEmckY0RBpER4TuiUiPGIyYcTNYD0W48LSY38ffo77bzHCVWUGGIQYeBhNklKHWDjJnyjDhvbhmi5pistZsH8MbODFyOGdmjsiblidHxsketVeNP25tDW0iLzMPsTDmUiSbBJrxFjv2ZPBsKajp6yL4ND027Y3t3IGlN9lrzFw8s/pPvvUnlWs/uZbBBt4ZApQSV5LLhlpOiJ9BX1IKllH8BHiOFXFKb4torWuNxc/QfC5uisXQ0HWJGBt4FNFeEsY72zqveTB9t6SBRuuySoLNLgab/v7eKoKZKgKIkIIZwIQEnHjP24FAZiQ/f9YIQUYVAUDFnj2byw4c2F6B2knmZt+xCgtLjdLSVeLs2YZYcRNifeDHvhLyePy2CD1IBwf7bE1NZ8ypWteKCFoqATNc1GS67hHHgIwGHTXu27xPhF4Mie3PbhdvvvCm2EUvzNt+tU1s+cUWcfTNo/AAcONrqognVtRjgkVsnOBCAU1/GDFhfaKru0u0d7WL1u5W0dzTLJp6mjht7ybI78T9ERaIn1HbU5kqgwwyaEvczJjvw7DFIxMbJrhBIDCCgJER03oV+zZdePzZ1RL6miIYgXgcIMPD9Ee/ngG0eEWxKFhQUMILjNOwGOaeqhlEyXA8mmubxVDCkHD5XDHPLLwu2C4vZ24fKR9fnAPTcCwBhKj1BKhBiuOJ7gfQySdgad7SeeW3PHBLZfm/lJe7XK5/DmQFSijF9WWj/bU5HA6uah6DmkSCGLMndxigs6WmJV7cZLfHPDRIAT/o1gEB7ClZKegxPfT0157WHhpT52/dSUvrHaijo7mhvb1xY1tb/caWlrNVzc1nHk9NzdkYiQzjbYjSoY0+X1rWJz/59bQ77lg/Eghkjbpc3j954YX/ft7cxGXVhg1frAwGZwZPnz4qurra2COEQOZwuC9UV3d8o7nYBeuRR766aP78pX81c+ai7MOH3+D+Y5RuvvkPPpSfP/u2rKwCW39/n9i1a9N+grNN5mytqyy6DCp9Ad86vOHCADaozYLYiJN7TorGk42cgSBDg5ARIpCWi2woPX3wtDi09ZA4sfNE1aHth0JdzV2hhlMNov5YfRDbUfENnEmahm0BQhSAsMcE20PXA6bxOBpkpJQ9LCMjDCoMMcrLgEwWkIPpGKZ9GwMutK4yNLjGbarQtpERo5gELQIToD3OP+waF8FmlDLujwIEKPNHq8Axc7gdtkB6AMfCVjCzYPH0xdN/8+av3xzT62Rva29DICOwjtYNqtpEgILgnCCOaTAtI23jsZ3HGrw+b4PT4yxXHjq1HIyLtqKoOS5BB8L5wzFV0KiAB8V5qG4dSAkEZxXPWpdfmF/Q3dU9SgAaxTbZ++ew2xIT+PcAaGx0ndgIUGxOn1P4Un22zqZO8Yt//cUf4HsIWCppn4K4nlTRFK5VFEvR9ctepta61scPbTukgcaUBhqtd02trXUNLS11oebmWrKzofnzl0emTp1/T0pKJsfVtLbW79qx4/mYu/Vy6dOf/nb56tUry48fr+HYHBlk3KHieEL19ScuCmjWrPnIooyM3H9NTc2+a3R05M6pU+etWbDgxt2HDu1owvw5c0qLg8Hpq1NTs2j7PbbGxpqf7Nu35QCvrHVVlVuYi5iZSn+KXwQyAyI5PVk0nGxAx4yc6cNTg0wDmRvXcqLMRNV2QiYE0FHufrxRv/HrN+47vOPwxgOvHajat3nf49uf275x5+92hjpbOjee3n+6QdhFaPuz2w0ACPrnib35A2xMuImZJXNU82KeHkCMCUWcqukwWs8KMDDllUFRCeI8ejsJZjr7QgP9AxXNNc2TIqhroG+gOTkzeY3D4chRAIAPxNWcCWpoMVtydjK8HCWvPvXqOV0fJKUmGSi2UYCC85uUkSTyZ+aLztbO0N5X94bCvWEGHwKGoAIPGM41hHMmB0zPjXkO1DFGqsAS5wFQ097aLrJnZtuNFYZr1D7q6OvpiwCMaPvc9xRdUzYMA3zperTB40LXoo2g+r92v7z71+iGI9GV+Bh7Dun6g/cQ/U4xgPs9IjM/E9dm6Im/feLaLzp8F6WLnLSummprD0XRiSPeRJ1OFz1wbBO6jt+JHnzws8b06XMq29v7OW4H7ebAULMK7dAgjuZiNTw8/LDfn7w4J2eqLTk5w97W1riIpr304Q9/biHmO50efngODfXbwuE+cejQm7ye1tUXZSDlCmZs9Dmx+wT38YMMg4ufzOBMK8ygiACZG1LOYExLcCYYKz6wYnxQeaijoaPq5Sdernr235+t+PpHv17xzDeesX394a+Xfe2Pvlbx3H88V0XfWfXKj1+BR0f2p4Q2T2Dw1FCqQIRT5b0xp6np7B0wYYa9M+Msti4tz94ZAhoanxRFTVZFI9E98HExTMBLhSby6ENgxjEsA70D0bNHz4rpM6YvXnLPknOeHwSCIeXNAnig6K/+eD2KnHB+Y+duaHiIa0Xxd9BzAaaOpTrOExmOc193n+hu72ZDMSSso7FDHH7jsDi4+6CYuXhm4i1/cIs/kB1IYGCCx4WMg4F9dL256Xqia46ux2jjqUYubrIl2MpxjQGasQ6KmQDagJmktCSBa5h+u4aZcdIeGq2rqKiYPbv043l56LwxKggMdr322i9eMGdeFt1550PPlZXdHDxx4qRZkwrBx11c+8iMpalqaDh1UQ95w7gjJysr/+7MzCn8hnjixJ5IYqIj6nb7PzJ37rIsAqeMlJSMhTRO39ds++1v//f3g4Ph/XJtraslvPW6/e7KKXOmcEbfWtfKGR3ekmEq84hlOpRyvAPe7uEhMFPADYIxYZQLBfPn5aNjx7fzejTQ23foyBtHNm752ZaNe1/Z+/imJzdt9AV87CFAcCnl1ly8gAx0fEbK40PxoipVvIQ0ZspDY4EkVAHubqOMtqOnavfvdk+64FFvwJvtcrnWwDFDx5+9MxDmwVtC58hGv91Wc7gGxYElp/adGuOlQeZPKmePS4KMQ0EMUt6cPOFP9gdn3TBr484XdzYQIDQAdvnco2gI55k+ECCHU3hq6C/mKTMN83GuBvsH+RxYQQhdS6DtGoDyXXfc5WzubE4M94RH6Dzb4JlBTSWkAJT+vv6dh14/9N8E0Xk0vxKADeiB98Yf8ONYwOMksgqyRMPxhqr//eL/6mDgcdJAo3XVFA73NC5YcOPfTJ06zwYg6Opq2/X73//4sgHNZz/7XWP58lWPNTe3czETgAbt28gq5LLqeH9/z8amptMXBTQ2W0LJtGlz787NnWGDZ6mjA43+NY3CM+N2u4udTvciBARj0aams9EdO56/IlXDtS5OuYW567KnZ6/D23BXs2wbCBADmME0ZGbsmVFQA6AZBzOckimoIQXJjNMHTl9K5tJwYMuB0Bsb39i4/dntVQAcyrBCtC8NyMwoUwxyxmgCDQCGvTPINMnYc2PCC6doiA/TTZhBTAe8BQQ0IYKZ+8zvnFTC+XB73R9B7IkpdexRZdsWFVHbcD/HDNl8qb5cgpTG+hP1sYb2ejt6G3xpvgZaZ13svBHY9Hf3i5JVJej6wcguyA5V/6Y6lJSetI6uh6A6z/gudg2RADMAFy5yQnGfJY4pZjQOsOR4K4AlzhXOG6Xw2LT0tIj777zfHo6GE7o7u0dcPpfN46FnBgENrrXDrx/++xO7TjTbnfZKAqAgQAa17wA7CmZypueIlrqW0JNffnJSns8rLV3kpHVV1dHRQg+HoSg6iYxERhebk9+x1qx5yJg7d1qlzeZG68KIleGiJrQ9g6KmePcMF1/kdPDg60/U1R3nt7OMjKBtypRZ9u7uFgKypiiCgF0uL56F9ra2BltXV6uOnblGRG/r5WgLpLulm2EFIANw4FZaVTGSWRzAMIOMbQKYUbCD5Xi9xERj1XrZUNs7VOjpf3q66h8/8o8Vf3XbX5VRxli295W9VQPhgRCKjeBtUcbjPbLYBcOxcUoRM4NMFUUh6HhyODw8aYsmOps79xK47YmOcOwR3boEFaMmXFA62IvGOAeE6gA2PT/9kVmLZo0pemo41lA1OiKLngAcOD4I4t7/+n6OqUrNTuWG8RBjhHmAE2xfeV/UMKYDLmMAM85UnBN7ZtA4XnsvB5rD0JAhqnf/4KkfiLx5eQnLli0jlvHYUeSEYqTaQ7U7n/32s/9N4FZJ16jBxZ90fSL415dCRintK/Y91FHboYuaziMNNFpXVbm50/57iN48+c3LJi4b0ASD0yqzs+cZjY1nCWQkzABqZLcM9AAiA9BQekkxBXZ7wv8MDvYyvMybt9w+deq8A21tjdG2tvoowQ3H63R0NNtaWs7ooqZrQGh3JjUn1aDsid/S4cqHjQEZBSpmkUMMZCzDeLvnGjNqeROAaH7lZYKamL547xdDP/7Kjysef9/jZcP9w2XopoAyyipkjmMM7aOMG4Znpr2+nTue3LdlcsXNjFdkMPL/DQ8O060bicaMPqOR0SgBShTeKYDKQPeASEpJWpyUnfSIuWpMdPYqlLcL0AIQPLjtIA9PnT/VeOBzD1QSNFXRdIYahhPzOQFIYZto3ByOwQy/KMXBhsGys4/jtFDVu6OhQ2z6ySYxlDRkn7V4ltPlc9kxv7Wx9f9MWzStnMDFgFcG1yYCgP2pfvbQwDND11+o+WxzxfPfe35Sn88rKV3kpHVVNWfODXdPmTJzsc+XQhDQRoCT/+s9e14bU/3yYrVhw5eM0tI1jw3Tw4uggtu/6enppLc42ZgeullA/Awa+9u7d/Mlve0MDw/l5ORMvTszs8CWnp5r83oDQQKZz9bWHsns7GzJbG9viLa0nP3RqVOhJ+kNstlcTesqKT2Y/tj0hdMNvG0jA1SBvjGIscLMOI+MGsbysWmmQYBxxNIQ6oiTe09edBMAF6Itv9jSsPUXW0PbfrVtY+kdpRuHBofgtQlShhlEBoz4DfbehAc4A2092ypGBkbK9mzaM+kzv57OnqYEV8Idbo87h86BjaFSHnOOaYH3hl/NaTLBKap0l6Tlpv2m/lh97DnS1dqFOJl1tG6QS5GwHl0LgL+b77xZ9A/3G+n56aFju46h6NCgayHIcTf0AQTzH4qdlMFzY03V8ASmAoxRZMheosERbusoLS/Nlpmbad+zeU9o/yv7C7xJ3scQU4NuUzzJMviXY2amZvF2muqb7nvqy09pmHkLaaDRuqrKypp69+zZpYuTktLR6F60sfH07t27Xzm3s7mL0N13P/pcQcHsIAEFN+SH2BmkEmYU0Ayg6naoqemSYh/Q6/duvz8FMJabkZEn0tIy6RmbmPuzn/3rHS6X73cDA11Pnjy5/8caZq4NTZ03dV3+nHx25SNzwRs0gwqBDTKuCWHGAjIxmBkHNypjNVOjcGHhxhN7TlzRatHVv6lu2PniztDeTXurCpcUbhzsHTT6+/q5DRx4Adob2wE7qE5+3WR+dHz3unyuhYmJiYAaPt62KP2LIqHPaJQm222j0VERSA9guMQf8O9uOt0Ugxp/qh9tYJXTPAYQCBDY0dkhlt+5XIyMjqyjdY2a/TUVhCIGnc8gQAIwg++LgYuCFzMFsMRSbPc88MMwAy+R6blBUPq04mm2RFti/tnjZw0Uh8I7g+rZDDNkpmcGxWMVz/7bs1cElq8naaDRuqqaN68sZ8aMRfcEApkEHR2isbH2hV27Xr5koPnYx75YWVa2ep1qawaeGQANAoEBMjDVtxTZxsbGU5f8kPD7U3cnJCQ+nJs73RYMZtscDk/O7Nk3NDz//Hdf7O7ufFdB5qGHvmDs2bP5kjJStNNz0033i23bnrtuO51KzU1dR5mDkZQuq7wiaBZFA8gsGGbslmImE1w44xwHMgwxapo5rKDGNGNG6YzQiZ1XFmqUDm873HC0+mhV7szcjfDUtDW0hcId4cdr9tVcV2/ywwPDTXTe9tKx/ghBqI1hhkSoIAHChAYI5zUlMyWX0hJfwLe75UwLQw0ChD1JHnjSjBig0AfFQR0tHaL4lmK0bRNMn5Ju9HX2VXW3dwdHh0dhDCEwFDNBDCg0zCBjpuc17BetxuuYRVGYjo41e7t6xYP3PSjqOup4GLWZkjOSYwHA8Nhsf2Z76NWfvKrjZi5AGmi0rqoKCuYvnjPHYKABgDQ1nX4hFPrdJQHN+vWfN4qLb6p0OFwCfUTJTi/R9gzaupEwI4GGYYbWiFTV1R2/5Ac/7WtjJBLNzcqashhFT9Onp9u6uobuXrTo1hdee+0X76jY7EK1Zs164+abP/BcWlrwsaIiY11e3qzQsWM73zYz/dM//Ub5ihXvgz3ndvvW0XEyqqtfvG6rgQYyA8GsqVnr0Lgd2vMAxPR19MVAhYsxACcqnQBkFMCMH2ZvgWmkIGVexvGdx9/VY4lq42ePnN3YVte2EcUr5uTrSj1tZtGT253DMBLlJnxZGAfI4CzQ8YenxjZz0czcBEdCCU3c3V7fzvcjgcpGQA0NGrSsBItoBNtGsZRYeMtCXBtBLBPuDld1NXVtHBoaahgZHAnBq0IgHESRpSo+isEM9kcBzEQm95cNUAPD9YPaVoOOQTHv5nmCzh17ZwA02VOzGba2/HxLaOsvt5Zh37XeXhpo3kP68If/YvGsWUu4iOfIkep3VKxzuZSdPW3xggU33Z2ammkD0DQ3175QXf3SJe0b2pyZMWNhsK2tjouYsD3Ez6DNGVXUFO/tu0+cOLF7Yzjc+47eZJuaan7j8fjvCgYLc3NyssSUKZm2traekilT5u3eufOlKw41OTkzH8vPn72uoGCOcDjcwaGhwdDevZsn/E0bNnzVuOGGOx9bvvxeghjvOo/HZ3i9ScLjSULDhsEdO15oGB0dvq7e7JXobdgomFewLj0vnatqo4VgdAWAIgAGlHHemdiwxc4HMyqFh8ZMg7NLZzccCx27Lo/l1RQd3710vIvtifYcGpY9cZNBAJPR4VEughKjArWDbHc+dGdu9vTskqnzpqJ/Ln6uAGp8Gb6N0ZEoN6egwATXA6pXG6sNdC8Q9Pg867IKshpSc1Kr3vz1m1VdLV1VBDobCVDoohFz6dqhwchoT3tPImAHnhwrwGCbABeMn+PNMUkM1xG8Q9kF2WLu7LmiZ7CH25lpOdsiXnnyldCul3ZpmLkIaaC5znXffX9MwHDj39Cb+9+Gw31/29xcc09HR/M9mZn5f5ORkfc3aWm5f5OZOSUnJSXz7pSU7ByfL31xd3fLuwY7mZnBxYsX30ZAkyXC4S7R0HCagObFi/7+j370C9XLlt1jtLc3cBETvDOAGbQ1Y/XOmEVNAJ7QqVMHLosb1+l07A6Hw49kZhbZFixIEwkJKbmtrc0lmzf//Jym2C+3Cgrmrps2ba6RkzNVJCY68CDduG3bc2MyUgRJG8adj7lcrkqCL4KYZAGQgbndPja/P5WAyLXx0KHL1yHotSS49/2p/vIZJTMYaFCzCTEKqOaMGjIMKhOBjPLgjIcZS+/HmKZgRhmdh3WzlszaeKz62HVbjHc1hKInAogfJiQkZNkSbMU4ByQbYAaMAFgA1GAYHrhwb9g2f+n83KTMpLtnL5l9F7xztQdrd6OfJwKejQQWBp2rIKAGRUEo9kFXGFOKpnA1afoeBJKXA4ZnLZwV6mzrXO/yuj7idDsjHr9nhLY3mpKZMpjoShyl6yDicDtGaF+iI/0jiM+xA2zYLDCDfYN3CON8rdA0NKx4w8obRHNLs6jZXwOwKtv6y62Tos+ta0kaaK5T3XXXxxcXFpb8rL+/92/7+/tKR0eHgnTD2dxuv83j8VLqpdRPb+c+m8vlLnU63aUOh+NuyhTvSU3N+euUlKy7k5PTS3y+lMaeHumuvRKijHTxokUr0eouFw01Np5+4c03f3PBQLN27SeNW2994LkbbrjT6EZvxV2tBCvdDDPozVuCjPLOAGhkC8GtrXUbadlLjp9BzMqSJXcHd+58uaGlpb6xoGDmCzab/RGfr4CgJlWMjvpyp08vbdyy5ZkrCodTpswKzphRvC4nZxo/HLu72xpef/1Xsd+1YcNXy51Oz2N0ntdJkME5l+ZyAWa8ZB5UP6d1OxrefPO312XgIWUeDRn5GevoTT2IuARUtUYQJjw1LWdaYrASMwvcnAMzSAEuCmxoODaNjIUkKoxZZbNCGmouv8I94ZdcftdLBCILCRiyMY3AQBZBkXHMS3RUdLV0iTPHztjSstNQPTs3OTP57sKSwrvm3Dhn945nd+zyeX2h0cioQdeHhJrhUa75hO4U0A7MjIUzuDNIAuDgyOgI2jFakoD+mPChawQN/yGmB8G8voAvQpAUSc1KHU3NSY0iAJ3E3R0AauDFAcRA6joBzGAYUH3mzBnx0vdfCrkcrvtefOJF7d27BGmguQ61evVHF9Pb+L+Hw50EKS4b3VE2AhbZIVoC3Yxmj7V2O4alORxOgWWQsZmZXC4gh+Y9kpKSmUNw09jVJYPrLqduvHHt4pkzS+/OyJjCQcHHj+9t2L1702/M2W+p1avXl8+de8NjM2cuYpjp6GgikGnnuBkUOSFWZnR0mEEGUCO9M/2UcbeL+vqTVcPDgxf10Fi79iFjwYKbHystve05ArFyOk7lN9/8QPCWWz7Q8P3vP76Ltn1XWtrU3JSUPGEYqfSAGrp77twVL2zd+qsrBoR0Ho2FC29Zl5dXSA/GBIBc6NVXf7bxkUe+VH7DDXdVYh8JXoIAGHTFgHPrcgFglMlxOtfi8OE3jN27X7lu3wqR+VCmxnE0qu0ZZFYZeRmiubY5Bi0xr4wZT6Omx8CFpvGwxUujDIqlwsaxGkffPHrdxiZdTfV19jX1tPX8kM5jI53PbIKFbNMjwkVR8MoBUFCTqfFkow1t9BDM2DKmZOSMDIw8Ulha+PmCBQWRzPzMWhERC2k522D/oB1dTAA+ULUanhO6ZrgzSHRfkJSeZKfrx0Gpy5vkdRPMOMgSXE6XgwAIY046/246+Q6an0DfJbKnZ4uCuQXcHxOuN26lGpeIvEwYagA0x948JgiEHt/+/HZdm+kSZR5SretFN974vhLKyL+VlJQKrwvdW/yg5VQJLeWOIjCN3hZg0egI3f+YhtebCA3joYB59D8yGqWMPzo42BcdGOjfRXDw/eHh4d319ccuyvOAgN2EBGd5dnaeALwkJaWhiIO+Y6Skr6/X6O/vTiB44swAAAJvDRrDS03NqUJ7MfC2IOiP9g81lwyCEyM/f7bIysqP9c+E5eGdUZ4ZNKIHkJEtAsvYGTSyd/bs0VBra90Fl02vXbvBcDo95V5vUnlychpDAAAQ+49inoQEB01zV73++sY3KNN8CMV8d9wxSzQ1DYsXX3xl11//9dpbzE1ddpWWri6/886PVS5evIrP5cGD29F7OAGKx7CCC/Y1bgyvMUtMdPLvOHlyn/jLv1yD43Ldvh2urVhbvfTepQZ3dYBG8ejtGQCz+/e7uf2WGKCMBxX+kynE0yYQMiecB64RY9ZoIeNOKc1FtK6AUrJSFnr8no/SufxYoiuRHiV2dCdA/MmpzeFy2NAhZUpmim3RrYtshQsLUcU92ny2GV1DRAE7/T390bqjdc6Wsy1OApsEeGhQREWQIYzbDVEwr4Cvi56OnlhDeTCcY+s1Qk9P9hLh2lLdFyiYgXfwtadfE4e3H5bdbdA1CAG8Vn5wJeKAQt//6+/ruJlL1MR3pdak1KxZi0pSUrK/5fenMMzAMyMfyGh1iu5EEsYlxABYUA1xFNBCKWBmlGGG5jPgSLAB1DD4REdHh6MEBQQ3A7sIDAhuBv/n7cCGQKa8rKy0PDd3LmWwmSI5OUJvucOitXWIwKSfgQPfD+iQhq4IbNwmCPYbkCNBR9CyI+xhAdhgPpZvaDjJAKNM1WjCMpgvi5tUIHBYtLScCbW0XBjMoAZRQoK7MhBIN1ALC14OAAH6bwIEAAwAAgpq6HjT9s++MTIyuuDGG1dFli3LFW++eVZs3771U1/60oe/b272sutv/uYHUQIbcfr0IXhZzOIkeF2k5wX7K/dVpgrGMA8p9h/HGOfhH/7hExU7djx/3Wa+81bMK7/9o7dX5s7IjfXfpKBm1+92cWAo3zMm0HAmhXEMQzzJHD6P+H4xa7KYQIMMruyZbz6jixGusAA2BBAfJSuhZ0QJnVeGGjqfqtE9G0GKDbWI5iyZYwvODsKTE0X3BACV/t7+KDw0Ha0dCQc2H3CHe8IJgBC02ose2oOFQbRpJDLyM9hbBxDiFy0wjHxeMtTiEkGsFoAIQieVqEXVUtsiGk81igOvH2CYwTKAng985gNi/vL5orW+VTSdaSr78vu/rK+VS9Bb35lak0ZTp84rSUvL+VZychrBjMtGGa7NbnfQc1gCjflA5gQ3nYKUaHSUICNVTJkym+GFhKKb6OnTB2lcLuP3p0VRDRrDACAsMzw8FO3v7ya46f/+0NDg9+vqju3BF6xa9cFFdIMbU6cWLb399ruNzMx8goJEUVfXQUDRy94XeEtQHITG7TAchxlpABcJVDGo4uXQtgwyY4wjDgYZMDJuCDCDmksKkMZ7ZrB8R0dLqL29/oJgBl4Zyuwr6Xga8CbJohkAAEzBjAIapJQ5MtQkiO7uzlGvN2m4uHjWSFGRSzz5ZCh66tTeW77+9fIrEk/z6U9/m6EUsGctVpLeGAUz4/dZ7bfa90R+QD/33HerKiv/v+u5zQvjjofvqF790dWcmSBT4eInQE2iHUUT/PbM4KJAhv9kClmHWfxCjhcCUzR4DtSMjoZERFRoqHn3lFOY81E6fx+z2+wl8NLY6A90Q+cdMS/stUnNThUIFJ+xcIbNE/AAaKPoE4s7AiVrPt1sP7XnlINgJ4Hghb02ABwCJ5FflC+mzJ7C555rStHzCucecAzDNAQYA2BQe6qvpy9EYBMaGR2pqt1XG8qblVdN+2UEsgJi5YdWioUrF3K/Tkerj4a+/MCXtZfmEmS9LbUmsRYsWPFaamqmAc8MZVI2ylzhoQHM0D1tPpjxKKZEgkqUIGg2gcwcApo0euDitUJCxKuv/jza3t7M4CDESPTOOz9BGeYIuhGI1tYeYrjBMGbDazM4GI7QG340IyNX5ObOJJgYcJaXf847ODgsGhu7KKMFVPQzWEiTkIFpAA3pUVHeFGkYx77AY4NlUFQk91t5l+Q8vB1h3xA/IpdH/0zSOyNjZ2Q3B11drVXd3W0XlFHff/8nDXrsVQcCGcLvD7CnQ8GM9HZIk5AgvTMKEqQ3ScZcEECMlpWlDba0jEReeunVK1L0hODkhARXNQJ7UVtJxcRYYWY8yMj9o7fD2HQJY9hnOvehf/zHj1/XD9MZi2dUfvSLHy1HRsI1nizFTwDS3s5ecXDrQX6j5ntnPMBYh3GLjBdNw80xEdQ882/P6IzqXVZWXtZCu8O+iM6tLWqPlgBw6ByW0HVvo3PPcIMq3vC8zDJm2VD7DZCLc9bf388p7o0jO44kdtR3JOB6aWtos3c2dSY43HQ/wfltnnN4Z6znnq6fqtGh0dDw4HCo9nDtOTAbnB2s9CX7QjMWzagE1OTNzGNP0atPv1rx9Nee1sWUFynrrak1SbV8+X2Lbbbo65SREcxI7wxghsyEGWRgwoZYOTSxmZ8/l2BmjggEMunek3DQ1tbAQEAToq+88rS6KaOBQLpYseI+LnYaQYVEggfE3Jw+fTiKfpLOnDmCVSCsH0WGmZKSEZ03b7l/zpwlCfCQACgUvMhh6TGRFmYvShxkZAoYkcVL3IEk79v41PxOHpfGRWg8jPXMbeEhUlFbe2HNwN9998erlVcG1ZrjMGMFBDUsx+Mwg2OOIjJ4xGQ8EIZdrsTR9vb2wcOH3/izy1X0hJgk2nYlAYwhA34BMt5YMZIsFrPun5P3Re6bBBo1Pb7/CWLHjhfE449/EJnudeNJ+PxPP2847A6DMjUGl4OvHzRyZuSUT5s3TXZQaQINMjHAHVL0p4OYmtqDteLwTtNjI/9JTQAyeFO3TufrdJTuIwANikApY6Th0DPf0FBzLShvWt6iUfsoiqUQ4L0YMTZ0LSz2+DyL4YFBH0ppwTQbWu9FX1l9PX3cASYts8vlce3e+fJOe/2J+r3sjaFzTO+DfJ7pvIdaa1sv6v5Zcs+SysWrF5cvum0RN65Xc6AmhE5JzdlaFygNNJNc8+bdWJKSkvYflHmVOhzwzjhsDkciipsog0IGC6aRpzk5OUssWnQzZ7Sdnc3i5MkDlDbKBy+DgSxOUrAwSqOLFq2ITplSROMycFjCgix6AtzQdqL792+Ndna20jfgaW5jqPF4klz33POIczy8YFwWA6HYSXpqJNAoL40sdkIsjPo+a6qGpY3SOMBLQoxMpXcG2+3p6Qh1dqKr/bdvLA5FTHTMKpOSkg20yaLiUJRXBhn/RDAjgcEJeGQDFEiT0GDn0CVulwT9Pw1XV//6hm984zPvqOjpwQc/axBkVdI+GrIdGYCMNV4mvn8KVNQ+Ke8RUgky6jfIGCC04fOnf3pjRXNz7aR6O1z/hfUGwYnh9rnRX5OR6Eo0lPeFDV4o0wujigTYcJ4oZZgB2BCQorqtP8kvUpJSRJI9SfQ39Ivehl5R11AnTjeeFqcaTpnfapEFZHCu5YBZ9ASzeGoitkjZM/+si54mi+Ytn/dIT1dP9MzBM1esXaniFcXGlHlTKhGwjmKsvu4+8fx3nq948fvXb+vdV0IaaCa5Fi9evcXr9aMWDqpeE9BImElMTDCLnKSHJjk5UxQX32Q7cGAr1wrCQxYP3vGAQI9gBhf6FwXQYBhFUlOnzo3m558LNrRUtKOjRRw48DpDDc2L4vsotS9deo/X709hTwsAI+6BkbEtVrCRUCOLmrAMAnjV94xP5XAcYuRbkTSAUX9/X2h0dKiitbXhgjINWYvJVenzBRhmAAnK0yGhxZrGYSEOAhIG4qYAQnppFFBCdMhDtHzFbbfZLilDQ3GYy+Xn2B54kJRXRoLM2ADg+H7EvTJWqMG4+i0SbiT8fOMbn6rauLFyUsTRPPjZB40EV0Kl2+82EH8AQ60SVLFlkEF8jCpOmghmcDwQAGwNApb/WMmuZFEYKBRTXFNEpjtTTiS9svMVTmsaaohbJMBgmMctQINhvl4jsml+BhvEW4wS1Oh4Gi2Llq5bWr7g5gWVC29dyFB9+sDpqq9++KvXczzbZVf8Sas16VRWtnpxQoLrdcrU7DJ2JhFGGRniZ5CZot0ZOxpf4zdvGE45PWTNJsMBBhhVkCBd47K2E8ZlsRP98XggkBElKGI4ilf1lgC0d+9r0TNnjtK6ch3KHKN2u81VWnq7Iw4qqhhIxssgMHg81GAZBPeq/UEaH45DTDyVHhl4f2hfqqLRoaqGhnPLqs8ntGVD0AVAEIAva7FNHGLOhRkFALBzgUaZggc66sgjyVReR8MhOlUVy5ZdONisWfMQQQxgBrWu0rlITEKMtZhJgpYClolBJj6M9bE8foO8dhLF9u0bq77whQeu6QfpqvWrDG/AWxnIIAhN8ceqxCIjANAwyABi3gZm+FigvRk6IfK4SJgB1ABUACLqGkxzpIl0Z7pId6WLopQic0+ksCxdiWKAPn30CZuffvoMRAdEeDgsBvpR025ADA0iMH449PGZ13esktbFqXhVsRGcEay+6f03cdtIZ46cERsrN5bt27RPg+8FCvV5tSapolH7tygDs1MmROBCWRQ/oLmMieYilRlXff0ptNNC8wE8DhsyPmn8Ro9xi6FdElT55gb58JAHFLF1d7fT+vACJXBqt2MY5hBpabnm9yHzTMQO2Hp6uiKIzYnDDEwCCIqrVEZhBRcUNSmPi9XzYl0XBiACxPT1dYf6+noq2tqayurrj1dcDMysXPnB6qQkCTM+X8CEGQUwE8GMBJk4sOD4WIuZKOMkkITRMSKz0/YEbVcIt1sIj0fQ96B1ZE4Nml69Z0+kMhSKGuYunVerVj1o0KmopPODwG/adrwtmfi+yaIvKZyCseLLgsWnh4fUsUeqhs+ePc593FyrWrNhDWCmOi0nzUCsgz/Nz70Uo2otDG1+oCosm5uuczcdK5hrnGEa2gjxuIXX7xU+v0/4k/0E7MkiKZAkkpKTeJrH6+Fleuhzov+E2N62Xfyq9ldiS+MW0dLfIuhqZHDppE8HfZB20QfLA276R2RgKaAnBkxRm/HdA9+tNn+SlpYAuPR29lY1n24WgwODDDUr7l/xts8Grbg00ExSLV686uOUuZbKjBU1mWQLwBJkJMzQKKAEwGGTb/DI/OIQI9/O42/3MnXaXJTTwgA2ch2uNSVmzlxoS09H/yYcn0Pr81s9zcN8FHFJI1ixU+boysgIutDQnYKQ8RaHlTioAAqsMGNdHsVJKIrq7m4TnZ2tVQRLFWfPHi1raDhRFQ53XTDIlJauMlat+lA1aoUh+NfnS2aYUVAgIUYaxgEx40EmbnGIgSmowakgvqT1BG1HAg1gJhAQIjVViIwM9GOF1Fbe3X2ourLyqUratbd8eNG+oGjMsl9j9xVAO16cgZ4juOUkvKjjLMcxPcpV+EnX5IP0xvfdWOnxeKrxsEeLvwighGfG6ZWAck6cDEElnw9zmMcBm85Ehh2vz8sAkxJIEZmBTJGbnCvykvPElKQpIjcpl6elpBA0Jfm5qwSsg0DirkiXONZ7jMHmlyd/KU72nxRt9GmnD4CGYWaEYKa/n70yg6jZJz0zstgJxzsaMb6999s6w9KKiYAmVH+iPtYeUvb0bH19XIQmetppTQKVlt7+utvto7d8lx0gAmix22VVbXqAM8DEM2GkdHuwB8WMFSAh85ImMzfK0BDsqzI4GsY0QMVwFAHFq1d/KKrgAu3QIMVy2AbWff75yoSpUxcklJTcYkd15/r6Y2LnzlcpQ8gyt4N140VOABTZLo2syq2KnWTRk9wPLIN5KIaidasogwgNDoZDFwMwVpWWrjFSUlK52AbxMoCZsTEzEhgkNFiHFUDgWJ4PcAAzmA7vDDpxkTCDYQCN8tKoYXhvIPqpdBwBHyL05JPPVH3sY++fMBDwAx/4VHVSUipDGIrHcIwRECwBEwA7tohp7DRpuOXl+UeKfUykfZS/W/0mdCHxp3+6vKKjo/maCkhcfv/y6uyp2UZyRjL6zYkXMZkemESXGdhrFjHx+bDCDZmajiIpnEvUZoL3JSkxSSTTJ0AfH31oS1yE1EsfAEp3tFv0DveK/oF+hhO0UYLrmPv/GZEA7qaXg0AqQVayVwyjmJWmj+BeQZsmBDIcEIx7ylyH74PhkVBkOFLx58v+XBcraLFWf2R1dcnqEiN7WrY4ueek+M9P/6fOpy9Qui+nSaiFC29Z7HC4/6/L5SCY4SraMZihh7TpVVGZscMmvSiyeERmuokMMnigonE7eD36+9G1QR/PQ40Z6eVBpmcX6el5YtmyuynzD/B3mRkfDTvQOm0CbSehre2sc/XqP0pYsOAmW3Z2AWe4gUAWZbh+NMdPqY8e+gAZCTMSbOKpMgU0KHpCn0vhcHdVX19XVWPjqft6ejo2Dgz0hmj+JXX2B5hJTU2rTEoCzFDGdQ7MSHhRADN+WP7uiWDGzDxjw3HvDI3GDHADiPF6ZTGUEpY1LbhoUdG6z372sXVY7tVXXx2TyRUX34ziJkN2JilbAsZ+xUF1fKrAJe65ATjBQyO9NBjG90rYwXJIAUkEM9dUz9vL71tenZmfafhSfeyV4SblXXReXI5Y1etY3AyfAwIZeGSsMGNOV8CjgMZDxxEQo4AGKSGScNHHSx8MJ6CdowQ6Zg75EmAewrjoUOPa7u7uFj2d6HoDNe3QDpJM0bQ9wYuEH4uNDI4EBwcGjdXrV4de/uHLuhNLLfTybQQyA0ZSahLHhr361Ku61+0LlCa/SaiSklXf8nr9j1LmBk8MgYWTIUYWI6kMWEEMHuJoTM3G/R21tJxBZhVCq7m0KYID1YEjuhxA4G+2yMgIoijr0dTUbJGXN13ceON9IjU1i5YZiRJYAIJstJ6tvv6Effr0BQwvqOaM78X3ILalufmsOHlyL4AnMjjYF8nIyEscCzOyw0jVcjAazkNfTGjxd3CwPzQ0NFg1PBwOXWhNpbcTYAZFFenpQfZsIGYmDjM4XhJo4iATH1fTJMxYQUaaPMaUodI8OSxhRhlARsEM0qQkVKE3d+w8wunYs6cmNDAwreLmm2XgMNqeof2tVh4aBAV7PD76ThXHAyCJe2dkPJOCGivgqGEaI4gxrx3aV/k7Mfyzn/1bVWXl56+JwOBl9y3jeBm/GSuD5uQ5PsYMAFZAwy3/mrASK2oyoYaHTQ8NzhOWZZjxeERSQpJIpU+a+aGjY36zFOJgVGxMN316BtEqNbyKdA0TpOC6tnpqYsBCEMP7RqCF483zyNA2DcPMkOm9GSTrHw596YEv6SBhLWHcbVTOKZtTPsuYxdfLrt/tqnj+O9dvdySXUxpoJqEM446tlJGVoSE9wAze1l0uwI2EGvkmCm+NkyAhLOrqjgEUqs6ePUEg0xDq6mrdaW7qLTV9+vwNOTkzjMLCheVFRUvo5hqx0cPblpSE2kDKQ+DiTBTeF3Rt0N7exN/X1tY0SqAySm/B6NQS+5RI+2yXXhoZS4AUINPd3cq9YxMoEWD1VzU01FzWm7e4eAWqOFcTVDEIKACTMKM8M/EMHTa+UTqZjvXMKJCRhmEYMk/pkZkIatQ44AZQg2lvpdraVvHUU78OHThwvOKJJ74ceuSRx6p9vhT6Pckm0Mj+pawwIz0tsso4pABGjp87jPXjYOfkc/vMM98Jffvbf3HVM1jjLqM6LTvNSEpP4mImDvq11GZSHppYi7+AGRNcrJ4ZNQ0GzwyWR5yYj6AWXpl08+Omz3gBaBAbA6gB0PQN9nHQJq5hVZSkYEa1NaOMgYfABd4cgA+8SuwdxXR4bIZGJdCQDQ4Ohv7tE/+moeY9rrK7ysqnFE2pnLtsLt/PPe09Fd/8429qoLkA0WNXazJpwYKbPu52ux8FuNjtDruCGfmWDaiRmW9PTydlhkdChw/vfPz48dDjhw9Xf7ezs3nn4GD4gtzahYWlBDKL7istXV0WDM7IU+3c4HvwQEa7MigWQgN9Z88eE0ePVosjR0LRpqaa0b6+nlF6+43Q8lFkJsh0Oztb7LTPBDSyaAleHLSH09ZWT/vaHhod7b+vtvbo4729nZe1mAO/IykptTIlJTMIr4zHI70aKvNWHhgFLNIwzzpuBRhAg7Q4xKhpsqiHRmn4XGOGMEV5H0Gc9MQAajDPOl8JxT9FRYuCSUnJ5dOnLw7u2/dmQ3p6rqH2DfuFdDyoxIuV4qkaHj8PXhxV3ITf4XIl0r71bvzd757cSAtcNS28bWFlID2wzp8qvTIc/GvGyyjPh9XGFDHht6hhi+FcYVlV3OS1e2NFTUn0mUhD9FFVsPFhzwzHg0mAQYAvqnfHjjH+zGE1XYENemfu7+lHH0Gi9UyrcHgcYmiAvqGfIH9gOLho1aJ1O1/aqTOv97DoejGyCrLWpeWmMYA31TQ17H1l71W9FyeLJniEal3LWrhw5Va/P6nM7fbbpAE06I3VRe+Wbq+tpaWeIKGuqqOjpWrfvtcuyBNjFbwZU6fOLV+0aJWBWkB4e1cAIjuARGxLB2V4nRzj0tfXXU2Z4WLchn5/apQyfxhnjDDTWxDNy8uw7dwZciJD6emhd92OZlq3JzQ01F9VV3fsijzACwuLDZ8vtTItLceQVbPh1UDcjLVlXWtxi7WYCcAQB524JyZu+H1yWMKMHB8bNwNvjHVcwY1VGEdMDWJrsLyaTy/0BI1xGxhAJ5wi9MMfft3A/lu9NHJ/sKIVbABJEnDUtInG8Tvjx8ElAgGf2LTp2aqvfGX9VStyKl1TilZ/q1GTCUDDtZlUWzPj42cIwFRxE0PLW3hnADMAGYYZj5dBJsP8TOSdgVDUhBpM7KGJdNM5CMcCfeF1YbBBY3kI+AXgWLw0gBjATKxoaYDupf5BBhiADNZBjRbsf39vPy83Ojyqu0d4D4uu+fJl9y2rLFpWxCDf3dJd9e1PfVs3sHcB0kAziTR37vLFHo9nm8cTSPD7AzaPx2cWNyGDdtrOnj0eqqurrdi37/cXDTIQGm6bNm1eZVHREgYAgAyqXaPWS0PDSdHcXIs4nBC8KAMDfaF9+7bEQCQ3t7CUYGAx4kzYpW9WB49Ehkvd7qSd8OhQ5lIRjUaWoNr1wEC4ijKCqoaGE1ck8JT2x0hJyYBnxkAnk8j8VRCwPGZWoFFFT7Kmj4QbFTMDA7QoqAG8yFRBjTRknoCasQADU9OQMk+ME17qKV/jedblMB2eHIANPDkqHR6OiFOnDoo333xJZGbmsdcJMKJABVKwIqdhfCzsqOUg/G4cD3UMkpOTxPPPP1H1jW/82VV5iKIZeF+qr5JAxkBHgXioowVgBhovnS/TQ4OOAVVR05jiJjqI58TOUKo8M1jH7XYLn8PHsTOZ9AHQnE8t9FFA0zMk42cYZuB1oZPC8TOAGivQIAgYsIPUGitjAs1gmKCGgAbjqM7NgGOmWH/373dXNJxo0J6a96CKbykuz5+bXzm7bDZf6yhy+s6ff0dfCxeg+FNN65rXwoU3f4Iy5O+gtpHPl2Lzev0ENUn04BwSx4/vDrW2nvnjEyf2XRLMbNjwVWPKlFmV+fmz2SuDGk+trWcp4zwgjh3bJTo7m6roQV51+PCl13wpKio1+vsHy6PR0aoL7SzyUjV7dhlXccZvQeaNjB9BznEAjMMMYMAKNlbvjISYOMwoiInDjYSZuI0FGasphkAKWIGQKqCBAWAgtax1PuZJQ+Y5Irq62sS2bRt5XxAfBGgZCyxIsZX4NDU9rij9ZvbuxX4/vD5PPfX1qh/84CtXBWhKby+tTkpPYphBzIwqbuIiJ7NbAwUz7KEBzKD9GZwP0xuDdAzQjPPOAGjQTxPiZrLo46fPRCL0iAENGsvr6+9DrEsMaOCFYYCxAg0BDsMO5iugoeUZXghiADMMNGiXxgI4MHhpWs60iHBPuOzEzisD+1rXtpauXVqeOzO3csaiGdwlR1drV8X3Pvc9DTQXIHrMak0W2WyJpfAWqIwHMNPcfCba2np6yY4dv77hUmHmwQc/XT516tzquXNvMBAwi+KlM2eOiE2bfiq2bv1V1cmTe8t273614p3ADHT48M7Q6dMHLrjn60tVYeGi8kAgnRukCoe7OVanvv6kOHKkmuN+ooh5UETBUpm8zPDHQooaxjwFDDIdCwZxKQhRIKJgBB6WuJdlvNclbiha6uuLsIXDUdrnCE0bFUOcMcraYchAcf5XrfqQyM2dIfbv30rTUPwx3pDRyoBVGLwGsoaZNFlsIk2tA28aYPZqiB7mBvplArwwtFhiZbjYyAQUPieUqn6Y7Dgn5rACt5hhfux8EtzQOU20JwraOlfJxud8QlcGgJoh+sTiZuiEWmNm+FrCH6aRxeZj2PTYxNqeMSGHi6RM2BkZpPM6KGEn3B0G1FRpmHnvqqO5Ax2s8vWO6wTQq3Vh0kAziWS3RzcgODcx0cXemd7eTnH8eOi7v/3tjy4JZKBPfvLrRnHxLZXz5y8jUPIgQJfbjXnppR+FCADKDhzYfsUB5HLL5wuUK+hDFW1UOYdXBl6XU6f2sfcJOVAcbGBjJaFFxgDJjHF8OhZmOE+zmAIZBTNWA8SoFACD1Dqs4APwInsplw0PysYHJdDAZPcRowJV59///j8TKSkZ/HsAJTK2w2pYR4HMMG9Hbis+TRmOj92e+K6fc/RlE7FFKtkTg2IlFCcBZizFSWNMQYqCGfO8nM9iy2Nd+gBo8KFvMPdgrOgocTAwoAZAw43l0XlhQJkAamJmQo3V+JwCZAAxpvdGFUNxURPBzEB4QHS3dYuhviH9Nv4eFoKB4YnEdYprTUSEhtsLlAaaSSLEzzidXhugA8UDyKyPHg1FGhtPzzcXuWihXZOUlKzq4uIVvE3AzBtv/FZs3Pjd0PbtG8smG8gouVyyvyOCPg6YxW9DY3QwjyeZoGY/F6OpHr0nypQk5Mi+dy4EZtTyGFZG+RibgpfzWRxkkPEBPgA0MpWtJQNAFMxYAWQsuKSlBTlOCN6ourqjPE2uC3jB+nFT25HDEnYwDO/M4GCPaGqqxY96V0WwUelyuwxr2zIxmFHtylhgJuaRGQczcJxZhwE8CnzUcILlQ1PMPRgrVauJgSaK40UAacKMMuWJiV07JszwtNFzPTTKS8PFUGYRlIKZ/u5+0dXcFao9fOH9kWldf/IGvNwsAa5rXDtPfPEJfT1coDTQTBK5XJ5SeGccDrfN70+11dQciDY3n6Vs0L7IXOSitHbtBrQvU7l06Z0iOTmFg393794kduz4TcWxYzsndQ0LgAeABvAXT6WhNhiqbyNTO3LkTcr8T5iZE7p7kH0aIWPiTIkzKSIS3qaZQXKxFE8yZQUZlU7smYFJcBmfotVm6ZVRMKP2SUGNhBPpVYmDDTwGqqhIemzQcOCyZWvRWag4e/YoB3LHQUatL8el1wfeH0AM+hwKs3emo6Odi+neTRUtLyqnhzi72s+BGQIYhhlVLRsww60xW6DGPD+x84Q/DFvnmcuOB5qJhGImtD+jipxQNMdAwufDBBY+36aZYKPmyfNnGkBVnV+Lh0aBDcfP9A6KzpZOOg+DujbLe1wc+O5FpYQEvpa0LlwaaCaJEhMTDGTGSUkplNm0RE+fPoiel6IIbnQ4vBcFNajNVFS0pLKk5BYjOztDhMO94vDhavHcc98N7dmzadK7uwEhMtAXtXYANBMH/Xq9AdHe3ihOnNhjQkEcIGRmZGZesaIpZJISWKSQmUmQkcPSaJWY0ebOYygaMosiGGDinhZ8p8o4FdQoG+utUamEGwU4GJ8+vVgsXXq3yM6eJhobazh2KA4v6BsLAIPWmWG9dA30ENR20fYGBHpIJ6h9166DwtJCw+F0VOJBPqFnxkytnpkxqRVgLDYGamA0zMVTSM3PRKKjzjCj2p7h4ibEGpnnRpmCGAYY5elTMKM8M+ocA2hMmLGm7KHpHxLhXvqu7v6K1tpW/Tb+HldfVx+DPa55And9PVyENNBMHn1CNnNvF/DODA0NRYjgI5Q527xe32JzmbfVmjXrjXnzllXedNM9xuzZQcrIBrgm07PP/mfo2LHQddH2hcvlDclaSqh+LeFlbI0lOYwAa8TWIJOvrn6RM3TlDZGAIeFGpTAFNhJeeIhNwQzgJ57pIXOLv60DYKzbs6ZyWK0X/76xFoce5WE5t2NPBTiyZ/JAIB2NMbLHBsVIeOtDG0IoXsQ4gn97ezu4gcSeng72XtXXv7sBqQmOhEq0AgyYUXEzgBiryarzFsCxFD0ps4LLWxp9ADNIITr6nEJ09LlDSgCNKm4CAMqiPfM80Xm0gkysYT1rEZPFxhQ1mYYWggEzaHEYtZy6W7tDdcfqLhgiHT7HwmX3LfsYbPFdixeak7WuA9E9YCCGDNc5Pb800FyENNBMAs2dewOqa3NRE709oxPJKD2YuRVemTEnXJCHZtWq9cbcuTdWrlx5r3HDDXmUgQ3Tm/hB8eKLPwgdPVp93bi6KYMPSXhRAINjpIDGavFpqN21e/crYseOFwTayRlbnHOuSbBREKMAR8JLHGoUiCiPixxGqjLH+PSxw9Zx6/eqQGDMwz5ai43iNnYaPDHYt8LCYgKWFDFlyiyRmzudbJoIBmcS7OQQ+GRydW38/pqafe/atVAwr6Dcl+TjBzgDjWnKS6NqOLGHBjADqLHAzNtCjAktPETjGFXTIDqS7IFRKWBGAQ0HBI+abc5Y4mf4PFtBRsENn1syczk1rLwz7JkZovNIqarVNBRm70xoMPzWRU2zjFkfm3/T/N+V3F7SetMHbmq96f6bNvlSfP/qT/X/a3p2+qbbP3Z7661/eGvrbX9028tk/7LqD1d9zFxVa5IJvcnjHgDQ4BrSunDF72yta1YLF978HzNmFJejsbujR/egu4DI0FA/vVZG+ZmJHqhbWs6sMhefUKtWPci1mW677X3GypX54uTJYbFz537xm9/8b2jr1l9UNDRcP4GI99//SbSkW40q1yqQNy6ZscUN8+V0/k8jaIRv6tS57N1AEZW1mCoOQxIm5XfIbaltnysJPVISfMaamUnSyVQwJFMFNwqIVJGHBBo5D6Ajl4lvWy4fByGZIcNrAy8Oak3Bs4O4GbqOeBzDKHbyeDxl6MdJ7uuVVUFRATegl5KdYviSzX6azMbzrJ1PWmHHCjrsvbG0P8OAY8bWsNE0Pk+mh0c2+OjgdmzQISW6PMAHPWrTUoKOEHtkADToswlpuD/MHhrURFJQw8cb0KIM58TS9gwbqmOTsRcmPCgG+mjLvWSUoq2Zvm4Cpq6wjJvpGyw7vOPcAPxZN8xa5HK7HqJj8RAdIxv2m36XjX9XYoIt9nvpQ3uA08/CNYCEvj9KMLY7MhzZTdOeePH7L+7hBbSuWQUyAsbaP15bPWfpHPZWNp1uqvpG+Td0XNUFauKIOK1rSvRG/YWiomVBZLQ1NfujlAlFbbZoRGbGdqKa0WzK2BqHh4cmfGCtWLHWWLDg5srVq+83Vq8uoG0Mi127DrNn5vXXnyWYqbmu3JqHD1c35OXNfAzHS2ZulOHF2pNRw9IAIJwxyGPJw/B8oG+qurrjXEsKNYfikp4ZJeQdcaCRmclYk7By7vD4aTJjVKkVZiTAxGFGjqv5EmgktEizBv6qIil4atC+ELw1MnZG9mweDncJVP+HV+rYsd1Vb7zxwrsWO0OZ9HP0NsowA5DhLg3GwwvABdACA8CQKXiJQYx5/NU5oCFOrcIxZq8KH0OCDxsBh52Awwa/DEEHfQAzCmjYO8MeLjqWQ6aHxlzX6pXhcwfvjAk6qngpVsRkQo0yFC8puEG/Tr0dvVVH3jgy5pjnzcpblDMj58eB9MDnswqyFgNmPD6PnY6PnSDPBnN6nXaH22Gj42VzeCj1OOV0pF5ahpb1+D12b5I315PkWUzzHp63fN5ds2+YLQ5vP6zB5hpV0dKidVMXTF2XmZ/J11a4N1y1/dntutjpAqWBZhJo2rR5377hhjtttbVHo42Np6L0ph2lBzllpQkENngLteNhmt3f3/uEucoYrVz5h8+tXv0Hxp13zhBnzoyIUOiY+N3vngy9+urPCWauzwa8liy5K0hv50YcZOLAgoxv4vH4dMSSoFaUjEcZ5nFEWABm6DkjMzIMmHCDQZmhqmnS4svFwWUi44ySUwUqsPi4BJr4PFX8JMFGQY2MrZFt18D7ggxZeWAUyCAAuJtrtSFmCDCDGk0tLbUhguX7aEffFRUUFxhen/cxuNfRrQG8MQpkGGZMkFFFTgAEgAVYhYHFTqndBBgTZOjocqrE4/ij487HEtDBx45gg47V0OiQ6I/2i95Ir+iJ9ojuaLfojfaKATsdNzrv3CIw2ooZRg0yOj/WYiWrmZ6aGMyYQb8wa9XsGMyQoQG9vs6+0KFth8Ycc3hlktOT/zW7IHtxen663ev32lxulx0A43Q5YyBDxwgeGwCNHVDDYAPA8TptHq/HRiBj86X40EO5jcyO1JvCcHO3cbtx14zFMxZNXzC98VjoWJP51VrXgBbfvtjImZazLiMvg6+93vbejTs2vrMGTd9Lkk8CrWta9967YWjNmo/Zfve7n0RravZG6A086nL5IvQgj1DmFEE+SW/b0d7e9k93draMgZr3v//Pqteu/bixdu1CysiiYuvWU+Lll38U+v3vn5p0DeZdjNDGDsFMtQIUaZhjeZPnFOM8Nm46D8n/lMCbYRh3iOTkVAJIFD+NjckBOHHRB3t9rKFpgBiZ8n+GGmUKYuSwhBWVqmEFLfF5Cm7iMCNNemjgnVEeGmtKGekA4AZeGpis2YRAYHQSeurU3nc1IHz6ounVqVmpRiArIPtpMrs2AMwgs2cQGByK1QRCdwAQzg1Apr+3P0TDIRzzvKI8UbioEMsbI4MjRnowXeQX5XOnlmO8OGa8Dca52AawO34+fehs8PlRxUkMKTjW5rgCGOt8wIuKkWGPzuCIDPjtkxCDYqZwT5h/Gzqj7G7rDoXD4YrDW+L34PxV8xd5Pd5/o+Oy2J/mh4fKRlBn42IzShFDlJiQyEVOKGqiOTzM+59oQ1GaLcGZEFUQqH5XhEiM4W9URGnfUKEgOjIwgj6CIp0tnf/z1Fef+oy5C1pXWTfce0PlrR++tTx/Tj4XR9Yfq9f9OF2E1JNb6xrV/Pk3feKWW97/nYKCIoKRjdEzZw5FKfOKpqXlRtLSghGMU4ZE04Yj3d1tuxoba24zVxUf+tBflt94472Vd9yxXKSl2cXmzXVkz4R+97snKtANgbnYdauPfORvq+GlQYu/6LoAlztnXGRxWJkoHTtNCdCAVnkzM6fEoAaxGaqzSivUwKxCBinhxmoyQxybSnBRsBIHF2lxiLGCzVvBDGWoZvsy8eKmXnQyyrWbwuHeUF3dsXcVZgqLCw2n31mdmpMquL+mJC/DRHdrN4MLAAZBs4HMQBw4aL4q2mF4GBmt2vvK3vPFFhgur8tYctcSMf+W+QZAJyUjxZgyZ4pITpfFkAwvMDrHVrPKeq7AowwzMCvQkCmgUXEzDDSUAmRU/0wAGdMrwxnVQP9A2b5N++Iwc9P8RbTPr6TlptmSM5PZ48KxPw4JMHRdAW6w7ww4ZpVem4Iy9nB5ZDGdw+HAslE01nfmwJlow6mGaEdzRxS1sGi7UbRx4gv4ooH0gPCl+CK03G7a309//6+/r4uirrLu+7P7Khffvrg8Z3oO3wu1h2vLvve572kPzQVq7B2sdc3phhvu+sQ992z4DrwAodDvorW1BwleIpGMjNzI1Knzo+Fwd7SpqZYtHO4kqOn8THt7/RPo0mDKlDnVa9bcIQoKHGLbtmbx618/gW4NyrZseeY9cYM89NAXyoWwV0rAkG+rMtOyAgum8Vgs5f9yJJaq6RBqA6GmEGoMyerE53pprCZBBmvGQQbp+WBmPLgoaJkYaAAzsPEwo2Jn+rmtGWtxk4SZTqxzVVqDnmnMrCSwKA8WBtlr0dlEGTxl/jjEyJgBGnwc4YkwwQPnD2JvCRmBRIiOYcXOFy8YzI3cwlwDLn0y0V7fXl64uJBrlMSuC/6Ln2c6UwwyPCxPIKcKrBhmcB5MzwwXMZneGUAZgAKxMsozg5iZruYu0dbYVnVk+5ExMLZw5cJXUnNTS1KzU21uv9sGkOEitwSZ0rGIgQwZg4wtkYCGoAfHzOWW8UeJrkT23pzcdVL8/ge/H+ls7RzG9YF9xq/Edri2GK2HTjpTslNEwdyCKH131JPkWfWtT35LQ81V1Me+/LHKucvmlqfnpcM7Ix5732PxC1LrbaVjaK5xzZhRYixefOvakZHBaEvL2WhXVwseS9Hk5PQoWoVF2zSodpuZmUsP/URkVNmzZ5cmzJu39PmVK+8RwaBH7N3bLl555Rlx9uyRshdf/OF7hvZLSlbSf3u5hBlVtKCG+fFuSRXwnDtPZXhqGXhD0CAfoAFwAwiRoBGHEgUqGI9nhnL6WIixwoyCFZisMq7Gx6fWKuUSYBTMwAAzMn5GwQyKl2T7M7CuEK1/39WAGUBFUmpSZUFRAQNB/Yl69sagI0rU4lGBvyrzjhULmWY5D0E6K6L+eP1Gc9Nvp4bejt7QsdCxja89/drG6t9UP7570+6GvBl5G/t6+hpq9tdwUZUCJj6fI3ReTHCxGjwdsXgaGgfQ8Dpm7AxSrpbdb0KNWeSEoqae9p7QgS0HxsTNzLtx3sP+VP/DgBlvwGtzONnDAlhGERKOB4OL3cEwgtpNmM/TEC/j8rnY4NXBOtt+tU28+cKbrw0ODqbQtkYdLgeKoaKJzkQUPUXpuHEMHo7l0OBQtKOpQwz0DAhfsq9k9pLZuw+8fkDH1Vwl5c3Kew41nNwet+hq6wq9+pNXdXHTRUgDzTWu2bNLPlFaepuBt+vm5jOiq6udH0R488/Lm2V6CBwAm2hGxhSRkpKZk5s77YE77viwPT8/XZw61Sl27HhZ/OIX36p6/fVfvadujj17NjcQDAYJSgwJJ2b8xAQQo1I1LT5PTY8Pq+kABTRQhzdgtEYsgUOCiQSc8QZ4kUUX6GYB01QKU16XtzZr2zjWGk2yKrZqewZBwbhmUJsJAcDwyGBfu7s7Q7R8RV3dsasCtlNmT1mXX5S/DsNNp5sYDFQQsPIcAGaUh4YN54xSq9fGPD9G3ty8jXWH6xp44xcpBOVue3ZbaPNPN2984/k3NtK2Q821zUEC0CCKwUxP0BhT0/j8YpoJPWNgZkjCDFfXRh9NCmY6ekLdbd0VHQ0dY/Y3f27+vyVnJecG0gMc7Eu/Ex4YG3tgzJT2TQ7bpVcGwwAYAhl4Z7Aex9zsfWXvzq1Pb32AQCWVYKY4duxoHQfaXYK3B8VVuJ4Jbvh4JhDYhOk6GhrO8SX5BAHNb81d03qXtfqjqx9D0SjOS09rz8ZXfvLKhQK7Fkm7s65xfehDn/uPu+76+IbW1rro8eO7xb59W+h5S6+IlBUuWnRbNCkphQCHRihnGB2NRuvqjvrvuOMjCQsXLqAMbJAy9R3iv/7rb0MHDmwbEyexYsX9Bj04y+kJWQ4PAmWooYGBgVBNzT7R0nL2umn34KGHvkS/08Zt0shMkDNCM8USEk54aFyqbg+13PmE44duFbKyCgQ6xOSMl+NqZDGU+m5psqo4tqc8M1b4UbAy8XQMK5hBMVO8GwSkABmkgBnEzcSrZXdztey+vo5QQ0PNVW0NuuzusurZZbONs0fOclEMinQUoHDmqmBFZrjxnrRhdNxgMc+I9KZUbf3l1st9vRrl/1JuZORnlCNwOX49xIVzDhjjfcB5Ue3QDMm+mfp7+kVfj2xrpqe9R7TVt4mB7oGyfVvicTNQ8c3FDyelJ30jNZhqS05JtnEgMMGHzUHgArAzvTOAHBNMOEUbJZ4kj031TI72evZv2S/e2PjGsurfVO+asXDGAofH8TzBCx892l877TEfQf7iiLBhHMeXtsfFUNjGtHnTADyrf/oPP+WiJzR8SN9hoMNEtA800DdQiv2h8Z2jgwTktigaBYzufHHnd3m7WpcsHOsH//LBygU3L2AP34k9J6r+Yf0/6DZoLkLaQ3ON66ab7ls7bdr80pGRQRqLiDNnjvBDXWWS2dkF9LBz0DQ7PWRHE6ZPX+BesOAGWtYmTp48Ln7zmydCO3f+tmJ4eDj2Vrhq1YfKHQ73Y06nZx3aWUEm3NbWEKSM03C7fYbL5VnndDpD4XDvJb35Xkvas2dTQ0nJbevoWMFTIzNO0+RxlOlY0LGm44fPNQjeks7OFgKHdgYZOc1aRBSHEJVKWAHUqPljWyY+dzoCf6UBYpQ3RsXKWD0zca9Mh+jqagvR9XNfXd3xx3nHrpIQDDx1wdTH/Cl+LoZB5o/jZ2bUEgQxzEAoAYeNhtU8ZLzWc0eXuTFj3oyNNQdrLue12hD6bSj02tOvVUWikYbk9OSgw+UIWiCKjeNmTBsfO6Ma00PcTGdzJzKosj2b9pzjFcudkfsNX4ovxx/ws3eGfhORDF1x+P00bP5+OS6Lm3jc5ee2ZriYDsOtZ1vFi0+8+CcEFr/GdjuaOprTc9P/HNukYyTXYyoUvD68MrHj65DHH3CJoj/aV4MWXT5lzpTHUrNTEc9hpGSmGARQRnJacpDOXxC9otP3Ivh6HQHPuunF02HGrNJZDZQRT/rnxtXQmofXGLkzc9cFpwcZhrubu6u2/GLLeyZE4HJIA801rgULVqydPdsoHR0d4nZRENTZ09NGDyX50C8omMspvY0neL0+T0nJSrvf7xMNDQ1oOE/U1Z34wsmT+/ghB/34xyfLCZAqs7Pzg4FAhsjKyue3eTQeh/58EHNB2wsi9gRgQ7Az6cGmrGw1MkCCGjOjJAOkyBRQgmGZSkDBcNwwPn6a1aQwLBg0ADa5ucGqcLiPxoeDEmIkiABMEMCrwAQGcAHYKGgZC0Hx5ZTFYUZ6ZRTIwPr6ZCeTqn+mrq7WqtOnD95H6VU/h5n5mY/NKJlhwBOAzB7FMjh+yEyRscagBedIjZvDylRMjdVrE7VFDcpMQzX7LivUsE7tORXa+sutVdFItCEpLSmY6EgMquIlBhl6kwbIcMzMIMGMGS8D4xpNTZ3CFrGV7Xj+3LZEZi2ZVeL0Ov+aIMEGbwtiZBhm5O9EUZNM5TT6R7+WjIuZ0Ige2p/xOG2R4Yh46mtP7dz10q4/NTfNSs1J/XMsg2MIbwza7qFjivEoHU11DOmPjy17gug3JNK+z/QFfEvSg+lBAhp4Y2TrzfS9qno9jMdpOornaP+D8OQkOBPK6Xetm7NsjsgrzBNX4pxcr8opzCkvuqHIyJ2aKzpaOkTT2aaNO57TbdBcjKwNZmhdg+roaOYHu+w12s2BwPDIoEgDGRc6VaTptnC4yz179pKEpKQU0d7eIXbvfpUyta4+gqF/euSRL43p6wnbmDWrlDL6O0Rp6W1i5coHRHHxCkHLiuRk2dw/gl39/hSDtl2ZkVFgmKtOUkViDwUJIDIjlHZ+iImPYz2sDcl5ccO8+DoKklDU91d/dU/Z0aNvVnR0NPG5ko3ZjTUAKoqGEOsCIFHAooqRxpsVXtCmDAwQCq8MvDGAXYBMW1tjqK8vXHbmzNjaNFdTaHMG3hkUkaAlVHhbENPB3hlADcbpWudxi0dGjatpHDBrtrWCopdEZ6JBx73S/Jorok1Pbqr6tw3/VhYZipQNDQxVdTR2MLSgFlN/HwEMGYqX4JEByKAKOrwmBG1lW56Z+C2b9rmE9l96ZhKJLrgiEk2P0jDmC0TwIoaXRjCPhKBfXod+N9YDsIReCu0MvRhajvljhG3Z7RFckwgK5msTmwTIJNqiBEvRBBsZpVguGo0mREYjfgKURJyflKwUhhkTWLi9IKToogKN9iWlJomkdLK0JDTZzzWm0nLTRHpuupGSnlKZNTWr+v2ffn/1g59/cJI/P94dFZYUojq9cDld7OX75qPf1AHBFym+SbSuXd1xx0c+8fGPP/7tkZERdHlAmWBf9JVXforaTlx1BrEzLpc78Y47PuaaN28pZYgj4vjxXeLZZ6tGV6/+cA+qdff0dEb7+7t2f/e7f7sa6/zoR6cpA4hUYxhCRoj4HBRRNDScFPX1J2lau0CRCDLYoaHB0PBw32Xr7wl9LXk8yeUpKZkG7btISkqtQq+yX/ziB6/Y28ijj/59td3uQNwQPeRl43dxEFHCuDkY04XcIvT+i5gKGYvE3hYUDRIYVsycWVJ5ww13EnQ6xKFDIT7WE3mDoPj+wKIWL400nNtz4QYeGtkPE84fYmXQYNuJEzuvuYfhzQ/eXF2yusSgn8a/c9/mfXzMzIxW/n5Ler7pSCHEsHAx0KgsAiICKHvxey++K2+0qx5aZRQvLzaGB4fL6bsNeGxi3pnuftHd0R0i2HnLauVFNxZ9Iz0n/ZH0KemIheFgYAIP1FSSDekhtgXFQQgSltAHT45A68HuJLdAAG/diTrx6lOvLn3tp6/tNDcb05wb5pwgGLETvNjpWDEwIZaGZtFBlBc2HUseouPqSExITEM1dgAK4AXAyFAJw7lAMRWlsfOizolpvB01TOL7gc4PvFeDA4Mh2v8K3abK+fW+T70v+oFPfUAUZBWIrdu3hv52zd9e1Xi3ySh55Wlds0I7NOXlX/0Pvz8NGReBSZjgIxTds2cznhfIQG0LFtzovPXWBxPgVamrOyFef/2Z0dTU3P4pU2ZSHjiMt3e0V0MZXd9uyhg/861vfWqPgppjx3aJxsYa89viwsbl234rN43f3d0aam6ue0ddJdx//6cMt9td7vMllyclpQm3m95GXB4OqDVb3g05HO6qP//zmy97ZvyJT/x9JWUU5aoRvHOBBsPmIOtibo040Kiq2DjuKNJbs+bD9BuddCz76NycFNu3Py9SUzOraFmDFueAU2lyf+R+qP2CRXlbABoJMYAZVcwkvTU4twAZAprQ0NAwYOaazDRu+dAt0bI75TMavw+BsmcOn4lljJxR4rdbM0tKY9PJ4FPmYfrgeFsDhCkN0VjFuwU1Sg996SFjcHCwvK+zzwh3hw1UDw/3hSusDedNpPk3zX+VYKY0PTddNqSnWgV2SoAB0ABwABRIHS4HvCPo1oD7viKwET/80g9RS2uZuckxKlpadMIb8NoBRDRqp2MloQbFT9Ljg2HVQB9gxgFPCzwwgBlzH8ZADZ8LE2wmAhqsxyCUaM6nD98PQ7FgabpGhzTYnCvjM//1meo7194pPAkesfmNzVVfWPsFHRB8kcJFrXUNCy0FP/LIY/8xfXoxZ2JDQ+HowEA4umnTU1HEang8yY61az/hmDq1iN/+N2/+BbwDfTNnlowEApmUeWZF41DTQ5nh0G7KPD/zla98eA8a36NhuOrHuIT9/hRRWLiQUxSLHDlSzcUYBD+hmprdFbW1Fwc1a9d+0vD53OVebwBeGQIZPxlAZgzMmA9MwAbAxlH1iU8svGxgs2HDV1F1uzpe8wiZpMwocRtwMkZvd2uwgyym8UADT01R0QJRUnKbaG5uFocO7RA7drwQIiCs2LlzUwjHnlYzRkdHy2ltnAdzn9T+mJkEb1sCkiqGUkHAgBnplWkPDQz0VB0+XH1Nu6jvePiOaMltJfJ3UmaHQ3x4+2Gu7aR++xiAURmmJePEOtZhVPjD8VZeGkpDCZGEiue/9/w1nWFOXTS1JDmQvDlrapaNQIKLkVDDCUVP8NAomOEiOXhoCHTcyW6bP9kvPMkekZaRZju251joR//vR5+s3Vd7jncGmrts7glvqhfroqAJ3hmGGfbW8NFjw/ELJKcnexEvA+8M7ccYmMF3A1DUeRufqmGsFwMaWg/TIRTP1R+v58YF0Upxak5qiH5XxTcf/aaGGlPL719efvtHb698/x3vF3WddaI6VF3x+Psf10VOFyl5xWld0/r8578/sGLF/WJgANVy2UsTbWuri7766s/slGG6ly+/m6DAid6SxY9+9NXRtLTsPjzvSdHU1ByRnJwZRVDxyMgQrdcg2tsbkPn+z+ho9ImFC29KpMyBMlWYEARCHEeDNlZQAwoBw7Q9LoqC96e5+Uyop6e14plnvnNBD6MHH/yU4XT6KmmbBgBJemW87JlBcZMEDOk1kaChjDO1ELw29ICv+uAHp77jh9+jj34VQHNOsZO6DcxjdlEihjGlgEZCDTJYtE2zYMGN4vXXnxW7d2+q2r371QnfuB566AvG8PBwJa3LYBPLsEnYnixuigcWw+CVIdgMDQ72VO3bt21SPPjWPLImWrqmVGaWdH5x2JHJnT5wmtNYBonfPz5VxwR/SElI6WhLqLEUPZGF7BH7NQ01MxbNeJhA5t+zp2ajE8k4vMhq2uyh4WlmcVOiOxGdTCKmxcaxLGQ/+sqPvrvlp1s+aW5yjFBt2+VzPeNP9dPthYNNhwu1tikl3LZxte0IX7xOgoyM1KxU7moCgb58fwBkxkONCSk8zTxXajnUtmIQMmOiMB1B3zt/t1Nse2Ybn1/MA+wgPgdVk2nfQt/51Hd0sQppw9c3lM8um135wRs/KH5/4vfiwI4DFf/88D9roLlI6aDgSaCOjuadHo8LnowoAnbh1cjIyBPTphU7ETcDQEDR0NatzyGYd4CWowch+hly2Lq7OwhEjtkaG2ttLS31dnrLt3k8AZvL5XvY4/H+6/HjexYcP77r25QJlxUXrwgBOg4e3MaZMr6nubmW9yE3d4YoKloigsEZRlpaXuWDD372bQP91q7dUO1y+atTUrKMpKRUBiRVTRwtHCPQ2Qx2ntAIegz6veV2u6P6F79oqvzlL1veYXAhmstHo3Zx+JBCinEJKBdman1lSvHh9vYm8bOffSO0ffsLZeeDGeiJJ74cevLJr5X193eX9fZ2VMHzBo8YWiNuaTnLDSriPDQ11XLxYF3d8dDZsycrqqtfLJssMAMBONQbPAyBrSmZKWJW2SwOKuWM0swg1TAyTmWcgY5LEwC/ZuAwPBvmtg2RICrXfnLttRuMit03fyOuo4j07EkvCo0TrElqI0XtUfbQ0O/iFGDQeKJRtDa0nr/tlwSxAMcERigoj1cCIQ1Zoj0xStOj7HVJsAd8yT72+qDKNh9PnAMTYN5y2Nw+ul5AzTVUI0etJxSHoe2dZ77xjHj1J69yXBHOlfpJ7Y3taMlYNJ5sNB752iOxWL73suiYlU+ZMoWvg7amNjEcHtbeq0uQBppJoFOnDuxEcYMsmnFyLaTTpw8nTps21w7vCYoeTpzYC8/LQCCQFoHXgx7uNrud3poIamAOetC7XC7ADwGNF0BBqX8xjf+bw+F55cyZIx/59a//61vHju38TlPT6RC8APgeVOvevfsV3g/ATknJrWLZsnsM+u5K9GjNM8aJQMZAL98ZGVOM1NRsXs/jSWJzu70MKyZwsTkc2E/5uzAsDcPS4OmgaeUOh6Py+ed7Kn/7275LyqgoowjJ4iDZ3QDgQ0KJkhVQ3s6ksL4y63Q8uwk8xG9/+0TZ4cMXVvUSXq9nn/3PinC4r6y7u7Oiu7sNNaSqYASsVTReNTDQWbZ37+ayazHo9+2Emj8qE+S3dXSk6HIIeAfK7iqLdUbJoGLJOHmaJW5Dpcp4WWTOCKA1vQCUGjT3itZ8eieifSvBccD+owiIrx/z8lEwQ9MkAdB0WjbWdkwgKWBrPNW48/BrhycsaoJoE/NxLLApWidqt8muDvhYJspp9N2Jbp/bwbWYfB48M+RxVsedjnNs2GLWc8Mwg4b9yHAu0ZdUw/EG8cQXnog2nGyIeJO9Udp+FMvhHPE5o/1AoPCRN4+I7pZu4+P/+PFr9jy9G0IMFhpwnJ05W9R01YhwX7jqm3+ii+MuRRpoJoHq64/trKs7EZWZv4Mz+J6eDgKa+fTQSRCtrfUiFHp51O9PHSGIobc4FOFgWbzRAYLYCHASbSjmcbt9Nq83icxP5rURZNicTs8jBA//RmC0Phzunae8AyjaANRYBW/L7NllRkFB0TkPolWrHiTwcFUTyBiBQLrw+QJczASQwXdbYUaC19hUzZPjSBXs0EPT6TKcTmc5QV3lK69EuYjs4hT30EQicRB5JyZzITWOTIgzIv42ZBCXok2bngxt3vx01ZYtz1S9+eZvK3bt+n3F3r2vVuzf/3rFvn2Tt12KpLSkkOlBYe8MMkBlgJul9y4Vy9Yt4+rCyPg4Qx0HMZxShqgyRlUEhUyWTcESoCYxwVj3J+uuSQ+ACWj0I7jmES4hCS+m4K1BqqptK5BIsCfYhull4/jO4295HThw/xAEqeOD4wXvC3tQyHD8RUSkcIBxkpuPv4JGNhNYrMd9zHQy5ZlRMANrONEgfvLVn0QIlEY8SZ4IzYu4/e6ox++J0veiT6nY+mhd+cTuE6K3vbf8vVy1m45VeVZ+lgjQs/JY4zEx0jeii5ouURpoJoHa21t21dUdIiiQngt6Y7elpWXbU1PTOEgUQbvt7Q0jeOAlwv2eAO8M2qoBFCCgEA8jeqtiQ9ChgwDGDYghSEAsC2DDS7DjAfDYMjLyRtH+Dap/nz17jMFmvPz+ANqyMb7whR9zhlFauspYvXp9dUZGfmV6ei5Dj9ebHIMZfA+KlySkAFykWfaLU/wGNY2LEMiUxwYwhGPg8SQaLpeo3Lo1Wr1hw99dMNh873tfDI2OwkuDPpTinhoFJ1ZDDjORTbQsTM2Ty0nl5ExH8p59UI9Xe2N7iI5SzDsTM0COOYzA1Bvvv5FjLBTYcIasIEaZmkbGKGDN9C1gw1Dzp9ce1OA+xO+ISV42MraFryO+ongYEGNCAMfZhE+HRXN981t2NUBrLsBxUMcG34W2Y0x4jEZGIz6X1+VEURMAh7dvARYsP2YcbAQzj7/yyiB2BtvEMNrdeeqrT0W8fu8w7XOUpqNDTIYnAh8ADRdH8T4AOOm3IOap6VSTEKNiQi9N0dKi8oW3LqwsWV0SXbpuaXTl+pXVdz96dyXszo/fWbnmoTXlKx5cMWnvMYfXYYyMjJTn5uaKlv4WtPAc+vIHv6y9M5coDTSTQPX1x3d1dfXsTE62c4ZO44kzZiwgqHCKvr4u0dnZNPrQQ18cyczMo4fQeFCAwVNjHwMSsMREp41AgcDGxZ6b7Oyp4s47Hxb33PPxaCCQNorv9nqTRumZOrBlyy9HT58+xPujhGri8+YtM/7iLyorc3MLKzMyguyVQZVsxMrImkwqJgYxQNbvHwsv0vBQHTtN7ie8Ugm0TSF8PiGSk4UIBNiMP//zxyp3745W790bvaCHWjQ6ysVOEmTiMCNzlLip6eNt7PyxMDR+PcAcoI9maJFO7T0VqjtaN8aLgsxOQY0FQsS0BdPQbo0oWVUi0nLSzoGYMWZmshjmDBjFTwB7bA+WkGDc/6n7r6nzQNdgCfaXrxXTW4hLyxxnkOFpBDi4L+j3QXycBhsHxb7f7ztvcRNE8LEAxyA5JVkkpyYjAJcb/1PHmEDCh+rZCC7GNHnvSZCB8bAJMGoeGx1fBTCIuWHzOLg48YeP/xDAOkC5iuz0ktal74okOMkSE7jHb4fDEWUIUh46StF+Dy1nrN0Qj3lauHJh5ZK1S6ozCzIrcwtzy6fOnyryZueJjGCGQftdDiNAK/emeCtTs1Kr73jkjuidnyDA2bBmUt1vKG6avWS2SE9LFyebTiLeSHtn3oE00EwStbU178LTrbHxqK29vTkxNzebHtSj3AheMDhzBMVCy5bdx4G7EgQUECg4gNcGzZ4n0HOR21CXGQDNmz27FCBju+uuh2xZWVO4yMow1oQXLLipJzU1s58erCMNDTUj//mffyn+6Z82iNde+6VQcNPaWif27t1c7vencOCvz4eaTOzxIQiRQAPvSrxISe2P1fCwlMNyv9QDVO5/YqKNtidouyjuQkvHQmRlCfrd0nJyhEGQU33sWKRy48bOCR9oa9duKP/oR79YSRBmjPXOjAWbCzfrOhNvhw6vyMwMTqoH7JVUV3NXVc3+GgkbdF45I8WwCTFs5nRk3E6nU8xcPFPc+dCd4p6P3yPmls2Nexzo4KrMl4fxQYprGlCjzIQbUvW1BDV0fSzm30LAQv/ZrNeOghwYREOc4jfVh+t5+HwqXFQ4Hz1rwyOjfj+OJwKvARWUafromDvdPrOoSR1HMtx3sWOLY4nxcfMZQE3DuRsZGBFP/v2ToUPbDpXRL+G9pmW5FWK+j2mf+Rw7JdTA1DnHfuF70MIyvBXFq4qN0jWl1UkZSeWp2alGejCd9xvg5fbI4jIMA8bQ6rRqpTgjLwMevXKCN26d2PTeXNP33oOffdBAX1k503LEUHRInDl1RnS0dmjvzDsQbiStSaDly9d+/F//9X/+49ixIwn9/V7HihWLCGb6xI9//E2xZMmd/YWFxRE8GPBc7Oho5CrcR46EOBDQnE4PI3W6/3/23gQwjqPK/6/RrZFG9zm6bMm2JNvy1fKR03EOk8QoCywhLLAEFn4jYPnx++3CLrD/H7s2e8HusgvsckiBQGAJJFkgxHLiOIcT2/Gplg/ZsqzDujW67/ua//u+6prukeWcdmLZ8+Tn6unp6aO6ut6nX72qkimvpuWcnHUiJiaJqiEYeg+ar+D1IXDqpHXoMjxnGx7uC6itrQhDLyk1TD+mS0AzEkEPNzHJeBkJM1LhmUGwoYIZKDeDeT9LaLm06Ul5c6R3RjDQKO9MTIxgb40S1Pmzs0JMTAhx9KhO5+Qs/vWvf6ElJmbiOy0sLFzLyMgRWVkptK8x8cgjP/c5PlTm0RsJqmpjkcUwNpzgP+xDrZPQ1NJSU/rcc4/6B8gyZON9G0s+8H8/4ELvJjZqAFyAh2H42PjB0HFTo3yDB9iEBIWIUFuoIJMmLugXRHd7tzhWcczYK3JeduFWwjAwiy7vPOAeN20gZoOk8OnvP/2eG40cLWc4OTM5ICreHIOGrhsp8kUOqAcQCQyywXhHxEXwGDTJGcncu+mrd331c8auLpFlhcv+PjYp9qNxqXEB2BflqVQ0c1E57+/sj6P8jcQ0BfDcMEga94KXSXFs771R94U+wyOD3kxqYkzE0Jx59Yxe+uXS4rHBMT13c+4wAQd3Fadf4YGgiocfDNwg3CY8IvzZOAZP44ApFNDdns4NUy1oOC8GLgIeHFvBFIMV6jSVGoo9AgKt3feNCUJ1KgvFe3507XXhd/27y5WzLqckd30uz91UU1FT+s8f/Wd/XfEOxD855SKRubkpsWHDlj+7eLE5uKBgsy05OUxUVTVjYLWZLVveNysNNAxBgM3hiCLj76AHPQDeHHreA2wYLFR5ZaAcj2h8xlxDGGfG7W60dXQ02gYGum0YfwYDV9ChobTvAAzoFjA9PREAyECcDAbui4lJ8ImXkePLyDFm4J3xhRl5jmoZIMGVJkOMUrVObgfvDNk1L9TASwOwoU28gvqMfsrbZGU56dwcRatXb9SWLMnTbrpprfPmm/PF6tXJIi7OTttFiMrK8zy+jsoLqBTTIErBZ1NNmFHr6H9eqb7wXYcUAdsNDZV+N7IhU+NTzhWFK4rw5g2D5jWcSI03dg58J2OJXnlhdMPDg+iN3EZv5MbfcudyUZhbKP74jj8WCQ56M3cQ4dItHBwZpETeS06xaNxadY/J6Gl5m/P06mPV7+mkiQQTfxMRFWELsfPkkXhEWQg74Df3wgdSbuIJD7EBJtLi02wtLS36gScOlBm78pGM/IxVjljH38elxAV4IYmgyIYJLmlfgIPe1t7EyLhIGVNDMMH3wYAWLzyoFM+kWk91SGiY0asJ486EBomx/jHxbMmzuxorG/l8EjMS/wbniu3h/6cjqmvzfubzoP0yuBHAYX+4YYPdg05HnMNJkMfzR+HcvHBlgNbrKkEZ78+I60HQMkGRk8qTa9mGZUV5m977+64E3pmUnJSdmfmZTsB7e0O73tvcu+vYnmP+yTzfgfiBZpHI8PBgR1hY6DfC6Pm87TaNPSmHDr0q1qzZMEVg4aFngo16f79bnDp1UBw+vFf09nZSRU6VEVVMqEq4Wpf/83q6/ahlvGrU+SzSKPO4GGJmBrNBz9impiZso6NDAZGR0TZ4P1QvJsTSYFwZBTNmM1OIASUm0KgYHwUtvgrjJg2cVBg34QM0SAEzSBcSBTbh4UGitfWiOHv2NMFLvKipGRJnzjSLiorToru7hUfdxfGkxZsPNUpNMcFFrZfAotZh2WxyMpu02tvrna2tNbv4J37BqMB6uCO8aOXNK53mfTaMkQVmwtAbD00MtjBhpz8FM1HGH9bRr8RS51KxfsV6sU3bJj649YMMN/jscDhEqjNV0J0QI8MjuEN8fEqdc545LX9z/ntq3OJT4+8Ps4elhtpDJbygBOIRlBDhhQD8R+CAWbXZwGfHZ9vOXzivH3nmyIJAk5aTdmdscuxdPFgfvQ2Qofcq9klAGTI1NhUZSUADaFAeEB+l50KlxvnwZxzfGztDy/DSHCs7ppf9qIy9Cpg9nO7fn9F1MUBBADFI+INxfXjk8BH3HVCE9UM9QzY0IWHwQKtnxgu885a5zABikBrL6nssc1mCN4mgBucZHhnupDLmyt2S61xSsMRdW177noLDpvdv2pmVn1VE5YC9MwSZu/714X9d8J765c0LanS/LBI5e/bCzxISUkVkZJCYmpoVLS21Yv363Dl4LGDEh4Y6xJEje8WFC2eoEpIPOldKhicGKSCGB7RggJGGXCqOII06PDP0dhy4fftHw/7P//lGRFZWXujs7CzDDYJ94+PTRFQUvDIAmUgCDTm2jDFeDCs8M+Y5SKXj8vmY52Q9N3l+SuV2ElBoF6xYxnlCmSUuI/geebJ+/Qpxxx130fkFiJdffko89dR3S3/72+8WNzdfKAVwqN5OC6n83lQTWKzr1DImpMQEkjz0vvFZLgPq/OIrTVVNxVVHqmSeAjTofuF+A3wZZsIIZOCZob8I+lMgE01/MfQXQn+XE4DNVm2r+EjRR8QDRQ+IT37uk+Jz3/yc2LJjiyjcXig23L1BLC1Yqi3Tlr3psU9u+uBNq6HGxysjAeLk9NQ0N5FAVXMJK8rWLOXMrMfGKfLJiKmZob+RwRFjJ5dKqCP0oUiCFW5CQnMT5StDCSCADP305HQIIEJ5ZoxH3kfwLMoFY9n46IUHUlQhI10j4vAzh73eRzrWOnhI6DvM4C0hhBSf6Ts5Fo4BSJRyfA32NTYw5p3R2wdmoLSNOne1jusUI2WowbUaEAPg4nmu0ExHcISmK4xvFJsSyyMUJ2cmuxLSEso/+BcffM/GvvnYNz6G2CBXfFq8QBkY6BrQD+1eeEZ2v7w1gYXzyyKRnJxVJ2NikgkkAkR//7RISoqay8iQQbIjIx3id7/7uejp6aIHnZuYqDJDfSQBQaoVYKCosKSqWgswg4qTgCTIbo8ORDfwlJSsoPb2usCJiZGg2NhkW2RkFIGMhBk1vozyyEhdCGZk5bTwech18CRZt6PEq/Q1K4TqezEzI5dfT9A8ZbcjcNghbrvtFrFmzRr92LG9pbGxSQQ0gA4FI4YRoeuG5wuq4MWq5nYyVfCiZsOWKieShAJyAHkkN2xgMOIEvvTjL7m+8thXSr7+m6+X/L/f/r+Sj//tx11py9L04f5hTFbIczkhKBQTGLKHhoCY3qt9gAZ/DvqjEmLseWGhOyPG6G+Y/kbob5z+Zm2zYvm65QiWBcxwz6ncTbnaj8/8+A27c9/yx7f8AxniZ6hM7r79odsb73n4nsb3ffZ9jfd8+p7Guz95d8Ndn7zrmbs/ffefJGcnvyXgmZ3GTPYzHszSzeVIQQ3KmAVsuLyZ623ds91ipH9hoMnfkv9NMuCr0YzFzU0G1JCxp8dJgsTUxBRlr+xhJJ8z8zlUWUulXy1INQT7UIrfNp5vFPWnzXnd6Hlfj2MClEgBNQwxfBzjdwgUBuAAiGzBNg+mR8A5AkK8MEPbe9WAGCvIGPv3KmAG3hj8nmcjJzgC0FgVzWsAG8QNOXOcIiMvw/WJb37iPenOT9dakrY8jT1HBDMcLL//sf1+oLkC4geaRSQhIRFadHQcPehoWhoVGRnxc/DMpKYKMT7exW9jUlFBeaFA1lUWXUh4ohcZM0OCChQGeY4MjI0nqOzpcYeEhoYHYNqC0FA1UJ70zJggo2BGNSnJc5DnIU/Euk5VpKaqc5dwQ5uy0kdWCJ0Sw8z0tBCTk0JMTclg4OFhmRKT8PdIsQ2ETkWsWrVOPPTQF0teeGGw/OGHv0lGZE6X4CGhxGs8vABjQo31u/kAI+dYUp/lsnXeJfyO5IYCmof+5iHXp/7hU+UEMx4yMiWhEaEllLpYw0ntYS4yTBq8Dxy4OTLBQNPR3CGaa5tFe1O76OvuE1OjUww1aF5CMPAbCd0ZBple+uunv0HPoBieGabyOyqmJjGX2QzfVwjKGIn2XxX/9abf1BFUPOeZsxGMBEYlRAWQgQyMiotaFxkV+a01t64py785f3d6XvqbghuCk5OAmtkpKnu03xkqN1zOFMwYQKNgRqWIJUIzynxZu23tquik6I9GJ0TbMKhekNHU6/V2kOEHREyPT4fAi4J1LJQdsqxjQa5S6+Si/I6fTwNKsOywO9izYB2in77j0Y8JYng7ftYBLqQADvosOynQd7SdB9c9OT4ZgF5LGKkY3hX83gAxr+IaWOm8AWKcAsoMBRgwxCgvD8ER9ol9jQyMiK7mLoHedXUVdTyQX2tNK49UnJyRrBV/r7j84X9++F17Pj/7b5/VUpamaDHJMVz2MTbTtz7+LX+M3RUSP9AsIklNXSKiox1ssAcG+kRmZgpbS8TP3HPPGvqcalTUCI3CrZVKoECrZUVkqmzQlmq+m3EVRgkMMypQxK+88sqTPHcUvDLWOBkZ8EsVDIEM3qzVZ8AMmpckoChw4fMwlr3nYKTSwFy6zgQZCJ0OnZcEFsAMAGZsTIgRemElm0XQJURrqxDd3UJ0dSGP5PcAG6N+FlFRUVpAwHR5bu56LTIylvYpm4aQmjAjjYn01iDF9ybEzFcYSsDLzAxmw5YqZ8Se5N5gJNf929e2j23Tdnx+h4tgppwMS4k92q6pmAjMFQRjgzdo9SaO7recksIgKcVcNoNDg6KpvUmcqDsh/nD6D6K8tVy81vqaqOqtMo7mK3SHxAT9AWS66a+P/gY8A2JoakiMjo2KifEJug+Tgr0h6O3E95TuM8q7R7i+p3/vsgaN3qSDlqxeElRwW0HQLR+6JXDrg1sD0HTR29YbQIY6IDw6PCA8KjwwLj0ucNm6ZetCw0K/RYa5jH73zOuCzZw4iXOBl0b1wDLOzQaYUV6bWZRPWg8FAEbORYq4tDhjJ1Lyb8lfRfn89/Fp8TbkJzwerDJ2hmEAywCcyYnJEDxfEG7GknnAqsDGCzNIje/M5xMPJX8tWutbveV65c0r1xEkrcOxACwKZpBGOCIwwJ4nJCJExrSEhnLTExn0AGsZYIAB0FiUz13BjWUdoAaK3wFeeD8oW8YggeX7ysXjf/+4ePJbT4rffue34rnS58S+R/eJl375knjlN6+IF37+gjhadlRMjU1p0bHRJQAN41KuqtD5lqRmpzJs9rn7xOTopL9X0xUUWD6/LBJZvnz97oKCmwkswkVNTT2BQ8/sqlV5DDXwZNx661rb2bMNYpDedn0qIK6BaMki3lqJRVZgSGWFBqMugrKzCwJ+//sfiOrqszxYnoqZkd4ZjPxrzrekRvNVzUxIrcuo2C5Vo+Jj8FHbqN9gOHvpXYHSV6x8lnS6gBuADTw0ylOjvDUAnHHiCCxDsR5QAxiC2mxBBH/5BGlO0dHRRNAzyMdU+zbzACqXTbBRy+ozgGhGJCamc95gcMK4uBSRlbVS5OUVMtCcOvXKdV1pYbwPejMuccQ6XI4YhxMggxFo1Zs3jI4KalXxG8ogwTjhMxur+W/khoehf6pf9E71iubRZlHRXSGah5tFz3iPGJseY6/MTPCMhBj6G6S/Yc+wGB0nkKGbD8/MFBUAL8wY3g/2eCgvyKzHdd9n7yvb+5O9HCj60a9/dM0df3LHPQQw/0Lwck9GfkZAclayiEqIstF12aYnpkVrdauN9m2LiomyEaxxN2t4B4b7hgNo3wh4TSGj/SeRsZF3RidGVw71DBFimzLYPdhBb+l/ExYehu7L9AjQQ4kEhZwe2wBYfDylJIEhgbKnU0iILSw2TMzYZnQyzBxAijFnHPGObyakJxRERkWiqYmKMjfD2AKCibkw7lQQT3tgQ7xGb3tvtPJiIM9RFfChLMoeFrXeqEP4fqh7R8uU1eLZx54t7W7tZqihfPoa3ecNpPI66A8eFwAtnQ+fB1KGHEqRR3RPAlFWCH4ZRBSwGOfvq1QJzF/HPeEMEMaxoNP0oL/0i5dE9bFqb7XGdQzqE/oN9q2uC82dgAoEDFPZ1VZuWamf3n/6qgULf+wbH3OlL093oSxhMMG2+jb92x//tr/DwBUUP9AsIlm79o6iZcvWO4OCIkVPT7eIiBieXbkyl4EGQs8oaQBDDWpFpapSMtfR/5zIZfnkK5gRtjmqbKiiDwwJCQ145plfEMA46FhRlKqmJgkzMghYDpoHL40JMaod3BdSTJUQI1VCDdbjM5ZlTyesN2FGnq8UskEMM4CUhVR5cKDqs1UBNQARXAtBIl8XvCm4jvT0FTwmT2xsEn0OJYiLMtRBsJLJ32E7wAsgBrOQL1mSzxNwRkXF03aYSdzB+QA5d+4Iwad+3VZagJmgsKDymKQYdLmVvVQML4zV0MyHGKUMMwtAjFrm75BaDNmEZ4IBp2W0RVzovyCahyTgDE4PitHpUTFJ91LBjBdkDA+IFWoYZgA2aPKZmdG2/+l2PS4xLjHQHvh8gjNhe0RMRDJ6GBEzibGRMTHUOyT6O/oRNyLGh8ZttC/b5MSkbWnBUnhGWBF82t3SDcNN/zgoN5meKgU2Z61gE5scm0L5sQHeTX5G8WfAAH1NqyiB/SUAMIDQZgsnwzwcKPb9eh9PfbB0zdIfJ2UkFVDec28oyh/upo2gXANmbGjWGhoYsg12DcKIRytvGfKWjbtV5THl+Sil9bhv6h7idy1NLeKFX72wa3Jk0s29m0KCvxcaEcqxO8FhwTaMr0Of8TwD7tQ4OAALXibIpI8BAQw0dD68X+P+KqCxpvMVz1eIXZYtLl8EfKi/MN7M+cPny+j6NLVPbI9rwPH5HIxrQh7h/mPsG/q9E17Fky+evGrNP/lb8ksor5yI6elu7hYDPQMPHNvt76Z9JcUPNItICgvvwYSQmt0eLYaG+kVXV+/s6tV5c6iD2tq6xd69J0gx2Ji0/rJCslZOWOZvWOUyxIQZ5ZmYm5sKfP75XwQgTmZubloMDvawUZdQE0FGBh4ZQAxgRqoCFhNq1LKsSLyVCYOLrGAUxMhUbYtUggzUPG94T0xPC+BEAct8cJn/vVQ50JpsYjIMGl0rICUzM1ekpS3nY3R0NDKoOZ3ZIjo6gcfaiYlJpOuGdyqCvVVorkIwNGRykozn1DgdC3EaMn4Gb4rIk+PH9+ptbXXXZRv5hvdtKI9JjtmJQEu8ZcMjwxMWkoGZbwCthohTGC9aRqrARo1xgvFn8PbNb+CAZvqO9wXYIVX7UUZqmsrnyPgIPRNDYqBvQIwOEdSMT3KcBJXqS0CGl3H/CWS8cDMz55yZndHGRsf+L71BzwEERvpGACeYskE0nW86465zv3D21bOeiZGJZDoHhM8HwOuRtTLLFp0SbQuPCLcB6gh8bHPT9Fgqrwt8HoEByXQqH3XEO7YR9K2KjYvtmrXNBhLM3A8PDF2H3B5CpR3L6jEFmLCHJlSOReMYcTj3PLVn17q71v02eWlyAeCBYSaYm5XYC0L5CmjAlAS2gc4B28zkDPLLNjowGs3zNwFoKO+No5lKeWr9bFQlfB9ZDdicbJkUz/3iOfY8JmYk3kv3/T6CNpsj1mGDJys4iOBLwgv2w14oLAPWcIzh3mHM9G1jADbOxVs2LpN6le65AhkFM9CKFyrEgacOPIAAYDrHIqyT9QkpAojVMimui68R10t/iOEiuHJuvHdj0amXT13x5xWjVGcVZO3MWJHB5a2joUP/t4f/ze+ducJCd9Yvi0Wmp2E4JyidoYc8SLz44rOPvvRS48n9+6vEE0+8Io4ePccPKXo4QbHsrZFY5Gde7SMKZqSPFimByhygBbEyMOLwPgwMYMLKU6Km5iQ3pcjt1W8ABwqMzPXyeEplJaLW8//8WX4vRaXYp1R4ZKyAAkUzkrWpSa2HKoCZhfGanaF1ZkwLQEPGu1iDeaF0ABLAzdq1d5BRtYumpiq61nLR2dlMv5XQMjmJpgyp42REx8ZGKB0WIyP09kvp2JhUfNfd3Sb6+jqvS5gpvK+wPG1ZmoYJJGGQGGLI0MEwsREyUqsRgcKAeD8bBgoGiw0aKWAmIiJCxEbHioSoBJEUnSRSolM4jYuJI8CMJpiMFOF2gicAEEGPAiJlbAErUxNTmBcHTTvciwoBmFgHjw3r1LxUquZc7nSQsQ3ub+9HEOmZxnONf132g7J795buvf/5nz7/tZMvndwREBrwNYKZSiq14CXb8MCwDbBBxhkeGltmfqYt3hlvi0mIwdgqtjBHWEBIeEhgiJ00LGRtmD3s4xGJEX/ILsh+gMDLMzs960EclgIv1tlZDpplAJ+ZxTZUZmc8gLRx+7go2FrwWzrXAg4CDguWMTOkKu972ntEX3ufDQPf4dmi/GYPCYMcPRd4RhXUK1XNcIjVmb8eyo80Ke7XVD89dIbQ50/ByxKbGMseOr6fBLHwPHFsnQIhpKF0f2bnuMkJwIH1qpyosuGTEg4ydFgU23sBy9j32NCYqHi+orSnuUeHRw3VCPaB88A2DMUYP4dUNZ0BcpSgHDSfb8b22me//dm3MZP/68vI0IgrMZ1eiuhZQe++yYnJ67JeeK/F76FZRJKXt7loyZKVPGcSRro9c+aVimee+dnfDw151k9OzqRKMJDbeqjGTUxMEnZ7BBnXMbnSKyY0IDqRtmWYUVBixIYEdHe3BgJkVNMSmprQTDMy0i8aG8+RYUEzlJyzCc1EqECkyjc/rpRQIVm8MOZ6nCuWyfAZ3/mmdJaGKlFwAwV/QK3LEmKwbl6FzB4nGAkTXmQvLnMZ69VnLGOgQDQ7JSVl8rGHhnpFb2+7cLsbCFiG6HrpLZWgDvcB8ALYkUHBk7SfOW6Camio1F955anrLn7m1gdvdSU4E1z0Nu6NjwFYMFQo40GGjI0JDBbejlE+YGwtb9tYVl4XbIffcJftINllm0cHtkWKaFu0cAQ4RGRgpAgLkk0lASGyDPkUZRKUXypZcj0nNr6nMFgMOUPjbLTR6wXr0AMGTQAKaqbGpwIpDTp/7Pyx7qbuvzry9JEX6H76xL+0VLVUtpxv+VX6qvROupIXWmta91W8WNFx8eTFM+cOn/O469zJgAJHgoNHwkV5hmGm/fCp0bXb6E3dlpSZlDQ5MhlI5xGM/CBjTf9gsfm8vYLPZPw5JgVxNHMhc/ACBcMbQusDCGBsmLsJXhB4lXpbe20TIxM8hg28JNgF9g3QGeoZilaxTfiM7yCcGvml1inBOsCHgsbomGgxEz5Tuu/n+8qWb1z+KUec41MpS1LQxIQpD/g4dM3c/MXPMq4LTU7yGnEPAgjOAgBBiOfh7Y0ywXmlUvyWm57Nz1CcC5c5wzsDr+Dp/af1/b/Yv4teWNxxKXFobpIeGmO/uCbcA/yeyyCl2Devx35pG0AbYlsiYyOdp18+fUWB4+5P3r0ze022EyDeVtsmulu7d1Xsq/A3N11h8QPNIpKlSwuKUlOXaGgGgZGemBjV//CHHz3S0dF4Mj19xfrQ0DCGmvj4RLF+/WbbLbdss+XkrOZ4j7a2hksqKqr+sYIUAKC8KwCAWdvwcH/A+PgwAw0bJ+69JJuRsD+sR9MMpkwALMTFyR5WXFEwuEhF05K5rNZju4W2Nb+79FwvhRmrqu8UxEAlyFiVQY22V2Djq3hLBpQoD47UKT4XeKpwzQAVNDHB6zM+PioGBrrF6OgAb4t9IDtTUrJEbe1JWva4KysPXVdvYoiZobfM3XgTR4yEaibygRnD8AE8WPHGPg9kWMmQ+cBMiAkz8//oSIK2pAqL9oPyQsaIPkqvAu6tAeMQuE2U8Dr8M77DvYQHBMYUxhXH7u/ql+PgENB0NXWh+Smwq6XrX47vOf4s/+gyArCht/ozbTVtZzobOl+g5Rdo3X+LELGPwGINGcdkNMVFxUXZuKalU8boCHQutpU3reRxYmgb22DfYBidhyzw2IYAgJ8ATngBecoeDconxKeI1trWWboPU4AG5Pv05LStva4dQcnoJUWPEz1HBBG8A6PpB9v1d/RHc08junfIfz6kPJo8tvxPpvwl/cPx6dj4PXRp9FJRoVfoR/9wtGzZumXfjXPGpdJ1cnMXgAbH5XsNqKH7jOY7FuOZp/wGZgUAJFVzE9bz8w+Aod+qbY39eBXbKpiBwtsCiNv9g9272uraOFAaQEP55dvkZOyTla6H96uOYyzjXAG/tF/nsg3L3DUnaq5I78S8zXna2jvXcnMTILqzqbP0+67v+z00V0H8TU6LSKamhksxOjA8BACL2dk5do22t9ed/NnP/vaLzc01JzMyVoh167aJ9PSVPDbL+LiwTU976E1J1ltI8RtzzBlAACp7qQoCCFpmExPTZhAHYsbJYJwZpZjPySliY5NFc3O1OHbsWYGZtyUUYPwVqwfEVOxfCg7vPQVDpNGRYIXUBBh4Xy6ns/QmOsPueXk8dUw0OZkgg/MxYQbnCG+KUtkkhWYlmVrXy+UpbmbCvqOi4oTDESOSktIpn5eJrKxVIju7gEBmCXt2zpw5KOrqTtO6NdrDD//dFXdfv1ey7cFtGoFDOYyQ1cCxQcIAZwaoKAOijIkyJF7jYnxvhRoADWAmzPjD2DMRlj8FNWTSGWpgcPmPCzXt2wBlq0I4nV/UjM8AH5Q1nAdgBgG/aLrAOCXjw+NveyTZ1srWyounLt5H+/sr2tfpPnefJyYpxgawwZQES1cv5TmcyDAH0Fv71OTIpIfKKZRha25Kprw8PceD76GpCfE6CHROdCSK2KTYMMo79FyyNVU12RqrGm1TE1OABgUOyAUvzASGcD4jxmcE+0JMjTWGiJ8Zo4lLrVOqoBF5hXTSNinctW5RcEfBw+HR4esAbQwzOA48rrj3FsW95bKiIBflBdsaIGO9PzhnTtV9myf4jVLsA0B96qVTeuUBy3xp4DTaLb7nsoecoJR/pyDbUJwTnwuVAYZkEnjyaNsr9txGJ0VreF7gxeRA9amZ634Yh/dK/ECziGTfvsf13t52vb+f3iKpYsnNLRR33fUJ9eCd+v3v//OL+/b9qiIoKIyM75TA2BswzoAMiFHHU2rCjHpzlRCB5Tn6Ti6PjY0yuCysVDkFSsVElfBgNDZWifr6MwYwmJ4PUyVsQH3BRgoOr85DNhspr4vpiZkPMmp/ElZkKpUqY++yVJyDTPFZnpOMr5HxMUrRlCTXSYVHZnJyjNerVHlnhof7RW+vm6/7woVyUVV1lL0zBIP020kMSviuDdp1NaVgW4E2FzxXgh5MHIsgvQXSsCiYMYwMGxLjTVsBDBsWZVzoO2wvy5BMraMDA2YU0GCEYCxjPb2TM8zQHtnwMZDQn/wny7FKLkmVYFuUMXgkrYqyRAABQw+DNjU29Y6NTnNV869Gekf+urOx83RbdZvHEeMQiHlBUxHS8PBwQI0tJTtlAm/u6lwAMHwu03IkYXw3NT7lQaAzPdMeAiCRvzw/BL2p6Bg2OlcOKmaIkcZbpgQzuCeACQTp4n6EO8KJzwmOSBU0MThZYWY+2NCz5M0nyrvBuUHE56yNcER8Kio2ykZQIT0yqmmR7jcCmY11EnQsADExNMFNUbj33sffe/vkAo4zfx2Eyxkp75sUPc/OHT53ibcDgAsx8oNTdUw+F8AN8obOh6HGAuRodrI77FfsuaVja+xRCglhKEU8l1+ujviB5hqVHTsWHuhpYKBHR7ApvAaAiNWrb7Jud2rfvsdu+4u/uOunp08fONnd3U5GFc0mEmiUOBxoOonzggNX8Kg/2G0vKxNoYGCAR0KLbG56I4XXCIHDr732BzL0fXSOOLapciRdFYwrIcMEG1Ra6lygqEjl+dGmhmIZla2scOdDkhVelM7/XkKNhBmp8tykN8YKLkrxGUHAY6z47BsUjIDgfr5e9ATr7+9gLw26uaMCRXDx9SBhEWElYeFhXDGr5iUrzHiNmVIrxJDyZ8OosNI2+B1ghpub6M8KNIAZ/GE9bc3NTVbvDIulrEL5s/yPU+93qoxzeaIyTuWIgdcw2Fw+ABAEDiizMDgED1fkLbr1QmtlXUXd/V3NXb9srGzEAHMiZ0OOLS45zhadHG0Liwqz5azNmZwYm/DQubDOzs16yPB5cD4MNKT0PY+cjKkCGtoaRExyTOjY4FiokafsmeGM4WymhEBCBb+imYrvVTCVR3voFGBGBUh7oQbPB/JDwYwl5fVGfjH4Ib88s+vsMfb1AFy+91BAlXH/FdBy2VD3msABwdNjI2NALi4XfK9wb4z7pT5zKv/zrlPlRpU1jF3jrnfrVUeqfO4VfeuFGK+qz0ZZVECDffEynR9ABzFh2A7lYPOOzVcEajDlAp4beCBxT3Ev/XJ1xA8014gAYIqKXK73v7+45IEHPudJSHCWP/popefRR8+W/+xn50qgP//5edfGjdtFT08rG1JABBl+eGh8HryamvIvfeUr27/4i1/s+ml19bGTLS0XZKVhqMMRLTZsuFOsW3cHLUcZ66VLWSoqEIabOTzc/LAztKgU8GJCjPlZLsOYHz68Wxw48FvR0HCWYUHGpsj4FAU2clmChXE8UnkOEmYAIahMZYWrVMGK+u7Sz9b1vgCDdXKZe43wsgIunB88NuhNJgFGgYvq2YQeTSbIoOkPHhoEDMNrhmWMWYNxaKKiErjiTEnJvGJveu+V5G7JLYmMjtQQe8GeGdJLYEYZG0qV0eBlZVBIrd9haH78lr0zARJm0NQEoFEwQ6XJOAMp+Ex74mUqJd64GagyetaUl/GHbQyYYTVABooyoKCBm3QIGPCGTuXjisY4NJ1r+tr44Ph9Ledbzgz3DYs4JwFNUrQtNiHWlpaXNgsvzdTkFEYN9tCxATbec5qdmmXvzPjYuAewheH8pyOmRUxKTCjlJcMMN7lRSvnJg/wBZjglRXMTjPXs5CyainTs9xKgwTQMCmzme2iUGvmH7whw0YQmvR2BgTzWDO4n4mW80GGUC26GQlmBh4aAjssDlQOI9Z4pVZ+9qSG8X4viPI89e0wnsPMBGoIpjcsZbWMtf1inUj4vA2qg3CQEWKcUkGbA7RV5dhErBK9maHCo30NzlcW3xvDLuyb/9m/Pa/fe+2dFO3Z8xrV27dbdfX0dLoKBoqCgYA1NOrff/sccqxEcHOoMDg7R6C1Lw/dxcSlaU9N5MgT0gIRS9R8eSXByl37o0NPz3yg76utPP7dv3y8r4HlISVliS01dmhoREc2j2fIDTUYFUxrAYwNDjxmOg4PDbWq2bEy10NpaG4ReVdjeZpktW35GSpUYp3JZagBDDc4Pxh6eDqwPDpbjtlCdgv+N1FdQ4SixVnJQVKZmqlR9b/1sVr4m2BiV9QLeGZUqqDFT2d0bgKM8NqaXBr2bRr2eGTRVIWg4LCyczwGjEEdGRtM+ZpyFhfeVHTu2Z1H2aEBTU2RMZEl0fLQMArZAjQr+VcrGDUYLTUnGWy8bNRgglA9KsR7bwiuD36ObNv6sXhk0M9GvjTMwhe6swGST+MNUB5MzuDe4V7iXhgG2lBGvzjPMynCz0RqX3goAA+aUAiwM9w/rF45duOJjhPS6e7so386017YXUB4k527MxSslN79Qvs71tPQEksGT/ZLUc0D2nMCNW4k99B+ABYCSHJ9smwuYC+xs7hylfJUD2lF+cqyMzF/ADHtlkO89rT1oAvvq6VdOfz0hPcFJ67SwcDlNgFfUo0cpjo8/tcyeHoAs3V/0kuq42DFFy3N0P7k3E4AG+8K5GCqbnVBPcAiwjcsFXXvgYPegGRAMCAJgSCAzFce3rqfP3GxjQAfKYWtVqzjw2wPF/e5+n2crKStpJ23nBDzh93htt+5TpdgPzgnlBZ4ZbkrFdVKKfO9p7ynraux6x566ddvWFaWvSNdy0nNEq7tVtF1sKzuz/8wV8QD6xVf8Hpp3Wf7xH58p+c53XigncCgPC4soobd5V1dXCzcfofszUgAHwQfDCpovpGJZDuy2fv2dAlAzONjLUEKVhutb33qu5JFHziz0RnHq+PHnvvSjH33lix0dDV+Mi0s+iePIQFcZ9Ipu2RhELjl5qUCga0JCqoiPT6F9h4j09LwZNkYEJGygGFiUR8b0ysjzUNuo74K4yQWeC/SGqqo67D2mOj4U4CA9I1IBGNIwSZWGCTCi0oX09beT3hkTZkyAUSqPjWWZqs9IVXMUgGZUYOyZ0dFBo4mpi9ejlxdGCQbcSUXFKZcp+xatl4aMUgnexBlgEDMDaCEoMYyXqVxGpLLRUMr5YPlMysYOYEPlg/bqbW5SHpqFYEYJ3VnzD+VDNSeRqjd672cS6/esxmcr2CAF3ABqpsam0GvmqhkbNEFVHam6/5UnX/nvvT/ZK7ITs0VMQozIWZczd9sf3zZGb+8Yf8YzN03XZwEwDJI3OTrJY+sAvBrqG4R2kxYSkxQTosbjoXuEnlA2dO1mrwwp9lN/uv5M/cn6+ysPVD6Oc4A3Bs1OkxOTMg8syk1M8NDgMyDRsoyUm+vonPCcEzB5B/LDPeWYHTz/uL9cDxjlgb4f7R/laQYAjBBVJqz3ZP49sn7mfVnKmd1uF6cOnNLrK8zZviE5G3I0Kls8SjAdwQtk3jJIKUAKAMPlmIAbTVcMSZSPCtiRn8inKyHuBjePNC2mhEhJSEEclfGNX660+IHmXZJvfvNJ7R//8Q/lBCUuuz1Kw9s7FMYSRhKjzgIsoHl5mxhcTJXTDchxYMLZcwLBuCj4PUGD1tPT4goKCih/5JGTpPqCYPODH3z5Z1/84q1ffPbZn3+xra3uJOJdYIwVYExOTtjgjZBGfdoGY97X10oVCConqSbESFVNTeo767ZynUzVcWpqKkR7ez2OxaoCb9U5IFXLePO+FFKQLqQSXBS8cAVswMv8z/KNXkGNCVK+ECNTeT7meaoAYQANvE+AL3TTxijKEl6kYmRhtUxQtiiBZsWmFSUR0REauslyE4aKm1EGy2Jg1DIDCz57oc6ixndcdqhM4O0Yf1agwd/lhO4yz92k/tjgW6GGiUZCDae0XqVWtYIClJt2EFcyTjBDBndqeOqqd6mtLa/92vmj5+/76fd+eibFnmKLS4oTSwqWzNqj7NMEV56Z2RkJNrNzHoIIboKampjyjA2PecYGx0RfZ59noH1AbNy+MZYMdEhQWJAcTTiEwCY8mMED451cOH7hqyfKTuxoqGyoNA6NZ6EUwc9o+gDIqXyw6nyQ4XXINzxrlHoCPN64HPbEoEmJ7qtqcmJ4IJAZHhjmHlH97n4xOjCK+a/k/SHQ4HthPL8KXFixrD4by97yRfvEvgc7BgVh2iX3CZ5seKagCmCUYswbNe6NVXHu2B4AqGAG6wgGrwjYYsyj4d5hMTQ+JNJj0zFZ56J9wbnWxQ80V1m+/OUfal/72s/LbbbgcoAMmmLU/EDwuABmMGidnBNJTiWQlJTBb8M8LgeBDiajDA+3G2Aj4ebWW/9IdHU1cxAuBL89deoVGFqN3pPKf/SjEyU//OHRBcHmySf/5Wff+MaHbrXZQm/t6Wl7FOPJ4DympzF8P2ACBn3ag9SDmstrqCWcvJEqiDF/Y/4WMICRd2tqdAYCCQmqhxG6S8su0wpqcA4KVKS3Ri5fTlEBy+X5wb9WvdQLMx9m5DlYgUuCDAKEFcwAiJzOHIFmPHmNMOIBIjo6kUccVvlGFfKi67qNsTPsDrsLzQuqaUkZLWUE+JqV8TIMGOeB+jxPATnYnvcBtZEBsXho8Pd6QndNEIby36wH99hiDJUBtEANVH0P8FHbQ5WRhsKoc7MTGfiJsYlSd7P7XWkOqDxQWVl9vPqrP/zWD88QqNjS49PFDteOsZjEGOKZWYYapFDADc4VMEOQ4BnpHxFnzp7xpKakhqTnpkcozwJGRUacTuWhyq9eOHzB65WxCrwa0zPTOgAO1+6NpVFxNG+g8SEYbDMkkABAxuugbNANZugwwAPj4bRcaOGmLkzmyU1fVGYAFhAqEeY9I73kPhowo9YDgNjbgj/aR1drl+BRgecJnYYLYOItl4AZ+vOOYIy6yVoGqSwzqFuaSnE9s1OzevWx6itSDkb7R/XOpk7RPdotEiMS4R3yA81VEn8MzVUUwExAQEi5wxHjxNw/KmAUTUiAEkBIS0s1N13A+Kk3iS1b7qdKQYIAPXOUorsiUgToosIIZCPa2lrHTTnYDkAEQ46xYGQTSIoGz8D9939G37PnJwvGb+zb9/OOAwd++9zISP9zubmFJy9erEwhGEpFLyIABhl1G4EVAQ08y2qQKnleUHXOahnnZ64zl81t5DIUUNHf38lggLzAfmXlpYwUUkCMNFxcqZFgvbfi42Wl8jO2VXADVYAjQQap9MpYVYGTghkJVgqqADNYlvEzCAaWnpkZkZWVT/chhs8LVlSeIuJn0lgVQAF81qy53a3rL74rhvJKSEJGwu7oxGhnRBSVVcQXkLFksDE8Naj02QAYhgCf1RuvUq+BMxTrGNSDCWEA6wHmIHqyo7adjc/lhFBSjNAf3QUxPjvOk1DCGJPh9zaFcFkxDKTVo8BqeB3QDANDDkOLZiaAzOjAKI9DM9o3WjzYM/iuxTv1tvZ2XTx18VcEUkmONMea5euXe2JSY2Y6GzoDRwZH5Asn7DkeGgPU6NxlNnmEbXR01LZpy6aQc/q5icazjb90X3B/7eTLJ/+D9ls5OjTqM8KxVeKS4wAYRRxnQveGd2hkPQ41X/h+4x7T/XY4HAxOU5NTM3RPOX6GgZX2M9wzbOtq6eIRi5Hn+A6/oe/YozM+Om6bGJ4IwHxLKFNeT56CDxybrlotK/UOFUBlEF6WxtON4uXHX/YZhZsg3EXbuNCkpOAJZRfXBS8j10GGh4evGcckxXVx2Ua5JkWczmDfYNmFYxd4oL53KpRXempO6s6sNVkiLyNP1LTXOGOdsWVVh6r8IwVfYfF7aK6SfP7z3yMKDySYiRUSZiTIwMtiwgEeOpXKBxezP8vvAC8SZMheeJfpK9oOaYBYuXKL1+MBrwEACU1UGJ7/4MHfiebmC1p19Ynyv/7rn5Z/73sHL/tWcObMgZO7dj306H//9z/dWlZWesvc3NQXybj/dHR0qAIGno43i1rBBBScnwKbywOOua25PF8BCfX1p42YoG7+LD0hUBmIa3pJJhlKTFCBwZKfTWgx1dq0JFPlfTHhxfp5fvMSFMeH9wo9m5DH8IhhX0uXFlDFTkbBWxGb12jNG/WZvls0b2XwzoRHhGswBkZvGQkohofGe7/neWSsyzIvfJV/p+CG9kN75j94afBH3xhncKnQ3RV0h/iPPTXe5kgJMApyxRzZecsbvneZ1Ao5ABvsw8c7Mz5R2lzd/J5A5/5f7f/aibIT95987qTI35g/e9eH7xol4yybn0inJ6fnuDzTeaM3FJowhvuGPR1NHZ7Gtkax9SNbW279o1ufvFBxwdu09HqC5hRcN5rakAcMhoanxrqsFNughw7STnoRccY52UODMoHxrob6hwQG+Ots7uSmO9xvBTMoO95yQ8+Dulfee2K5L1DAqfpO3TvAHIQ+iSR7kohIjPBpbkLsDJXHEniqGJwJfjDPGGbzxsjKqtypsqdSbKtgTZVzlF+C2ytaDga6B3RA89zEnFiWsUwkpSX5vTRXQchE+uVKy8MPf1MLDQ0pR7MDeiqpWarhRVExKMrodXY2kZHsNir9AA7IzcxcTttIkKFNeJm+ZoWg3oZi3xip9/z542Rs5fxCaJLCHERxcQjqRW+HUDLAs87e3nbXli07dt5yywM7b731Aztvv/1DOzMz83bGx6fuTEzM2FlYeI8zJ2dtUXx8cmFbW0N6c/P5wJGRgeeams7uDQuL6oiKitXYYLHhVqrgRRktqjC8xsy6fqHPvooeQ2NjgwwLxjnTNRrGx4AX6a3Belm7qQpQ6kKAgxRQI2HHGjNjAo1q2jKbuQAySBVYyUDgIb5POLam3S0QWG3D3IR8LlJlRY1xfmJFYmK6cVwJUwA1XX/xqsdmXAlJzEzcHRkXyd4ZvO0CatTbsdc7owwADJbhpVEpgw8ACAZMGRJah++UhwZzD6m4GeWlAdRcTtCzaYj+4KWBhwYBrVN8HwlsyBh6y4jFSKp1VsMMLw0bZwTFyiYmHh14qG9IH+0Z3dXf5dtj5t2UCycudA2PD7/YdqFNNNU0zY0MjMRPDE0EUqkiCqANSGkZtYCNr2tqlmfHRJxKbGqsk65jw9TUlO6ud7/hNeA6oxOi4aFx4r5B6EnEf97UKnhG1T2HwQ+KCRKdjZ2zmDKir71PDHUP2ZDfiKfB94AZlBWjHHibowZ7BjHPVAA3ZVKZssIvYIcPbXxWx0U5snpoMDnp4b2H9XOHznk9KAlpCbtpn87I2EgOuoUXB54Wr0fGqKc4xTGxjs4HKfaJfeN8sQwgqzpUVdbn7rtiUIOB+tJz07WY9BiRn5gvqjuqnQefPLgo6oPFJH6gucLy4INf0ghgSgg0nNHR8dzMBOMHr4yEGRk4K9MAUV19go2meoATE1NEVtZyhhmADJQ2Y8UmMJhQzHMHA4pjAF7Onj3EBhcxN+pYgCjM+4SYHPRiSk9fLjIycmn/eaKtrY6Ph6YRfBcZGavRvkgTNYIcLSVliZaQ4CxKTc0uouvR4P3xVgiUSvVdnt/MZP3u0nXzFaP/Tnu7QavjAQYk2AAOrMCCAfkURPiCDFQaMxNmZFOTNXbGF2LMZeWVkSCDiT3hmenr6yTQzOOAbSUSZnjJWJYpQBMjBeM8pHdoGsDmrKh48Yp3Bb7Swt6ZyPCdiDlA11rVVRaqKn2l3rdvqIIaGDAyFAj6ZQ8OlqkQs9I2ABqGGsvYM+qP9mqcha/AaANm0NwEoBmfGech5NFlmyFFvd0bKd7wFcww7CigMWJEvOPNEMxgzBmMNkuGtoyA4j03MF0NXV3Vx6pfrNVrH++42PEdMqrfioiLSLZ5bBu4jKGYwQtFy3xt07M2XNNQz5CwR9udfR19/yshPaHszUANBnyj57mIIQUP4Dyhp5IBg4WO64VYuseJyYmi/KVyz2DnIBVznjvKxjBD+wHMII4F29L9lzBD9UZbQxsGwvspLRdyz6JwAhraHiDDkEHL6jysy/g9w4xR/lCOzhw8U1pbXsvAocpsanaqiEuN42YmbMfHNY6tUt4vYAbLlPI1AdgtTU4DnQPi0G8PPcAHv0ISEh7ipmO44pfHi9XO1WJgesAZsyTGffql04umGXoxyOV9vH55y7J9+8e0gIDQEsCBGodFNjdIGJEPqPWhDfB6Z9R6eGgUzCClup8Vy/QMssqfe0RPT7s4dmyvGBrqEx/60JdEbq7GMIAmnNbWGg4a7utz0zG6eD26eWPbU6de5TgQCVYwMIhpCGPvDgKVce4wyuipAw8QoAgVAM4RwpWCj8qKQl3DfJW/ez2FYFtUOjJwuKGhElMI6AQWOpp74MEBYECV5wTgAUCRwGKqggh20VtAxgoulzYtyaBfHEceTw6eh3zD92vX3s5A6Htt80FNfVaVp7wepPAuLQqxiRIYBG/cjDIkhiFTygZCXe88YwQBhCjBMv/NSdDgph4V3Et/hB38dznhmBlj7Bk0Ocn7agCLodw0QUaePTSIqcJnLJPRt8bXIOUmFTSzkLKXZnRCn526sgPpXUlpqmz60tz03C3Tk9NoJuImKAy2R5894yPjnqHuIcze7Ll4+qJIzky22R3240vWLvmh8fPLyvTE9DECu1k0PVnzxKtG0xOUIdBoosIy7nlMXAwVcwz6y8LrqGzILuOyjHh7PPW6eyvaatq2EHz9BPcO+4C3jO/LfDXuk1q23lu+p/QHKFZCsF1CECcccQ5vOWVQmb9sADiXXUMZYozvkAJshvuGr3hZwIjGDWcbdPdFt6gbrBMbcjaIRGfidTPP27Uifg/NFZT8/Jt3JiY6i9DkAygAJChvCbviLaPpwtAp443YEa4QSCMjHWLp0mU+MAO4geAFjeoC0dHRIioqXiHdT5W79DigyQkQsmzZevn2NicNqK6/KNrbG7irNCCnufm8aGqqYqDB+DCYKRq/hfFW4KDiVrBfAIIKuoW9koYa5ypTCSKmSvFdh9Wvp/S/kcprVOvc7ovO7373zx+4886H8DaumR4Xq/dFAov0zKCZAbEVWG/2csL3pldGxsrM702lPDLSK2M2MeH3AEVAnTw/GGpZwSJdaB0G2EOTkzwPCVPwPJ069co17aHBm25YRNhOuO3R3IRmAQRTqjdjqPLEWI0CFOWawWZ+Tye6md5yoe6xkVdzwXS/DKDBOtqSKiTaj/EHAcDAMzNMf+ydmUNcFd0zxHOQob3EAFqUvTIoIwt4ZzCmC7wzg92DYnxgfFflwcorEgB6taSvs6+D/h6NSohyz87NphCkpVAeyqYndX1THOtii0+LR3OPZo+07wiLCvOER4Wvi46KRl6nbLx3470ZKzM+lZmf+fV4Z/zXo5Oi5wa6B0JgyJHnuA9esS7S/cJ9VpAAaHEkOETLhRaP8r7Rd9zM5PXUAXaoDHQ2dVbUHq/9QsOZhpMYBI/ODwPfMTSjrOBWe8uJWuYF/KM/KlNe8KD9IqC4Vq91Vx+rLlu7bW15bEqsRspjyPBxg6hM0n5Z6ZxVWVSfkeIYOG9VtpWHBuWh6nhVcU9zzxVveoyKjtJDIkJc0dnRYq1zreic7nSu2bam7NDvDvmDg6+Q+IHmCsn27Q9r0dFxJYmJGRwzY8IMPSh4wAli8ADJQekANRJo0GXaBJoAkZSULHJyJNCEhtLbR4gJNC0tTeLw4ZfE0aMvspFEUCrASfWcgncFx8Q5oAdOdvYajvdYvfpmsWLFBv6cmZlP+1/LQa1oQpmdnSs9e/a10qGhvrKRkZ4yghxWghsnms2WLUuhc+wUbW317LFRIGNVKUjVOrlGilx/qZoit5//Ow9fV0ZGvv6f//mlXXfe+dEygg+NAMNpwoqEGVPRxVsCjYKa+TAjIcaEGfReUt4f5Z0B5PX1dfCs5cgrNN3h3JhXcGaXpFiQRhoqgUY2OeEcAIi4x2fOHLimgSbOGbfbEe/gOATEIMBAYEwO1XxgMVRew6DUazQU6OKf7w1FFnH+MICQoncSAnwxe/O4bVyM2aQnhr0w9AePjIqZ8cbO8D3DfZTNTQy3ABhjn6yAGQN8eRtl8EnhZcDgeWhuwpgzQ71Devnecp/eMteyDHQOnKR7U8Fep5m5dVhH12xD05O6fiwnOBNsYZFhqTOTM++n67+ffvNny7Xln46Ijbjf7rBviIyJdBIYBNBn0dfWR7UN3T4Yf/qT5dkQY5Hns6V/KjAceZq3Ks/W2tCKCTQ9VDYkzAA60OREiu2bqpoq6ivqv9Ba03pS7kmI+PR4JwEEj2/ETZNGeYHK+gMf8NFcD+CAVwb7z6D6raWtRQ8JCXHbo+07ATN0TRK0UD7nl00Dsr2fUVbpGNiXAhneP8FNnV6nnyg7cVWeU8Qt0XkWJWYlOiNSIsSmjE2irqvOtWrrqrJju4/5oeYKiB9orpCsWrVlZ1JSJg+Yh5gZGQCsYEamagRd5Z2B+gYFCwKaFLFsWQ6DTFiY9NDQMyiOHDksjh8/Jrq7uw2QiSZwkiMHy95Tsis4YmjQhIRKB54VAIislcxKSlUYqLcIwrT8/E3O3Fyt9Gc/21nW1HReb2w8p99xx4cx1k3Rxz9+N+17pejt7Sz2eGadVCE4FdSgcpAiz93YLQkWlF5OfL83fyvPC+eLinVwsMtZU6OXvvTS4+6XX/5N6datH3ITpDihABTAigSW+csyGBfpwjCDJiYAjIqVAcgMiaGhfpGSEkfAt4HARHplpMg8VHW9mar1ZgqgwYjLABocC96e/v5uQeB4zQINeolEREXshNueh6WPDGPvDFf6VNHDSNCbvIDLvKu5S7TVtImLpy6KhrMNoqupSx8dHC3r7+zXBzoGdARTopfIudfOaQCI8Cg5mBnyBqoABEYRYDJF92xibkKMe8bFsG2Y42UG6K/f1s/psGdYjHnGxNQswQjdRwANvDMMMwbAKFWA4wMzpNx0MsWzVrNnZnx4XAx0DWB27QfaatsWlTEZ7hvuGOwZfI7u07N0rRijZj1dPV8n58MMhl2Y4pm9o+KjbAQ/AVOTUzbKg4CYpBgbwQ1PlRASFmIjYLXRPfe4691BuM/eR5KKM5dpSzkHRDEUAHwICuxhdhGdEm3rbOqcMzx3HEeDe41g4eoj1RXNNc1f6Gzo9MIMJDY5FnE7GqbSwL5wTMAL/pTwsrEex1bQgePkxOWIqvNVoqetZydiZgDg+B51ng/QIDWWFXAzdNNn7EfBDCuVc4zCXHmgchft96rFtUSlROnjA+OuiLQIzMUlCrIKROdIp7ZkzRK9Yl+FH2reofiB5goIvDMEGQgEZqjAnEUIarXCjOmhkd4ZuRxAQNPIw+dLyKAHjpL169eydwba1tYkSkt/Kqqqauh7DPkNb4wEGanmKMIYZRjHVXMxYVkeiyex5MpfCSoJC0Q46bN2111/Iggc+GFes2ara+XKQi07O0bU1vaL/ft/XSYHi7NpEr4kzEi44UVDfD68RcFvZQ3KlSkJ5Z/z9OlX0RzAD/v+/U/qBFq68rBQSmBjBRZex6mcJVs2oclRidGUhmVAjJpocphAZpCb3zIyEsV3v/sPori4WNTVddI6OUw7zsk4HRJfeJHrfdcBaBISZC8nNGWNjJBZHuiie3j0mgUaMnS7SZ0qGBgpJlHsbunmEWdrTtSIxspG0dfRxxU/gABggB5C/e5+p7vWXfzcT54rPfHcibLjzx7HG2fZ2YNndx15+kjZkd8fAeSU0du6GzA03D/sxFv1LHuwpOeEwQbD+9O9G6d7NDozKkanSaekjiNQm+OccH8Bq4bxBrzAI2csw5izYUdq7JthBnEgqmeTMWcTwKt8b/k17TV7PQHYDPUMPRcUHvQsmWSdnu9Uus4UNDvh2nGtaDYko29DuaR8sYWGhtoS0hLQ3Zqhhgy5zR5t97TXtgfge9QXXqEiLcs4qbe8y6YnbIf7tHzVcpu7yY3YFg9BAj/8Xa1dFT0Xez54+sDpfxgbHOvgfVkEPbIIPIpUExHL61UbdB4ADgUeodGhoq2lzYlxhNAlG0G9XM/Rvi4BGiNVIKMU8MYKSKLfoAmsta5VP/jUwavqrUNTFoGhm66lKCAqQGSmZork1GRnz1CPlrY8TSeg8kPNOxA/0FwByc/fsjMhIVUDXKCpCd4ZuEcBMxJkkEqwkJ4Z00sDTwHGjZGQYKO3+VFxxx03E6jIWJmnnnqGgGeMPTIKZEyAkXM/yVTCjASZSxXb43gw9lxDsKiUQQpQU7Rt20eK7rjjIZ0gQMvPX6ulpTnIELeJ3//+B2VLlxa46RyLzK7Z/DtOTXm9mmm+qOObgl2h0pTi4bwLD4/Qm5vNUTsPHPid++DB35eRlm7atN1NsOKkfITS9ckgX+V1wbxLgBak8JQALgAvCI6GZwxNS2lpCeI739klPv/5PyMQSaB9oMeVEBcuNBhHhMjKXIm5iPUqlapiaHAuOPbw8AAZ4pHSs2cPX5NxGpl5mVpETMTO6KRo7vmCsTsazjRgRFl0Z+Z4ExgFboJCM4FhPJShgNB1a/SmvlAwpeL0yEQAANJmSURBVJsMq07706uPVpedfPFk6eHfHy4LiwjTm841Ofs7+53oGo5mLeVJUXDDOmmkpCpuBoptGVwMkOEmGMCNAToMM8b+VICr8s4Awgho9OHu4WICrEVvQAANgz2DJwc6B34a4Yhwz8zMpJCxTwXMUd7zWDGAGHhkxkfHRdqKNJsj2sFjxJBR5/mflq5dOttW3RZAv6XHGQ817dgo41yu5+gD/UPe4nu+95RGhEeIiIQIjNviGewbZK/MxbMXv1B3ss7HK2MVeFUCbAEugAVgxLf+WFhQ3hhqSG1htP2YEKNUV6I7N5dFxM1A6bxQPpGqZYYZo6ziWAAjNKWq4QiwTwwUONQ19ED1seqrXh7gySQtik6Idk47psWKlBUiKjHKOR0wrRVsK9D9zU9vX/xA8w4FPZvs9ugSGDEJF2oaAxMmJNSYHhqlEnICREPDWdoTHmqpwcFz4he/+IV48cXXyLBSpcFxMvDGSIgxgQbHU94geRzzmFKVlwjHw+is+D2aZRB/Io8nRRljUgKbOdfgYBcBWrgYHe0j4BomsPr3shMn9pZu2HA3AQ2aneS5IvWtkKzLrydeImChQ+N/XkYqz0UuE3y4L15cOGjzyJEy/ejRPaX33vvpIjoNJzwhgBkJMAAZBDxLkAHEIJYFIxSjG3ZSUoL4x3/8J/GFL3xGJCcn0HXIoGsADdlPUVGB+yLPSZ4LRJ6b9RzNc0Xw9JzIyFjBzYHwzuAcEBA8PT1aXFl55JqsqGJSYnbGp8ZrcSlxYnJkEuOhcHMMxxUgbgHufDIarAbMKCPivf+U96k5qW+quzCJ+9yhc/qZV86UHis7VtZY2ahjdF7sm8DDCSPFwIK4FwNcrIqRfhdaD2XAMbw0/Ht4aIxeO/BYwHDB80QGeNepl09d04HAb0eGeodODnYP/jQsMqydoK59enx6A8cNkRKo2tDktGHrBltYFL14hQWjRxTiT2z2KLstLi1OdDd32ybHJ3FX5X01yj2VcJ/eRuzpoLoLXrP0Fem2ky+d1OtP1X+g5njNgl4ZqyAwODYltojKj5MBRR6Nj3E5QdlgoIGXhkAkLjBOdPR0cNORrEfNsqlgRqk1UB3fA2aUdwb7xDVROdRffOzdG1ZhqGeodLh3uMiR4HBORU6JLGeWSM9Md45MjLiWrFnirNhXcd2VzXdD/EDzDmXFio07Y2KSLN4ZEzB8YUYBjW8MDWJuzp07SntCBQJjOiFOnjxJ6RyBTIwRJ4N9y/gYBTQKZmS8zELHknBjHlcqDBSgC14MxJfIHkxkBOaQygoL1RcCcoeGBkVzcxcD14kTz/O4DAQ0aHIilcZMAYxcni9q3eUrKgkC5vcmHBiVJymApKam4rJdKf/u754qJ+jD+Dli6dJVfA/gIcG1Y5A7xMJgvB70VMI2mzffI/7qr/5F7NjxIZGQkMjHgwJm4JkB0ISERNIxLxIIjdIRcEIqb+S2Zmp8MLaZo8oe4wKFhkYYzVoMVfpjj/3jNdu04cx27szIz3CiKamluoUhgA2HoTAaDMYGyPgYDTIUuM24/5Q/mrvOfdn7dBlxI2ah6rWqsgNPHiitLq8u623rRTdfGGEnYnqssKKW58OO8tqwR8aiCmjgncH18cSOHX14C140gcBvR0b6Rk4Odg0+GxgaWGabs1WMDo6mEuikwkMTGx5rW5a7zBaXESdCIkIANQggthHQeuLT4j2djZ0Y/I4fXir1/AfgoISfAQAjPqJeQQrP3YrCFR1n9p/ZQ/fyTUE7AY1O+3NxWaIy5D2GRbDOWJAwYgSn47i2aJtor2vnGbIB1tZyyfXdPJiB4nvrAH0o21im/ej683rxSP/Iu/rC0efuKx0dGi2i/HdOBk4KR5RD5GXnidC4UG3F5hVFyzcs10/vP+331rwF8QPNO5Bt2x7UQkPtJQjSBWTAkKrmJtNLArBQAcESKpTiM3RqaoyDRqFoBkGcjPLKWL0xGCdGgYz0BF0eZkzFsXAOOJZch3PEOcNTgzgSCTOmynE+zN5CMMgVFS+zodqw4S432S4Xv1UZQGOm2OL1RcEA11IWUbAg18tlrIOOjQ07q6sX7nnw13/9s5LQ0NAilUe4toQEJ4FLmliyJJ8BJydnDffyys/fJAoKbqF1K+mX8mRxWCjCi6AAGgU1bneX6Ozs5OtSpyfPU56XTOU6lSLfEGsE+JRd4Ydp/fQD5eUvXZMVE4KBY5Njd6YsTeFgX7zJwxCoCt8LM+pNmMuRYTBgKJSXBu58YXOmLE9xt9e2v+2gSjLC7try2rJTL54qPfg/B8uazjTpwfZgNzxHs7OziL2Q4EI3aSFwUYp4GR58b0J207bADOZteuBNepIWvcBbMtA1UNHf0f8TMt57psamKi6cuZCiv6an0joRH0SgPxktguaCxHTgtC0+OR5TQHioLNgoH/khwZ31Cso5/XmbnujFBmUmOSvZWX+yXmuraXtTQAsvDUYqpnLlRFm6nOBY+IdT4GZ8KofYPjMpU1ysu8hdv73lkVRBDQOMpZxivRqCAKq8PRiQ8NXfvLqr4UzDe+IR6W7uLu1q7Cqi8uwMCCewC/WIZZnLEGztFKFCyy3MFeV7y/2D771J8QPNO5BVq24uioiILkJciwINGZDr66FRMCOX6SHzAo1c39fXzmPKACbgUQDQqFm1TZhBGsoqoUk2a5nNSr5qBSj5PYaetxmK5QA6Vgwfb3R0mD02EmbkoHRQgA5SMs670LSDa66oeMmtaXcXUQ3jlBCjlLOExFL5eQU10qUioUCJhAKVWr9D7JDb3egeGfGdX+Xzn/83jfKmRMUVmcHQcq4s5UXyVfwSFag8T3ksU61Qg/2eO4dmJynqlKypCTPIKwmCmGNLxvAM01azhd///l9esxVSSlbKzsyVmRqMP8EEXQhVClT5s3cGlT7eiAExSi1GgpWWVWwCi0cUpeWnlbVVX5GeQwgi1sufKy879NtDpV0NXWXRidF6V1OXc3RwlGNvGF4QWzMPZhhk0NRCMDM2MoYZj9FtFusKj+0+dkMaCHggFNzMzs2Wtda06qePnd5z9MjRPScOn9hz6pVTe86+dnZPR0vHnvHB8TLKVyc9JoitM/ZAgrJOfypOCfcd36MbPJUHZ7gj3I1B5IytX1fiEuN02pcLZQ2Po299QIJjGeuQoizyyyKl9mQ7j+jL5ZHqMlaUS9L5ZRTlFp4cq3cGYAQI3v/4fv3kSyffU2/dYPdgKTxpfW192pxtzjkTPCMSUxJFcnqyMzQytGjttrVFG+7d4I+teRPiB5p3IDk5a0siIqKcaBKCdwbgoQyqUhMyFNDgIVNAI7ttHzr0B37jVIG/JshYYUYBE6BGxczgGGr/vmo9BiCG6gFWdAc3UxsdL4TnRhkeHiQDPEbnIbs88xswd3lGvI1n17Fje7wP0/r1dyEp8oUEi1FbQC6prFBb4X/vagkGar0UrMNnD87L3dJizn774INf1ihfSii/nPBkybyX+YLrtnYtV+elzlcKUvN8cRjlpUHTE9LQ0Ehx4sQx+o15HkjnL0tPFmBmlpsI4+OdlJcjtG6u8F//9X9d08ZzhbaiKDo5WkNcBCp6BAAz0CwEM6RcfucBDVTlLZTyRGutbn2rTU9vKAjgRawDvbGWNpxqaA1zhG2PTY71oIfK2NBYgBVk1CzaCALGpICDPYMwYIUHnjhwQ8LMfIHnBs1SAJze9t6K7ubuCgLFiva69gp3nbuip62noq+9rzQiJoJj5vAbWe6xIBPVk4zuOoMjylBkfCR6yr3p+aRoe3ThZs8b9qvidJTQJ3k8UpQ3Bdo5aTmio1OG6nDZRP2K8mmUR1VGsQ6eGZQRK8zgfF/+1csMM1Ru3nNQ6GrsclMZ1inPNXrfcs7aZhnAUtJTRGJ6ImIWXStvWVm0+vbV/u7dryN+oHmbcuutD2p2e8ROOYieBA7lNZGK5iArZMiHzgSNIHH8+PPi97//LzICgeyV8e2CDVUeGdWUpTwzct+vBzPqWPDM0CJtK0EGXcHDw301MjJUpKWl0TaBore3n70LciwX7g6t/9d/fcmnuaei4iV9w4a7ADQcHAy1wsGlgkrKWGSRH+Q6o7bC/96NTFiQOicmJ0f1ujoziHP58vU74R0zY4yQRwvDjHmOgBr+n5c9Hl9PDSBGpYAa6OjoqOjp6fJuA5XLABnEHkmYQQoAjIlJ4ObC2dnpwn/6p09e88ZzxcYVO6MTozk4E8GWCJjl5iUYCSgto5wpIyHLlTQW+AzvDOez4aVhFTZn2oo0Z0t1y1Vx4z/4lQfX3fHxO76u3a0lL1+3fJYM6AwZx5nm8806Ga1nGWTGJpyAs9EhCTP9Hf2lh58+fMUh63oXAp7SMHuYMyAoQOMVeEYszyegBt4awCReghAPQp+1xsrGN5XXUUlROm3vAmioKsQbfOx92OTzhpKlgCYyIlKEJ4TzvVXNUN461iirqA9UzzwFM/g9gPeFx17gARUJ7K6ZZxQeNALK0j53n5MgU8MzNeuZ5QliUzJT0FPNaQu0uQpuL3Bmrsp0Vx2q8oPNPPEDzduUnJyCIjJc3Nwkg3XNsWeUp8AXNPCwIZXA86MffZmDbTH6ruyODZiRQCONM8aTMSHGVLnfS/evjiFBht9OaBkgA6VF+q0crC8iAjNCY1A9mULtdkxUGUsaLzo7u8TQ0AADDRnqXeXl+y556Nevv5MqODkmDWoiKyiYggpJVkqybrJ+NpeRqs+yIlPrVKAyVZjTk3p19XGvgVyxonCnwxHL3hkZWxRK5yANrQQaBTMqlXrpOUqowTGhVqiBNjU1eIFGijwfCTJIpWdGNtPNcNCx3R5duGvXRxaFJyB3U25JVEIUGwmMWYJYE1wXAw6pevtVRsIKMzKvjaBL+uzNZ8ANlY2MlRllzVXNV7TS3fJHW763/u71/7ny5pWpCckJoq+7T5x97aw4vud4Rc3xmi/u+fGen+jP66X0fdn0xDQP+DfQPeAuf27xjAZ8rclQ71BZTEpM2czUjAt31ip4PhHThEcZ3wFuqDw5Q+2hRR0NHW8INQnpCU76PWCJZ/2Wz6gUlEP5/OPhlMdSZXJkYkSgV5490o5xjRhWvGWUFD2ZQuzSM2Pt1YTmyX0/26effOEkgoCvyWd0oHOgbGJ0Ar3/tNGBUSfyAdUUpiMB2EQnRGuUD9qqW1YByvxQYxE/0LxNyc5e54qMjEZQMAOIBBrVDCRVgQaWASP4DlMdPPnkv/G4Gg5HDMdpmDCjPDGAGSj2q7w0gKTLeWak0cGyMjjyM+YrkTADqAHQKKiJijJHIkbzEzw1AJ24uHCRm5srBgf7qEIJ0vv7e0sRN2Nctlc07Q6sswQHU4XGCdU8XpXCFZLx2VtBGduozwpe8Ao4fx1SevvTz52T47hs2LANk3/uRK8l1UTHXgTDOyNTnJcVanB+OEGp6pxxyPmeGqWoR0ZHx0RLy0X+jtbSOqtnBiAj42akTut9fe4HSku/uihgJm15mitrdVaRI9YhK35SDFQ2PS7jp6yeGSiGqWeIUT1HkK+GZ0aVO5nfyGw6gEdo2fnZemNV4zuudJevXb7ulg/f8uQ9f3rP/SsKV4hwe7joaOoQ5c+XixPPnXj0wBMHHupu6fZ2F8YAZVWHq/S6ijq9rabtqniKbiRBEG9cYlzZzOwMwwc/q/QPws8oPRe471hGmYhPjXdGxkUWhUeF6/it3FKItdvWugg2tcT0RFfO2pydmNeJyiHGI+J9oIz5CD+L8lj4HuXKAGaBHlsJGQkiNihW9A/2M7QwzISHSM8MmpnCqC4OpTozJIibH/c+slfX9+rFgz2D1/QzCm9Nb3tv6fT0dJm7wa2ND4/L4Gm6fgIawJxzYmLCdVPRTf65oCziB5q3KdnZq3dHRsYYHhUYVOmVUSCjUuVZweeOjiaxb98vOAAXzRImzJhNVgpcsCxBBr+VzUy+IKMgRoIMUmlUlIcG6yXMQBXMAF4UwGC9Vejn/B28NUuX5iAexDk7GyCef/5xPDA+D01FxX732rXbeOwXfFaAIEUBiVSujXgdEYKRyu8uTa1vZabOiba2OtHYeI7f+JKSlhZFRcUWAWiQfyqv5XUrw6qMq2lk5TmqFGI9Z8yIfamnBlpbW8lbyPNTIKPiZmSskcczU/zMMz8urq1dPO3bsSmxWkZeBgb48hoBvAVicD2qTGV3WFWuADWWlPOTDIuau4mNjAE3nL/4Z7MhFkBrqmx6R00993/2/nXaDu37m+7ftD59uRyBubm6WZx69dTJlqqWjxDM/NzY1C9XURDzEhUbpSP/CS64Ccr7jBrNRHT32WMDb0tiWiKa/VyY8HSZtmwngSgmPi0iuChyxDk0NE9hig1AB6YvQOA2PDz8WKLKMETtn18k8D0Jyhq2wajP0ZlyMEjETzGY22VZZpghkIFnpqupSzz5r0/qR/5wpHBybHLRPKOAwfba9tKBzgF3X2cfmvOcAcEBPNdaSlYK5kNzpeelFzmXO/Xa8tobHmz8QPM2ZPPme10RETFF4eFRXhgxYUamEk6khwUwguDffft+yYOtIfgXhhgD18nfK3BRnhl6KA3AkSAjYWlhmDEBRhlzGTeDt2azuQkpVHloEEuD7xcSrAfYREXFiMzM5dqf/dlODfEkFRWv+rzVrFu3FZWa5uUDQ1AByRpJwois9F4vXWjZ+nkOM4U729svcixPWtpSTDVRhK7nyDsVHG3NBwky0tgqAwwxzxUL8gMdykjlOnxWihiaurpKWpbnMd8rMzc3rQcEeB743e9+sOi8APYYu7Zs7bKi2ORY6Z5H8GRoiLBH20VSRhJPb4BeQ1yuFNAgLxXIKIBRn5HXxlskr4d6bM6sdVlljaffnpfmY3/zsXXpK9MPFtxWkBqXHMc9lmrKa+CVOVmj13zp8O8OnzI29cu7IBgAcbB7sMwR4ygDuDDY0HMyh2fDiKfBs4tygxTDASCFd8S5zCmDdA1vIIBDNQVhuo3IuEhBxpu3UQJAMh5TLk+8/1lZP/BnghxMY+GMcYolOUtEa0srN0thf9gv9lV5oFI0nW8qfPmXL1+zY0G9kcCjRFCjt9W3aZS3Tlwf8jA+JR4jLzsDAwK15GXJevWRqz/S8bUslzFpfnk9IUOpATJUBW+sZQVwKPhQRhZTG+zd+xgPECe7ZJsxNxJQJAQpIALQIDUBZr6xRpOKCn7FORjGw0clmMxPFeDg8+sJtkETFDw5BDdacfHOkmef7S0/eFC+mUHi49P02FiMuWLnt2blvZBNMtL4q1R9b91OAoGvtwPLUs1xcKDwgpgir1v+RnYxR0Di/N9IVeehlq0q1wFU1DFlil5VGC3YI2pqzvD3qEDn/5a2LX7qqe8WPvXU9xdFE9N8wdstvDB4S0bgIRTjeqCixFxLm96/Say8eaVPl1ivh8YyYBl/RhkE2NAyBxIbMTh4QybsLt/+8HZvuXmzsvH+jesi4iIOEMzwBJc9HT3cxPTab197tOyHZbeffuG0H2beI2mubsbUFcXTE9OFBCulKEvoWYYYLExMCRhGgDnG/XHmOBHQyjFaqTmpIiouisuctVkIII2YGJQfBO0ClgAveB6t3hnAzOTEJB9jpH+Ej0GAJU6dOSXKT5SLjNwMbpLhMkl/6KJ/8HcHC5/61lOL8hm1CqCm4XRDYcULFcUv/fIlUVtRy0MRIAYu76Y8LS0nrcTY9IYVv4fmbUhmZv5OhyPG211YNROpWBjruq6uFvHCC7/gbrwY88VsXjK9MUqxvfTsQOVnqQpu4JFRqemdUWAj4UamAJL5qpqdlNKmrysTE1IxDQAMfHBwuHNqatq1cuVNRQ89hDiROXdUVIIrJWUJgY8Mzo2KipNvZBOjnEqvhgkEZor1C30vl33TOdHZ2ax3dsqmi9TU5ZjVnAOykU+mh0blgQQ/ACbgTqb4Dr9Wn6HqM8Rw0xiCcwEknT9/3OiCLaEIFSy8MnRuDzzxxL8u6tgMghNtuba8CEYG43QAPlgVjJBiRmC4tgEyMB7KKyPzmpYt3hml6jtkLa3hY816ZrWLpy6+6aYn53LnutTs1O+vvWNtakJ6guhp7xFVB6tOttS2fOTFn7/ob2K6RkR5bKJio8p4gMOZWQ3QAQ8NQ8nMHA9wCKO7ddtWkZObI2ZDZhlgwuz0YgeggSfFgOCY5BjR09rDv+Wyhj+jXFkFcDMzOcODKnL3cdoeINTX2SeS7EkiMT5RVB6vFPUn63mCVONn14UMdA3ogSGBZUM9Qxo9rzweEyAxIjrCGZ0UXXT24Nl31MS7mIXMnF/eihQU3OqKiIhy2e2y2QhNHoAU2VMpkj9LQJEel9/97vsCszljriezecmEGCigRXlp5DpfoIGBNr00KjUNt1RlSOSyFWRoNe1HQgxSKNahjkBK3MDAAngZHxdiclKIkRGp6jO+JxtPEiiczmXO0dEBV1dXs+jubtEAapGRcSIx0clTDqSlLRNLl67ma8WYLEgjI2PpOJh9GqCjIGah1Bdm8BkQ0d5+saynp5UrprS0HAyoV4Q8wXYADszhhGY9Oh8OvIZXDBNxYj3SkZFBPgdVL8oUFSV/9KbICwkuM9wLranpPJ+b6ppN56LPzQUUP/74Py36N77pyWk9a2XWzuy12WxUlGGBm94KNWivT85KFilLUhhqMIaHF1wMwJmv+I5ZhhSfSZxL1i4pejNQY0+0r8telf399Nz09Zl5mbyuYl+FqD9T/5EXH33R75W5BgVgQwa2zB5nLxOzQifIcBPIaIAOgAYmBMW4MbFRsWLlmpUiKSlJzIXNifCIcOmtiQjlJk80f8anxZujVqMckRhlyCt47gE1PPYQuoxjxGiqpABS3T3doqunS6TnpYub77m56N4P31u07NZl4ujuo4v+mVWC2JrR4VG9v71fc8Q5nBExMvYNcUmrbl+F2e5vyKYnP9C8RUlJWeoiA66prtaY80iOhWJ6ayTMhAgywOLUqVcYUNAFWkKLjI+RTUzK+yKBRUGMNZUemfneGRNmpAGRIKNgRqqEFaUAG4AMUlU3AFAAKvDAAGbGMIPtKL0BDAiGGXzGejX7NLaX6hGYZyojY4UGY3/hgs7QhiBdnAO8HTD+CJpGvFBcXCqBTYpITc0WS5asJF3FivXYBl2d5TZSAUVJSRmkmSI5OVOgWevw4af14eEBBhqnM0ejvCgC8Mjxcqa4grPmAfJFTU7Z39/FE1I2N1eL3t4OurZ+gjS6MBJApikKoiTQnD17yMc7Q1r8i198s7iy8sB1U1nk35TvXLpmKd70vAADoFEKzwx7AimF4VmyagnHRQz1DnETgyx/hs6HG/qshD8LmzN7Q3ZZfUX96+bf0pVLn8jRcjYg0NMeYxdtF9oEVdy3PVvyrB9mrnEZ6RmBx0Yf6BooG+gc2BXmCHNPTkxixnU0DTkvVF4Q58+cF+HB4SIpPYkhOYOe9bmQOfbWwNuApqekzCTR0dDBgyMyGCvBMr108AsPXn5IATOAbAYbAhp8RtNXd0u36O7sFrGJsc7cvNyiok8WFeXdlcddvetPv34ZXAwyNjjmDg0L1Uf6RzSMJRURHSFikmLESO8IepCV3YjzQPlir1/eUAoL7y6Pi3NqGD8GkxDCO2G3R3FsDEBFaW3tSaHr+/SJiXENxh4PIMAGEILfwbijp5NqYsJvpMcHgcJyH+o7s8nJVAk0Vg+NghwAj/TQKICBZ0b1boKq9QAdeCRmZyW0AGzgjUGKz1AFMdjO2kRkelRg6OcYaGpqKhgA4J3x1jyG4PqNJd6Xb4oFmQJIrNeIzy0t1eKf/ukTxWNjI/x2v2HDNldERCxGabbkkxX+zPwxAceEP4gyuggsxsSVDkc8r5fephgxONgjjh7dA48M4EYPCJgr/slP/va6ecNTsrxwueuT3/xkCd6MFcCgLEG8gIKU1BsIbCzTW7k4/cppnpn7coK3aI6FmJn1zrk065kt3PeTS8c2giRmJa5bu3XtgdScVK6bqKL2NFY2/p+yH5X9jDfwy6IVuqdacGgw4FmjsoZeTlpiZqLILsgWawrWILhV2Bw2kRqYKnpmekRVVZX4yV//RDjiHVRnBclyR2UTZRLVi3qG1TIE8V5ozuIAdwIkpehFVbCqQMRkxYiOjg6OP+m42IGu3zpBk07lE1MLLMqmmrzNeVrqstTyWz54i8jMz+T8OPHsCf2RrzxSaGxyw4gsBX55U1JQsFkLD48rhxcBnoPo6EQyftFGoK+d076+TnHkyG69urqiOCEhSQsJsXOglvfhoyyfnBxjz0JKSqbIylrF+5Dj0Mj4GqUKaJTHxjTYVmNthRmZLjT+jDVVMAMBrCigma/wysiYEdqIhN+KWGWTkIQa+VmBzdBQr6ivPw1PFn7Bv4PQZvjfWFYAw5+Mfcj94RoAcPI6oMHihRf+W/z619/2ltW1a293RUbGlch8l814Kn8U/Fnzwwoz6j6oe8EJie+5KGjDNc0gVui6hBlIsD1Y++TOT5YX3ltIeUf5RkDjYyAoD62GRAGPdT2CMsv3lXMA6ELCsRQWqJmZmdEpf4sXgpqN79v4qay1Wf8Z4Yig52TSMzIwcrLsv8q2Gl/75TqTzLxMLTQyVKPnTktbnsbNRBPDEy4MILcsaZlocjeJ3//099xrCcD9ulCD/yDGejSfohcVgEaNGIxhCTJXZorU7FTeT1drl3DXuwXGwTHmMiulOq8UczzJnS0O2bxjs5aQmVC+9aGtmCpB1J+qF6/tfq1w/2OL6zreqZBp88ublcTErJ0REVEaPCxoXkGzxMjIADdtIE6jtrZCnDt3iB4IT1lCQqqToEUjI6FJIFHGNliguzaMMX6LOBR4eNA0o2DFhBbT06DWWw20alrxNdQwNkgltECxrBQC4w2IAbAAXOCRsXploPheeickqOBaFbRAJdRA5Tr1GQCG/Onr66C8OCwwmzeuzRKDwsvYH1TOGzVFxzSbjqz7w/bnzr1WWlNT4Q3sS0rKoDwNLUJ+ymBgCS/zgUUpajgk8rOZDypVcinMzIq6ujNlwcHhIiNjuRYVFafNzs5p4+NjVAEz5C16l+7c9Jzbme0syrspj+fTYWBRSnnK5ZCWkXKTFMoxpcGU92hahTpiHCJ/Y75Ykr+Ef4MAXp97QOURQkv8R+JEd9+6irpL3oiz12Z/P8GZkIrNxofGxfjg+EMXT9OrtF+uS0HsTV97n97n7itrOttUVvlKZdn5I+d3ndh7YlddTV1Z3fk6fWZypmxiYqKMoBgD+vGgfqq5SS0rTyArnl9K0fyEpih0GUcvLChieRCf03qhVQz1D3HzVvaabJGSncKBy8HhweiN58rKzyrKWZujL5amqbbaNndMckxR6tJUJ3p5YegFzA116sVTNxTQzKvS/fJ6snbttvKkpDQNMAOPAAwoKvT5htSarQgqlR4H0+By1U6JhA96wx3s5aDh7OzVZKyzfJqcZBCxOUaN8kCo38pUGnSrkv1hVR4ZKK1m5VMgoeeeFfACuJEeGatnBhBiVBCk0tjTBiTS+EvFa438Hp/V9rO8jKY37AvnDIhT2yCV25i/Qao8LcgnXG9XV6v45S+/WdzWVu81fnl5m+kexJejyQkeGjnXlZk3Ss18AQQiz9V9UvfBFHkeUNlFHCCGZkVzO3nPkH7ucw/RseJEeXk5bTehp6Wt1I8d2y8iI+P173//fyNWB5XIoqlIqOJ2ffbfPluSlJUkY2eosABCZF7B22dCjVWDkM+0fZCNUstfb1uv6GrvEh3tHaK9vV10tHWw0WFPjTGhIZqe4KnZ+8her1s8a2XWuvxb8g8kZyXbJscnPcO9wyf3/HiP3zvjF6/Ao2MLsrlCwkIw7YqcesV4RKm0yudVPbIWUWUZ5Vj15uPmqPAQ7uadkZfBzTWI4YHHkQABHkd9cnSy+OnvP70onuWVt650bd6xuWTDPRu4ie3MK2f0//jMf9xQzU4L3Hq/WGXbtgddgYGhLrs9EoO5eZuXAB3wtsBgmnCB7DQNAZbPnHmVDeR8owoxfyfXDQx0c/dnBMwiDkUCjTTWCmqkV0I1q5jHlssm2JC98VFaRd9LVUIMwQqIMUFGgoYEGkCGTBVwWJcBAIAZEwas22EfsucBluGxaW+/SMtyHa4pNjaZt2UDN4vRdlVgrzSigLyyslL9wIHfXfJQbtz4Po8EGms3eekBk0CDvDBV7Rd5o+6RKfL8ce4QBUPYRm5mbvuXf/kRDlJG0DQCqFUvMOnZ8nCw8cmTL4vh4aHS5557RK+o2L8o2uW/9OMvla+7ax08ihJqDLDBpTO40DLDC3sag0RwQLBQf7SG/8g8cEq5JuiOCrrTYpL+6N1YVByvEGMTYzxdgQrcxGjE9Gau7/2JhJqC2wq+R5Xyp8mo2AY6BzwT4xNfev4nz/u7aPvlspJTkIPZqTXiaJQrjZ9v+ueZ9WAGeZ7g0fvcU1mWzzQprVflnAf3I0VvPkA9PDbJS5PFQMeAcF90Y7yb0vGJ8dKnv3Ntg01mQaaWq+WWb//UdpG8JFm017UL/Tm98KnvLP4xeN6sWGt1v1jkwQe/TA+HrSQ83KHBCwBjCaMpeyopoJAAYQUTmcqHBtk7PNwvqquPL/gdUvU76zo0RcELtGHDXYaHRkENjLYVaiRQWY9tKva9sGcGAhaB/YYqoIFBVyADCDHhRIGKCTfye+VhkTBjTVWTktmsJAfAw3HRtNTd3SowBQS+R4rrxH5xHQAd5O/Fi6f1I0f2FtfXV1zyQGra3QbQoHeZ8mJZ740VapAflwKlEut5Y1vkt9pGpRkZieLDH75DxMcn0T2VMKPG6DGb6ySYyWud5cDilpYa/aWXHtdffPFXAJtrtmJZd/e6ks/9x+dcdoedrp/KegjlJXo8If/orVY1LwFa5v+FGn8KZgAyU/Q3Tn9jlr/xsXHKt1FBoMKTBAJs0DNlanpK/4vNf1F48x/d/L2sNVmfBjANdA+I2bnZLz37w2f9QOOXdywJmQmAHY1HJ6ZyDKEXKy3AFgDoYZCH1wZgg8ElEc+zZtsanlIB4+JglN7BvsHia32Avi0PbCm582N3uvJvyudn6+gzR4tLv1K6KIOd346QufOLVbZvf1jLy9u4OyIimmdzVj2PfAN1rc0/JlxIz4Cvols3AmVh/M312BZvwAqKpCoDDC8NDCl+h9/DYEtjbEKPCUTKSOPs5TpTsU7Ci1JiBlYFMUoVwMz3zPgCjQIZE2ikx0XONC1VNtkowz5Nlh4Ao+JkJidHuTkH+6Iz4utFHiMPsQ6xSIOD3eLEiedFc3P9A9XVRxasQFJTlxYR3DlREZl5Z8LhQor8mS/qms6fP4bu4HweC+1j+fIlIjd3FXdpB9DAM6NgRgKNvGbpbZLeKZwXgalz5cotKFOa3W7X6+sr35U2+S/98Euadp+2s7Wq1Tky8MazCndc7HBnrcpypa9Il2+tBDQhIQQrYRhnKVSEB4YLO/1F0F8k/TmMv1j6U8th9AeoITwUdOfZM+P9I2hFHiG2wVvGzBgI5z2fuqeot6M3iYxKMt9HALkt4LnzR877u2r75R0LujiPDozqwz3D6FLOinFzBrsHS+m5dBPcuPkZnprF7N883hLibLCcnpsOsHGih1bmqky96lDVNRtXE++MdyZlJSGWhgcubK5pxkzz19XAgq8nfqCxSFHR511RUbE7o6LiyfhEsaGVMRpo+pHNPgpmQPkSTEyvwHxVQb0IGkbPJrUd1kmVngOlsslINo8ghVHs6GigY8uB+ySw0P+sctmEmEuhBsuXgxkznQ8pSE2Q8YUYfDa3lYZJqoQZCTESZMxAX0CK1AnKh3ECgAnScV7GODHwZPT2ukVPTzsHSWNAu87OpuLa2ss/iCkpS+mtKpjeupDX1nwzoQa+Z5UX8jMEKWUGNzPNsacI82tlZ6/x+a3cHil+I8SyZSvpPiT5NDNhaoSpKQAcrnM+2Kn8INohSU7OciYmZrri4lLd584dvipveZ//3ue1jfdtLNr8wOaSoOCgnVRZa9XHq4vGh8eRj29UCbvHhsecW4q2aMpDE0ogbQ+REIM/QEuU8RdDf0jhoSGcNHbBuer1zIwaf2PTYzxaLHtl0ARpCd4E0PDtEMIZnRydNjU2NTszNeNJzEgULedbEhvONDzG3/rFL1dJAPwEMGWxqbE6mq1InWgShYejp61HdDZ2iqjEKIGA29DwUC0tN+2ahZqohCgNQAMIw1QT9Ezrr/7mVT/Q3EiyYwe8Mlt22+2RrvBwB09pAIAwPTLWoFypClrgIVDelvkqgSaAjB5Gqu1noyshRjWBmECj4l/UOmWccSw0W8Ho47xwLkqk4TWX8Tu1LA03RKaXgo0VSuSyghhpaHxTCS4qtYKMNYVRNwEG1w2IkemkATMAmTEeMRieGoxbI1UOgtfX5xZu90W9vf1iMZ/4ZSQlJbOIYBJQw9dt9dCoVOaPSvErlRfSM4DrAbhiugbf30jF9vJ3QuTnb6RjRND5A2TgSZLQpgBOwosJMzIfJNAhf5Cit1dWVn4RpUWUX3pPT9s7rhT//Id/7tp8/2bXxvdv3GkLsO0MDAosojdJJ7198jVePH1R0Jspem68odt5wD3gjkuJcy1Zs4TLNcbziKBrjqY/K8xgGZ6YhQQAM2T8jdAfYGZiAmVAAg3eeDk4mPIeIKPuBYReGgJik2NDpiemPVFxUXP0hpycmJK4t62+rZM38ItfrqIMdg26Y52xOtUgGpVRJ4AGZRbzUqFrN3pIZa7M5IkgU7NT9epj195EkLHxsYKuwbW0YKnA0Af0QqMd33N80U7K+VblhgcaNDFhrBh0x46IcPCIv76j/qqYFQUzyhuD1Aoy0qiqZWlkJZygCUUCjfzODN691AibhhXLpkGG0YSnRzXPLCSwC9IYB3g/S1EGXHolJJhIlZ9NmLkUZMxt5GdfkJHLVkMuvRIw5gAZ6Y1RHhkYtzEDZKTimkZHoQM8mm9XV5Pe1dX6hpH5CQmZ6LaNEYONfPT10FjzTqr8nQKZpqYqSmd4ID35G7kdfidBxgSa2NhEsXLlJro+eLVk0LTMF+v1y1TCHEBGQhyWsR7bIW+Q5uYWOnGt1dXH39Kb05ce+ZK2+YHNRVuKtrhu+qObdlIKT0wRQYxGKXe7RtwLFKOsIh4GI6bSGya6Sb+hl4auyT06NOpcd8c6DW936JodFhzGADPcNSyam5pFZ0+naO1tZUUeVbdXi7b+NuEedIvmwWbRNNAkWgdaRUB0gBidHhUTkybMsHcGMzIj71RzE5SW2UuDhD5HxEQE0RtyUF9730x/T/+ajosdfi+NX94VAdQkpCTotiAbYmvw3PCzDY8iBpJEU1R6brpzdm5WO/XiqWsuNqW/q9+dkZexc9n6ZSIuMU4M9AyIrsausp62nmvSo3Slxajmb0wBzISGhpVERsbwVAa+g9uFEnxc2pwkQUUaz/mGUxlCpVKQesT+/U9yDylfI2tuYy7TJ8uy/M5YZLGJZcvWsSGWwKWCYa2wBc8RYkF8fsjiNSKsrwcw1nXSgMvUVGXE5bIvzJhGHWAjm5pMD41UCTeAGXqbJ+Dr7W3Xu7vb3lQ3Q8ypRferBF4rCZ9qOglTfZujZB7DG3Ty5Cvillse8OaVL0wiz3zvTU7OSrF+/R10jQAadb1SAUUqH+ClkdeuvFOTvC1E5qWEIQQzd3W16N/4xgcve62AFzoj2TWVIUu4eGwYUnzGn1doERUvKl18j5F70cMhKj6KvSEvPPYCulKjmevN5K329V9/vaTg9gLNHmEXMZExIqAvQBw/dlx0E5irWbZxTKSAKO95GXnmLV8GtMQkxvB5qN4kCMzEBIaqvHHzk+rODQ/O9CwD0EDHwOzZg2dHa8pr/nf9qfpf8M7fBfnsv30WHi3N6FquzU1Lj9zM5IxnZmpGn56YxrQP+su/erlC/sIv15vkbMjRqNouV2UZZR1dvBGXkrUqS8AD0tfRV/zY/3vsmoOarR/dWr7jczu0NdoaUV1ZLX79z78uXqyjIL9VuWE9NICZwMCAcocjzom5mCTMyC7AZq8ZGSsD4yjhRoKCMoTSGEqDKUFHGVAYR7VeGkoYMXTLNr+TBkClvsvqO3PZqpibCAHDMTFJdCVeNww/ePiMBMu0qXe9VAkpVrWCy/zUXDaBxmrE5WfpmZFA4wsz1qYmqWOsaG6SnpkBMTw8wNdC11RKMPOAPOM3lri4JI3uDw+uJ/Ne5rPKX2t+sfUlQZwOICovr5C3kdtdmr++QIOpFu7gsqHyxDdvkPoCnswLCXcS4ia8eSPTSfTkck5Pj7vr689cEk+DgN7gkOASqkBdCETEmBs80mkYlUcCAnhgABJKGXBw7pSi/ME9rpp1MAtvn7sPnhonGeI3FUsz2DcoVt60sghz3pw/cV6cOn1K2MJtPJcTxunwDitPKc4LipgbhhX0jjLmheIZlOmZmZygMjA+KUYHR3mMD/Qa4d5NE1NeCON8NKBMKe0nICIuIpBA4u6o5KjnOuo7rlrT0+f/8/OuTTs2uTbdt2knHXcnnX+RofB+8VD9VLYKKZ/fT0/S++c8c//LudyZ4lzqdLfWtN4Qb783kmDyx4T0BDeV5yJ8pqeLq1o8Z2iCCg4PFomZic7Vt6/WK/ZVXFP3f/n65VrW6iwtKzNLDFD9Wne6rqzhdMNVidu71uSGBJrt2z+GYNJydI1WE0sqzwze9JGawcCAGwk58nvpEVFv9tIw+oKNVPWdApUA0dnZ7F1mA3RJai7L7dQ6uV4CjlyGYRwe7uPzBGzx08YwY6ZqGb+B8Z0PNr5GeeHUCjPzgQaGWy6jqcXqnVHNLb4wA5iQsTMjHC8DzwxgZmbGU+h2Xzpq7OtJdHQKYNOlgAYq80jmvcpHBTM4N9wzjCWktje3M/NawYxcFjy4HuJnpHfFmj/Ix0vzRvZ0Ql4oNT1UyA+sQx5hv1Ru3EeOlPk0OyGwlyrLkvDIcG72YYgJC+aUIcHwiDA4wytilAkWSjCEO5Svgb6Ljo/mcwUgEEy4aLnIHmXXCSguWwl3NXbpSRlJRWMjY87JyUn2sOBcGFwMDwtSnjOH1AowarZuPs8guh8ATStsGueMSQdHBkbYmzTUNyQBhvahPDX4DCij/QQ44h1BBDWrYlNiT7bVXpl4GuQzN989sMV1U9FNu+l6ihgc7aFO9OxSeY7rY0hDrJwENBuuDddA+a3NTM98Ni0nbY8faq4/oWdAi0+PL6JSy2VRPVOQscExjDLsBOQfL3trTcdXW5auWbozb0ueE3NjtTa0isN/OFyGZ9r4+rqWGw5oADNCBJVj0DY1YzagAG/gYWGRAnE08KZYZ9FWKqEHKkFHAg68OCpIWBlKKEYA7hEdHY2isbFK6PqL/FtUjNKQKsO50LJ13fzP5jKMI+AAhhXn4gss1tQKOVaj7LtsTU1DrVJltCXMWKEGRlsaahNkVPyMCTMqbkYG/46MDBLQDOozM6MPGCPrviXp73e7ExPTdyLvzaYlaTSteSS37eLj477K+6S2k78xt1V5LH+HAfTuvPNBula0o6s8QR7JfJTLZr6oVPZ4Uh4Z1Qw1wdcvgWeG90+pNjraX+Z2N7IxhJENCA4oj3BEODHIF8exGF4PK8TwORsVK50J/uNzQtpe286D1nFe0LYIZMRgYUjhASEwcEbGRmop2Sk63kJ5JxZ58MsPajd98KadBA8AHx6HA54YBVM8P47yxqCnnwKY+TBjHB+TWHrzWEKAN39pDZ8zmnZGB0Y5PgGGA+fP50opvqPlgKCwoPTpselV8Wnx7whqKI9dW/5oi4vOHR6wIvRawbgjaEpAimtVeQ5Qw7IX1pD/BGmBAYE2dQ/QBEdwuD40OFTv6+zzT9FwHUlCeoIW74wvwgjCXDapLHJ5pjIAgdeRvhfH9xy/pppzlq1fVrLq5lXCEecQjVWNomJPxS7E1hhfX9dyQwHNtm0fQ0yC1zMDoEHPE8yuDHU4YvgzYAbfIT5DAo/02ijvDbw0viqhRgUOw3OCmZrPnz/OQIOmJq7JqfYGOMkK3jSkUn0/m8bVuv7SZRhIDMQ3NNRH54DRiwPZ2EpVAKPAZI7PAQZabSONsm8q1YQYqdITo4y2ghrTYANkVCp7NgFmABLKK6PiZdBra2SkHzORY0qDt/3mkJCQXkT57pTeMuklQ74gf2X+eUR3dztfF+AEeTMffGSq8lQpPDNJmNWb75fMG1yvzCPf/JL5Y0Ke9MxImEF++Hqu4KVC/qEcdXY20nezel3dKf1Pd/5pSYg9pCQiOoKDeVXzDs6XDafl/LgokTDEoLMQ7jPd0153r+mdIcW14TwBRpjPBnCCuW3oGM6o+CjXyptXuhvOmK7o7Z/e7kpdlrozNjm2CPPahEdIDxEMO+fbAlDFeWl8VqrW83krxTl5T9w4d/4nUwgMBt580Sw13D8spsenBXprYdLLieGJAAKldDqfVdlrs0/Wn6p/01ADUNx0/6adm4s27yZoKSJ40QCMABjVZAbFtVphhsEM12ZcH05f5T9dk7wi+t8z60mlEoCmvj3GIf1yHUjmqkyNoKAIzw+mEhgfGdcJst30DDhRJuBFdMQ6nCvvWFlWuf/dGV/qzcjq21fvzN+cz72cLugXxHM/ee51e4xeT3LDAM22bQ8i0K88JiaBoQVND3D7o8suAmwBNOjCK7tsw0sDsIFXRnlwwgluJMzAgKKpQ6mMrwHI9IrDh3eL6uoTZMwnZOWPit0LIoI9PXLZqCSNShFqXVbbLLwMReUKlZ9hRAcGOnkZ52gaXNPomoYXYCO7bvsaZ99tpapmJfnZCjU4ptVYK88MgEY1L01MqG7ZI/DIcBPT6OiA3tR0vpCg5h1VAgkJTkxSqakeZzKPZD7BYHZ2ttB9CfSOPCzvh1XN7aXKPMX2gJmoqARLvljzyAozSH3zREKNzBcFNcgbAB4+5+ZqGEGY7lcX4nqctz683hURE1EUGR3JswoDZGBsUWkyDKg/nBwJlgEwElglzEDbatq83hnahFN8j8rYaqThcXDEO3CsovV3ri9KW5YmslZnlZC6EpwJTsxI7PVUkCqjrmBGQQr2L/NQfuYUB7YKYMUAFgifr4IYJPRZfY9r4LylFOAFqIHCu4T4G0oDutu705PSkz6yZM2S5LqKun3ylwsLgnsL7y3cTdeyk+CMIQbGSeUvg0yY9MqovOFypPIc12MoCyXqfPk6PB66EfjoEdMT7KUp83tprh9Zri0viUmKccIjg4lSqaw/MD42XmZ4aThYn4BG0H0Xp/afuiaanTAVxNI1S125G3NFuD1cVB6qFCdfPOnvtn09ya23foC7ZhPMOKOjE3k2aBgtQE1kJDw0sQw3SUkJDDFjYwOioaFCtLaeJaNTS6AC43NB9PdfED09NWyoYslIJCZG0m9CaF2vqKw8KioqXiSDjoKvPAHSaMplaVwUEFkNKZsob+Wp1pvfK+Ua9RL1Femt6WWPEY4vja4EGRNGJKjAKMuKWW5zOTW9D1IlyCijLUHGCjQSZkyQQQAwvFZoghsbGyptabnwpoN/X0/onhWFhITL+YeMPEY+ocmntbWGAVV6ZvD9fKDBtoAg3zyG3nzz+wXKiS/kKZBBfqnl+fkju2YjX2SKPJHeGpQLeGWSkjJ4MD8OkPYMirAl405Hgh3NQPCcsGcGEMHAgBgUnCf+6LwgWPbCDKVsUA0QQPAvvBzeawmUYIfmHEy+hyDc8Khw/g0BFHts4K0huClKWpLkxMzDHPSL2BF4KxQEId8AMrQ/H5CB4YfSsVDJoziq84SRNxbkOXK+yXO2nr9Szl8060ERR4PeTqQIHh4bHhNDvUOiq6kLEDaVsy5nOigwaG1OYc72VZtWnT5/7Pwl3hqCGVdoaOhOghgJMqQMMhGmN8bqhfFei3E96lqsy14x8hzXQMs2jq8IsNnCY8Irms42+Xs+XQdyU9FNrpjkGBdeMDBFR2dDp37ot4d2dTV2uTsaOsoycjPKUCYwNUjm6sxdR54+ck14aFJXpBblbc4rWrZmGc+3NjQ8VHrgyQPXVIzP1RTLU3p9yubNO7TISEdJdHSSlpiYTgYu0QCZWDIuyQJxMz09XaKrq1H09XXpLS21env7BZ3W6StXbi6HBwdv1nIslQl0tzW8MkEiL28THQHxK3MEEWQsCIZgLBU4SKMnjZ9UbIvYGwTySsPqCzYQLBuLb3h7pNFAvYplrmBJ1LHRtAZwk7EjypDLY0qD7ntsdY5mKlWBjFVhsCXEWL0z8MzAK4Pu2L4wgyYmgp3itxMvcznJyMgvofvpQnd4wALuC/IMoytnZOQyPJpNgfKeWdUEGzMf7rzzIS/MWO/d/Ps4P18UyKhyImOHpCJPcBx4AtHcNzY2KPpGWsVgcK2wJwZidE+GCwUzKgAVQAGosQKACpb1UYIYeGYgdSfrxMTIBF8L/5Z+h+9TslO8wDDcO8xGnI08mrbsBDHhRs8liyIwlg2+ghdVVvDPumyUUzpDLpI4JueZ0TUb56jOW8XFIIWhALBwOkXlCQOZGYqgYYyhA8/MSL8MHu5q7hJ3fvzOwcSMRMrqGQ9AB7Ny035/YZuy/eI3//abM5/9589qAaEBJQQtmtUTowKZ5f02r8F6/ko4r3ENyC/cb6QEWThnnCe8R4ifwDlOjU2J0eFRD52jZ7Br8MSrT7y6xdiNXxapbNi+QYtNjS1JSE3QAPGYpHJkaKTw0FOHrvnA2q0f3Vpy1yfucq27ZZ0Y6B8Qz/702dLf/ONvbpgmJ98n+TqTDRu2aTExSSXx8WlacnIme2aSk7NEfDxV7vRG3dJyTpw9q+udnQ2lbnejXlnpW2A/9KEveQAFeLtWQa4w3Mq4AYzS05ezMe3tbReDg7385g1DGR+fyvACYyeNoDSKqCgRl6MMqoILrla9d+ONbsvCICNTw5jwOc6SQQ9jsImLS+bjyeOiUpfeCfPYhoEiMQ02UhhsLFuNt2xOUUCjjLgZLyODfxH4q5qY5uYAM28/XmYhyczMI1iNLUdzIe4BrgWzeuMeA2aQ/7JZUAZtW6FGwowCGhuD3/r129hTBzHz0Eyt+Wr1WskgYOmRUbFDKDPSUyWb3gDGCETHcs9gk3BP6SIkzuOFGTSFAGJUACpShhtKFdDg+FaIsS4roOnv6BdtdW3y3hK0oKjgXJOzkrk5i8FhQkIEYAYGH/CijD6DDB2XvTN07PmeC6uimHIKoePMBxoFUApmlCqYuSzQ0PkBZtDUhJ5QCMjsbu1Gr5LJW//41jGCLA8d20OQ4UGX8OmxaczMjXNppuvh3mHq2pQ3xuuFWeAaILwMMa4D16AAks8f9xtQQ+cKT5cCGqToxktAMzfYPTjXdL7pczXHa34qd+aXxSbbH96uRSZGljiznVp0YrRoPt8szh8+r5fvLX9T42O917Lj8zs897vuFxnZGeLssbPiiW8/UXz6pdM3xBg0kOu2ySkvb4OWkJBZQsZNS0vLpjf2FWLlyvVkaMfEq6/+Tjz//C/0EydefeCFFx7bhbFAurqaL3EZ5udvLoqIiHLCgEkYocqNliGo/wAvmHsIb9zZ2WtJVzPgwCuAGBp004Zxg+dGeg+kmB4SVKoAClmhqjrVW8v6CNW0+J8TtWxNjUqYFeeJ88VcQ5MEFZgrqUOPikooIxjRYHzNrsWqeUSq6oXDxtMw1nKdb2yI8shYvRDKI6OClDEa7tjYUHFT0/niwcErH2U/ONjjJnAsInhxIv8QfJ2Q4DTgxfTEmN4pme8y76Uir5cuXS1uumkHg6bMR+SfTM28NJfVZxP8rLBn5hFS5AG8RYAZ3I/+kTbROHREBEZN88B3iJsBSPB5kdFV56eaQuBlUYYXBhZBwOresuI8YXjpfNR2gBqk6jOVLPZyYH4kgAp7Kmi/7MFAHAnUABtvN2zknzoH45ysCjjglI7hVXkwU2Sx5PNUKZ+7BRSssKAUwKOAYWJsgoEGzWmb3r9pnPJsjs7PhvPHudK529CMNDo0Gksgk26PtjO4AWo4qJm2WegaFKR5l9U1GMtYz9diKNaxILFcF18LygRdB54Vyt89zeea/c1Oi1Q2P7B59/INyzU00SI4v+Nih+hr73ugrfadT1NytaVgW4Fr7R1ri5atXUbF0yMulF/Qn/7u0zeMdwYirel1KLGxzpK0tGVaTs4asW7dHWLFiuXiwIE94tFH/07s2/dL/dChpwsrK/e/rseAKigdBlECiDKKqplIVY6BbLyPHHmGtIwDX1NSlgocV9PuYq9QU1O1aGurY2MPb4EySN6akUWlEOt3huHyqvztfKPqq6bBU7+vqdG1r33tvmICrUKCj1KcJxRdqBdS9EYCpCDAVwKMVBNizEHyADJqtF/EyfT1dcJTotN3hc3N1Vf17YCuVVd5gqYn5YWR90gaJymm0VICb8wdd3xYrF27lfPMqnKf5rJ1nfrsq5feBxhq1ZMO54SyUu1+ScyGjMieTPYwNrZ8m0n4nqkPJHy+9KeMK5+7kao/uSH+ye/QjBSbGivXKzE2Q1MUIAYKrxB7MAAyRlAsPDIABQZAgJQxKrAXCJCSqvUKCNSyDxgYyqdlpN5lQ2T5lCKvnP5oHYOOATZo3oGnJjM/cyptedosAYMNsIXzDQgOsAWFBYnO5s4YApcgQAzylfOWrhFA5j2veWo9b7XsVVwj1lOKvPAq7Q/KeTVPAYqhYaE2gkJ0PvDLIpRP/N0nyrPXZGtJS5IYVFtrWjF4XuGxPceu+aYmSHJ6suZc5hQYEBNjOzWebVwU530l5boEmh07PqtlZuZra9feJgoLt4qengbxwx/uEs899yjgorStrfZNuQ/hfUFVyxWfBWDMAe6kKtBBd+TDh8u4yzagALEymZl5oqDgFpGYmIbuuaWIIcGbO1fcbCRlJQ5BYqpcL9XXqF5qPJVRNfenfoNlCMEdEu1v//aD+je+8aFiAhUCmxGAjQ6PihwXRo4PY4wRYygAZ9gLLmhOmpy0Ni2NGB6ZXgEPycBAlz442FVcX38aMHPVHyi6Ph33BtcJeJA9niQ8YD1E3ide4s+IkVm3bqvYuvXDPvEyMm99Va2b/525vXkPADDsbTDWAa7g/VHlY2i8Q0wGDHgNLs4LxlvdMypqUg3jz0IpG2GjrCmDrL7HOrkgEwiCe73rIbIIcLduBTFQ1aSlxo9hmFEpe7WkcfdJ56k6HwQFe8/TSPncjfOgNfw3X6zXjWVrPqJ5igfg6x8Rq7eungLM8LkGB9ro/BhsGs80RtOxgzhPjWYmAIb1PPjc8BnL88/bsmxV3g7XbFEFNsiz+TATHBYMmLGFhPiBZjHKn37zT8uXrl2qJS9N5mcS8Vokhd/51HcWBRSgd5Mj3oFeilxG2+vbxUDnwA3T1KTkumtyQo8muz2q/Kabtov8/LVi//4/iOPHXxSNjWfhNSglSHnTLrjY2CRnUlJWEQyjMlrSkKlpBajy44qSN/dWmvBcNDdf4ABiFK6EhDR87UTMTWtrXWlDw1knelypLtxyP2blz5W8XDKWTUixnoPS+duZ2yuV3bRp93pnZxM/oAcO/M598ODvyzZtukefnZ3RJycnnFNT41D2wkg1PTESZpTKwF8Z8Cu9MsPDAwCjXefOHS4msHnXKoG+PreelbWyKCQkzCmDgH3jZJD/Em6QmrEy8KLhs5TL5Z2Z30jNvDdBRhpf1eQkm+3gyQLgYSwb3GMcv3eoRZxqfEYEOwR3o0ZTCJcXGE8FC4bhtDb3YBsse0WeIht7PkejyQOpEoAKmmng4eAyRV9h2/HRcZGyNIWNPsAA56Bgho20ofisju9j2LEMtcKLoWAVWuIUwnmJfzgv4/jW5pn5yvE1iAsi5aBbBAUPjfOYNGvvXDuxYsOKGTonG86Dz42gq+Z4TRSdTxDyE81MgERuTrOeq7GsIMUKLGoZ58+frdcDp5havoyoa/NeA537xPhEKnrANFQ2XPNNFH4R4gNf/oB20wM37V5SsERLXkIwQ+UTvemoDC4amIGs2LyiiJ4T7t2Ea6g6VqU/+a0nb5ju2kquK6BB3IzTubxk8+a7nVu3bhbPP/+8IHgQ7e31oqennQzOVPHY2MibrmgcjmiRmJiB7p+yQkYlTTWYCQio8HiRU1X5ydRGQIAYmxY+dny8E2PaOKOi4p2JiVnFERFRoGfX/ErTPIZSqiwthlR9Z6YQc/v5v1WKfRCAuFtaLvh04TtyZA+G39ePHt1Tun79nWWyGYmbkpwqNobyjD1O8NbAa4OmJXhjEAjd3w+PTO+uM2deLe7ubn1PKoDg4BCN8leTAcAAGhNkpAaIzMx8sWbN7TyPU2goIANdmvFrlVe0xHl1af5Z81+BrQk0ABmVAmamGQRxv9EEps7jxfISMRM8yKN3YuwTvu8W46qggben1PodDDi2pzPC6UowIAPKKc7LAAX6BeeHEng2uGzxtcltYPhjU2JNzwK8NPA0AGSQbwbMyPM2z4uXLeo9b2OZj20c3nqeKlWKc2AvloqZmQczKn4GAwEiIJj2PXvbR26b5HMj+FLn0ljZaJ+enA7xdncnmMF1eM9JNZepz8b58rka6l2/AKBxvuGfkXoFy3RNSFU58QLN7KyNzgm9rirqT9b742iucfnYNz6mJaYllixZtURLzISn1oPu2eKpf3mqtOyHZYvKu7Hhng0l6+5c50x0JoqO5g5x+PeHy6gM3jDdtZVcV0CzYkXh7o0b79U+/OGt4g9/eEU0NZ0Xbncjvy2TES4lsHhLhZSMtXv58vVFDkecE0GisiZDJSYrMymo/IxFy7JMZcUIMABUYeC90NAwp8cz65qentTI0Dlh7EyRFaRUGE1pRNV63oJT9Vlup37ju15+J42vXA4Li9DPnz922UJeXr7PXVHxUtnJky+X5uYWugls3OPjozqdt2aM7kvX0Cf6+rq4aYkgZ9fZs4eLe3ra3tM3Gbo2OtdxLTo6gb00CmQwiOKyZWtJ13NQOAZHlNtLw+oLJTKgV6UyWNoM7pUxRNZu6liPuZnk99Zt4d1CF200f+E8Dui/FH2TFwV6TSBuBsaTDSMpjKqCGD43+mOAsRhc9kjQMn+PczcggO+xAQkMD7xbLngsatRg2qXc1vgthnIHzCiQ4QlYATSGt4aPp0DGAAh1jtZ16vwABCzG8dV58XG57MnP6lwN4y+VrgMQo1L0IoJ3BnEz6Kp9x0N3TNij7R7Ey6jjDg8NB7VeaLUDDrmHmEP2EONzspyfFWqscT8MLEiNc/dZxnfy4ZUp/hmfIfStXMBjhgTXZAANlM9/fLK9rqLOP2rwNSwYdDHOGVeSkZehxSbHMkx3NXaJX+76pU4gcEXGyXq3ZO22ta6C2wtcyzcs57Ja8VKFqNhXUdzT1nPDeQmNmmjxy+bN97o2bLhb27HjTvH000fQtMOzK8OzgGYSgoi3RdwERKUwcKgMVVOGbM5A5acqQKPS5GWj4uR1qGTl2y5+A08HmqIuXqxE4KyGc1NGdSGVsALD+1ZS629R6yoV6HXl4oU3IU888a+l//M//1H8+9//Z/Gzzz5qGxrqKhwcHCimcy6sqHjRdu7ckcLq6vJr4i1mcLBHb2ysLPR4bIUEJDpgQtPuFBs23MVduDHNhYIO1f3e7J2lPFJmkLNSGSOkYoekjo4OeaCUD5xCR0YGKYUOedzuix4M5ifLghDd/U2irv0ID2QHb4iCCq/SPWNjToZQGXR0XcZ6vp9kMHH7vMaYlG2qaWOlzPuMHj4IklWiymW/u5+bcbwwY3hp0PzEo+aqnk4AHJRfggMFOUFUhqEozyr1AR0LEEDVcfHnI7I4cmoFHaTIC1w/mp3CIsNmnbnOOQIuxMzIcyFwuVhxMZy7Zhvj56hj4TDeY81fxjZGyvmIVC0rmDGW+bOR30hZ1TValAGQlPPSooilkQf2y7UoD//Dwy56uSjPzMvU0NMQQwRUHqwUo72jhY1nGhdF92yrJGQmuLJWZfEz39/dj55ZpdXHrn784rUo142H5rbbPuS6556HtLNnLzA09PS0cmwHjNTwcD9iR95We2JbWy3HaMBLIyEBa423TvqsRK5X9ZhRWaoK1KKoHPHmDuMI8MAYKqZgn9gXdqaOYS6jz6752fTc+MIL/c+JXDa3QS+gSFFVdRQemrdM7m1t9W63u15XEylei0JQ425qqtExBk529lq9ufm8FheXyvkjAUHCHrwwc3My3kWp9LyYnhZAj/TESACamBj3AIBkbJECIqRj9FnCUF9fu0AvNgIqG0C2p69ZHDr1KxEUKacfgBGcXx7wB6E7ZNxDElrF5YQgAkYVcAGFYLA6GH1ursF9NwavY/CZJ6io1SB72D8L7ZveQPm71OxUOeBcMCmBDUAmLDxMoIkVis8yJskAF8OwK9BRAGNcAosqa16dDyxobgLI0flzMxNdi09z06j0zvR39Yt7P3PvpCPW4YF3hf8oL1outIT0d/SHYMh5dNH2xswoNQCEYYQ+W6FELSPlvEeq1qnPSC3K14YEy3yBMmHBMimuh69NXocNzWVkUB6RG/nlWpJP/cOnyjNyM1xpy9N4uAIMMolRgKcnph/4/he+v+ggAIMA5m3K25m7KZdh+vyx8+LUgVPFbdXXfjfzqyHXBdBs2LBdW736ppLs7FxRX38OzSGkPWSMpFGiyrSsr6/jbbcnYgj9hARnESp1VVGjJpOpFLMSfP1ltS32hRTehEvFPIZ1WR5bwotSuY0U/ujzWS6rbeE1CgkJIygxJyS83oRAxd3b21722mtPl+n6C7scDkdZRkauPjfnKSNj6iag0eHFIYjRJLxIaDHhRXlwJjwyKBpeHDlQnvosAQbL0pMjoXlAdHW1YswZhhnc2xNnd4veMdnUxIbXajgN4zlf+J7RP2Wc2TOigIY298IAgYACBWVQrUJ3nAEBcShKuBzQdjguekGQ0RXJmckiPjWevTOY+yUyPFI4Qh1SQxwiMjRSRIZEirCQMBGM+CQDspRHgw2+ITgm/9FxFMAoVZ/5/El9YIZSnCs8MxikDqMDpy9Pn1mzbc0M5QPPbI3jDHQMBJ7ef9oenRAtu52TQfKCjFLaVimfp5Fal73rcC+UYr3y0hjrFMhA+Tf4M9ZbRd0D3BcMEEhAk3r+yPkbLiDzWpYHv/agdusf37p7yeolGmafx73G2Eatda16f3d/8U++8pNFWSfmrMvZvfH+jU48x3huju4+qr/48xdv2LI379FcnPKhD33J9eCDxSU9Pf0cBEwGGz2aVBOBGBsbLD1//vg7GmDovvs+W56RsUzD27sM/sTbvIy1UMAg1QocCy2bKSpCNIlgQDeuMNUbL98WbIMjy9/zEqfzDJf3o7lebQ+xHgva1FRVevjwMzfUYEtvVb797ec2fPWr972poM4///N/30B5rA0M9FE568d0GKXo2TQ02iP2Hf0Bj9DrSHBIKEHvpQXiVPizsR5GmrsfU4rmH07tIdy8AsEotUqVVwOKZQjfe/7nYThorGzkZYYJA4R4ZGM0cZGiTKDt/e4/uVs405wiyhYlIugvnP5C6Y/OmvdLW4sJ+hsz/iY8BH1zBIFzCILGM0FgYijvX50XoMUAFlY0qU3QbyzXgSBgNd6MmuIg/6b88ds+fNscAIFgwYNg270/3WunPAyMd8Yz0LB3yRILxM0/SJG3Rhd01VSFz3jGFPR4wcUKMCT4Do+f+sx5yc+QhDJ1PaxG/vMAgKOUN8MEtvTGT4bS01rb6jr45MGfyJ345b0UBP/GJsWWOFc4OV4GZbCrpUucO3hO//13f7/ompiUFNxaoBVsKyjf+pGtPEjnhfIL4sRzJwr3/GjPDdncBLkuYmgyMpa7EhLieFRWvGUDMqSbXLbzBwTISvmdSGtrdSniLLhSpDdw1aMGTQwqhgY9Z2Q6X403PK44zRTrUlKWYERi9KaiCtOMf0HlKeNhkEplM2WpYNl4ocZlNddLsX5vSnBwmH+cjDeQNwszkB/84C8rfvjDLz/y+OP/+MjTT//wEdUsVVV7gJtEMIot3W2+Der+QHFfvUpv9/ieAcaYPBFQw3E3ZLTnpufYe8KxLUachjLCrAzAcv/e4xDAYD+0JNcBaFS5QjMVvCQEHwCKV598Vf/P//ufpa8+8yqDBYAmjv7i6S/G+EugvzT6W2L8pdvSRXJgsogNjhWOCAdBeRjDBIAB58RiJFbha7cANp8PnRsAgWNnADgTk6VVh6t+MjYwxhCI/Q52DQaOD40HInYG+cT75ksz8hQfeJW57BV1HpaU8w3PJT2HqCOQt8hje4RdRERECLvdLsLDCeoQV2TEFClYYmAyYBTPsFrHKmNqbFEJUQtcvV/ebXn4mw9rCWkJJWm5aRo8ewDPxnONGHiucDHDDCQyIbJkReEKHm0cTciNZxr1GxlmIIu+yekDH/i8tmXL+3aiqaCz0829cOCVUbES8KKMjQ3paIYwfvK2pKurWU9ISCuKj091GqtYVOUtgQPL1npMLcvUW9Ebn2F/MAcRpktAN1+MV4MKEoKmDDZQ8ytnQ+R3CwlV596v5LK5rUeMjPQ5Gxur/O7wqyA5OQVaVtYq18BQh+gYqBahMYE85gvDLBlPvD7AgFoFMAJo4RmhMdJtFBlUApm22jZM+y/2P75fPPfIc4Le+NmTwpBC9xNeDgVDCk5QVNi4EyAgxfeABMTR8GdjO6QYp2ZyfLLU5rEVn3n1zK6W8y1l9afqy85VnRNV56u0IEeQiI+NF/ZATAchBedKJluE0V8I/ZE55/V0BmIukPYNGAecwFPDcC5hxQstWI8mJqOZSS2rIGB4OOCh6e/pL2670FZBebc+KT0pFeOCVLxYEUJ5GIg3UQANv6ioAQAtXhekrFhnvDSwF8b6nbEe8MFxQ/YwBhhWAprwsHD2/Chw4d/j2cVjpPJYqZHXVo8NrmV0cLS9trz2hus2ey3Jw//8sEbPU7lzmdMJjx48llSW9LHBsQd+8IUfLGrDv3nHZm154fKd+VvyOTC+5UKLOLL7yK7W6vdm6IxrRRY90Gzd+uGdmzbdoV282ABjzV2L8YaMSlTNP4ReMP39ne+4comMjNapAnVhskdUYkoUp5jrFLhATHgxBZWgsUQLABpUsOhWjBnBMfdPUlKGiI6O53WY9HJhMXc6f//8PyfqC1nxYjTd2tryMsqfGzJo7GrKxo3bi+z2qKKegSbRP90oouKi2Cgqg6iAFmBgLDDwRERFMMygGzK8L6/8+hVRuade5MTdLlKjV4rlSzeLobZxUfarJ0T22mwOMIbRtAIKUjauhoFVEIFjD/UA8AluxqcxNo0+PDi869zBc7uazzaXWueoGewZdNdV1JUdf/F42auvvKrvP7HfWdNR4wyPoXOLdoiwANnsBYCZpr9x+pu0/GEMHpwHmpxwTkpxHrxsNHl5YYbSmUkCgEnZ7DQ6MCoGewdLT71wqpSMTgfG0Zmamrq/+XxzYE9LT2hMUgyPsqxAwwszBtBAGVzmfyaA4dT4jN8rj0xkRKSIiYgRcaFxIj4wXkTbokW4jYAmQAYbewLM/GSl68D1oSmMm5oIFgGX2IavZ0qOo0NvzPqF475jPvnl3ZP3f+H95ckZyTsR/IsxihBL1nGxQ+/r6lu08TJWWbFpxe7C9xU6Ef82NjKGbtr6syXP3vChBNeBh8a12+GIEV1dbjE6OsDeGXhmuKJnL80sVXw2BMK+48oFE1gmJWWWBQUFuzBomq+YA7VZBRWdKbJytC6jGWvp0lVk7FBBy9FtUfEiDgMTGqIpatmydRxnExoqJ0/Eb+YfR4nP4RYQ2NTu7nadwO+GJvmrIWvX3qHRHShq7NJFRFwYexJMrxzy3gI0gJnwUI4FgUcG0xWQERend9eKhNkC8aGiL4vspetEbEySaGmpEUGBIWKkd0yEJ9pEWm4aG1MYVxhRBQo+8GAojtXT1iMunr6oN55r3FV1qKq4vbZdn56cfj2gdQ/3DOsNlQ2lB589WPbqAYKbU/ud9V31zrD4MDHrmBUjASNikP6G6I9jaiYQgD8t42TI4OO5k8+geS4MMlDDMwOYYe8MAQ3AAJNqEtQUu+vdfG79nf2n6Drvpd9kEsQFoskA3izlnbFCjQIWBS1KreuwHZqNcF/gjYl2RIvksGSRFpAmUukPzWqR9EdnJ3pGe0R3Z7eoPlUtTu4/KU7sPSEqXq6YPfva2dnyZ8s9h/9weO7wbw97Tu8/PXes7Jjn4smLtq6WLhuPwkznRNf2SNXhKv8z9h4IAoABM87lTn5BANBTmdKp3Bc/8U9PLPp7gnFnVt+62pWzLgfzmQl6TkXTuaYHastrb/iXVLO2XYRy770Puz7ykb8omaQKsbu7hcedQVdt1a0WvVIwjggGtauqOnrFrnXHjs9r0dEx5YAaCU9Qc1A2VOQq7kW93anPapA7uU5W+Hl5m0R2dgF7Y6AYHE7G5hgGkFOqoPkjUhtfJwYMhMCDg3UYSPBSwfEAOur4c6Km5kRxRcX+RTUS5mKQe+/9tGt4vLNk2NYqEtISuDJlo2t4FLwGmIwxmphgoGOSYwTmX6k/VS9qD7SJzXkfEZnpKxlgu7vbxI9//FfiwoUTdO88qIj19/3Z+8T6e9a70GsKUNPZ2CncF91oR9dpnzrWofdGVHyUPjY2JmqO1SAwmH/LJ/nORMvbnKetu3udFugJdGFW35wNOexZolLGIMMwA08FgY0VYAA7gBdvQPC49MoAZPCGOdA5ILqbu0sP/s/BS94yV9++embJ6iWB8NAAAnHtUOSvNSgYqQqu9ol3ofy2jreD8Tpi6CUoJTiF44Ic9Ed3R5zvPS+ef+F58cqRV2b72/tnx8fH5zD9QkRUxFxkXOQcXZPNgDMbQaRtZo4+T83ZJicmbXQdtpH+ETSJBdD9AWQWP/WvT/mfsXdZdnx2hxadGl2+dM1S9npizCXAzH/v+u9FHS9jlR3FO8pv/uDNPFUDeja98NgLetkPy66b63snsqiB5tOf/qbrgx98uKS5uRWj+jLQIIYGgcEqOBPeDHTjJqApRNOT8dN3LPn5m8sLC7drISGhBAlUaTPMSLCRUDNjQIQJNJem0ouUm7uRJzGEEcOEloirCQ4OoaNIeFkIbMzgYihiGcxt1XaDg90MPvIzoEaeS0vLheLvfvcL/sr2Csu2bQ+63EPVJZGJoWzkfWI8DJiBwUWcDIwzekDFpcaJI88cES3lvWLrxj8VSzILRHh4BM/O/thj39TPnTuM+zQfSOQAibjtc5d8926KlpqTqq26ZZWWkJ6gRcZEakvXLhWoaOFA9AGaKQNojHgZwAw32YxNcKXcebFTDA4MFh572ndm4+WFy12J6YkldByGQHhXFNAwzIQaMGMBmvm9ydRvVLxMVFQUe2ay6G9mYkbseWmPOHL8yOxp/fRsqCN0KiYhhh7LOTHrmbUhgNoz47HhJQVA45mj5ZlZVjxLgBu6HtvU5FTAxPCEja4ngIypLSU7pfh33/md/xl7F+XWB29Fb6by7HXZ/LIwOjQq2i606b/5p99cN8a+8N5C16Ydm0pW3rKSy/y5186J47uPL5oZwa+2LOomp9tu+6BrxYoNWn8/BtCDN2aEoQKGW6oCCrwhTuiYd8j46TuWnp620qCg4KKkpEwnXNpKcDzpFTGPrz6b683vkAYHh3HTktkrC+obPKoEPabmwwxSud5UfEa8DAaWi4+XGheXggk30XXbffToHn/7/hWWycB+LSDIU4TeTTCkdCfYsCtBsweamNC8tGTVEm7bR9Bv0/EugplPiiVZq3nMo7q605gZvljXX4C3AmV2visZ63Ta90LfvZviRkzOxdMXy84ePFta8ULFrqO7j7o7Gjrc6II9MTrhRMwLDD83RaGruBEz4/XWENwgQHmwZ7D08G8Z3nwkOTPZRdCH4E4voMyHRG/TEtYZzUtQbMueHAN6vN6Z8BjhtDnF6ZOnxVf/9quzpypPjc0Gzk5FxkXO0Fs9PZR022wejEaIJxbQaCN0sVGKz1hv41QKP3HYjv88Hh7VONwevruuos4/n9O7KMs3LN+dlpvmxNxegGUEAD/9naeLp6dft3l10Qhm1M5en71z5c0rOcgZ3qeKfRWlr/zmFT84G7Kw1VwksmTJKjLQGH9DGXFUcFR5oasnT1KIbtXB7PkIDLzy0/o3N1cVX7hQrgNKJEigQlVAgsHVZPYyy3DKFR5DjFrGuaPpaG4OY4Ko5issq2Yr+WO1fwUs8z+rPLj0M/+cRX2HfPHLlZewIIcGQwpRngkANow53vgRzJuQkSCWacvYM/HCYy+IttP9YtuWh8XSJQUEM5Git7dNvPDCL4sPHXp6UVZSY4Njpa/99rXin339Z4U/+NwPCr//ue+XHi07qne3dPvCDOnkBAfPipG+EX1qamrB67UF2TR4YogVvMrPhJEiZsi7nptzpXJ3bHhpLJ4a7AcjIE/1TokfPfKj2W//+7fHw2PDR6ISohBsJEEIDwwlfGxaDvBgpVxlfOfdjpTnl1IeInTxRpPY9NT03OT4pP+N+V2UvM15rtCIUA3eOPSW627t1g/89kDx2NjYdXMfIhIjXOm56RpGycbzg4ExG/QGP8xYZFEDzdxct6u3d4YqFnxCBSOBRkKNhBkYb8SkoGfSlZaeHrfe2Hi6uLq6HKPPqkqOz4PfGC2eFqtHBrUv6mQpHm4mkyAjm6DwRguRwOILMfI6fT8vtE6mkPnbyXPzy5WXwIAgjfOW7i2ABs0qqHgANhgt2JnjFAW3FIjupm5x8H8OitbKTpEet1okJqQzdKNMPPfcz/XFCjPzBcak4UwDAjGLn/jnJ4oPPHVAR3yPGkwP0xygmzZ9Lp7f1ARBc1ZQYJCGqQ9kM60JLAspBCl7biwgA48JXnLsoXZx5tAZ8ZWPf2X26IGj4zHJMdMEJ/RI0LOhHhePXKInRS7jKzxAWIvHh/8jpd/QvfaoYwFoAkO4m/4crdNf/tXLfu/MuyscVwaPH8rY6ZdP682VzdcNzORsyNFSslJcmK4EZQ4xZ3Un60qrK27MOZsuJ4vWsm3evENLTk4mGJikT0YlQ6qAxgo1CLCdmZl60xMzvhVxu5v12try4qqq4zoG9FPnMR9qsE7CzELiEa2ttQwzELm9FWR8l2Xtq2pYX710Ha3CWkrVcnR0olzwyxWTnJwNGEVaQ54DTNGcMj46zp4ZxMnkb84XG2/fKE6/eloc23NMdNUOiGRHPjc3ookJcV9nzhzUa2pOXY9dL/XmqubSl375UnHZj8v0ntYeHuAMsTO97b2l+x/fv2ClHBwcrKFXEwDRiFcxAcbwzHg/G+sYXgAXBtDwM0gGAN8deObA7Gtlr41kr88ejU2NnfN6ZEhoK1rCPzwn+I//pFDKXb95CwIZeGWofkGqlI7roe88Y0Nj+vjI+OeNX/rlXRK6BxpeHNA9G73lPDOe68pzER4R7sKQDWh6xQtBe127XqfX+b0z82TRAo3dbteCgpI5AFcJKi9UaBgZWEKNAppgERWVwAOfGZteUYGnprz8+cJz544ZUKOARFWCchnnhJRrSNTG+J8rY170bqcqzssvL/SdVAlRSlVeIDXV4YiWB/TLFRPKbo1uAI+Ci7dEwAxuMQJ/t9y3RcSnxYsXfvsCu4mbzzeLxIjlIi42hcvm2NiwOHlyP8YHKq6vr7ie37j01vOtxa888Urp+NC43tPWox995uhlAc4WaNMQ6MveGTQnkfpAzTyFJ8fqmWHwILiZGZsRT/zLE7OnXzk9HhIaMkdPjHxu5B+eGkYXtQ7xM7xseG7UsoIjC8TI5aAAD46DeKLxvvEv1FfU+70z77LguUPc1lDvEO4DvHvGN9eHOBIcGnpEojz2dfShq3Ypem8ZX/vFEH6QF6Pcd9+flXzhC9909fUNi5GRATE01MdNNwCK+bMmI2AYY9TU1p4qPXfu8FV9A1616qbyFSs0DePIqHgY2aVbNSehR9Sly/n5mwi41nIgL36L7tsAIFSiVliRqayGuaL1priVMrUqAEZtg0ofxmH//idK/+Vf/ux69AS8Z5Kbu7FkJmDUNRM4yrEaaMtHT4SbP3Aze2vQG4HeqljFSIRYueIWbgoF0KCMlJe/qNfUlPu7Xloke112ScqSFBfG6UEXXIzxghgV7rWk5nFSAb+0Dr2gEGjNXbvpe3ukXTRVNQkCqCkCywmUf+XVoZQDedVnq8eHezcpeJolvME6o1cT/44+o9s20sCQQNtw/7Bor22vGOwc/PPBnsGTxun75V2U1VtXl4Tbw108DhBBLbyiuIcAYpQNAK66z3z/6N6iOXjNnWtKeSoQY2JRBBPzQI+UQtNz0/Wuhi7RUNXA86L1uHv0QffguwoSCAbOKcwp3/LAFn4OavVacfj3hwvp5cgPNPNk0QLNH//xX5R87nN/4+rsxGB6gxagkRNGKqiRsydjxuQxNOvoBw/+7qobDTSHxcQklDgccRqamSS8mN20fYFGBgBv2vQ+kZSUaQANFIHMcs6ehaBGAotKL1UJN8pjJb1C/CDTsX7zm38tffTRb/iB5grKmjW3lw9PdGnTthGOl7nlg7eIhz7wkDh59qQ4c+YMRinFeBhipGtSrF95L8EMGWXSwMAQ0d5eJ86ePVLodtf7KyiLLNOWlSRmJLrgZmegIVCBwVJAg15LymABZhT04DN6V7XVtaHyHyHjRQ8fOitJCFHgMj+Vz4fcBgaPAWZWyO7ZtN67jqAGIBUYEGhrq2/DZJpfbD3f+lPjtP3yHkjOhhxXmD2shLvlJ0TJ8Z3SEriJhiE4PESWG9Xln8oPd++HN8+IgYK3jWpNWYcaKQT1NQL7ATwIYkdTKVJMpcCKZVLtfVrp/DGXjHIn50+jsoPxpjDQpVWWrFzCdQa8TNhe2oc5jr1DmTt76Ky2tGCplrclj8+p8kAlJkEtDQgJ0KfHpvXLNdneiLJogeZP/uTrJZ/5zF+7urv7CWiGGWYANXIcGAANUsAMhmSX49J0d7eKixc5iPeqtz2mpuZoiYnOkszMPA0j/JoAY8KMuW5G3H33x7nLrvLQAGguBRk8ZOqzWl7YM6O+k01vsmURdTeAb+fOjyzaXjTXoixfvsEVERFVMj03Luzpc+JDn/yQWLp+qag4XoHeFug+KuCZGeuZFhmJa4ymJumdwX09efJl/fTpA37vzDxZeetKV2RMZAm64fp4aGCcCGbYS0PGSQEPFN8hRRxFxUsVo2HhYYQzc1zPMbwYqVLAjBds5qT3Rc1DpWBGeWvguUG3bzquDXEMTWeaTnY0dnyR7q3fK/MeS2peqhYaElpCIKthjCd4aDAWFJcbKjMAX6gqQwpq4OXDMn9vjF8EuAkOJmCmF47QQCpvQVTe6MUjGB1MEMJAdWqwh76fJaCeCxIzVH+P07M/5BkSgzODYmRihHsxAoB4FG/U+ZQO9gyKUy+d8il7SHM35/J5chmjbVUPSShACh6ZxPREgZGPAU4Xjl/gUcXhuaRr0el8ip/6zlN+qCFZtEDz8Y//fyWf/vTXXL29fRyDMDzcb/HQKAXYSKhB0xPmeWpsPFd69Oi7N+dFQcGtAJqSuLhkDSMLS4jBm55MUYCx/uab3+8DNGhyeiOQMVOrmuvQ3BQUBKiR54I6enR0XLzvfXZcvx9orpDk528qCXfYXUn5kWLrJ27hiqa5qpl7IuBtrLOpU0z2z4m40BwR7UjkgRMRqA6gwcCH5eX7ipubq/33Y56svGmlKzwqvATd3dkwwRhBw2STEgwRPDMAHnhk8B22Q2Dor//h15in6sjStUvXOWIc62m7dVGJUfRYYBgZ05hYUnxhPJsyTocMjBxYj4CGzsMGo4eA5t723pP9Xf2Ptle1nxwbG/PDzDUk6A1E98sVmxzLs1CjjKjR1jAj/OjQqMsLLYAaKJouDeCxLqvPyrtj9fAo6EHKcVtU16LcYJgGvEwzlJAypABMaH13c7doqW7hsqUUAwAmZSXJ7YzfMMxQinGbAM5Vh6tE/k35PBhnX3sff0bXdABb+op0wL3++D8+7n8hIlm0QPOnf/q3JZ/61NdcfX0AmiGClcEFgGaagUYpmp3q68+ItraLhe928CV6wRDU0Jt8pAvgAvCQY8/MieTkLLF27e0MNgpoEF9hemisoDIfahb6Ti7TCwfth55n44GmZ0rU1VWLT3wiH4XfT/RXSFZpWkn+7ctc9316uxgfHBcXay+yUUX3UQAN3qZCJ1JEQlSmMQq09M5Aa2tP6a+++pS/MlpAADShEaHsocFghXiz9r5ho8mJDAzG5MB3ABlADeIeHvu7x/SqQ1U+eWq329ct37J8XXxq/PrJ8clPo0kCk1OiqzX3dvLY2DsDeOFZwwE003O2gBDp3eyo7xC9bb2PuuvdP/PHyVy/UrCtQKNaVAOkAFiC7cFc5tCURYChYRmAA6jGNlTetOnJaQ1NV6h3YVGpNMmAchLlnQGwwEOjABqKZZRjQJG33AGgVTkE1EzPMERr79MYfjAIZcULFQw6WauyEOPDx6WXp+Knv+/3ui9aoPnkJ/+25NOf/htXb28ve2gQRzM8PEAFyIQZtQzvjPLUdHU1Y86j4oqKl96Tm4+mqOjoWM3hiNfCwuxaQECQlpmZK9avv9MAGnhn7AsCja+3Rq1b+DNtSsZTKsAGQi8OYvfux8XOnR9ftPf9WpPtn92urb1tbcnqzau11sZWTKjIs0ZjfBUso3syRvSMnEsXyXE53mkt0AMPcV5Hjuwurau7Lrtqv2PBYGlkPBhooAQ3EmoMoME6eG8AMmGRYTy7+e4f7db3PrL3zQDipwBCeOtNzEiEwVkPKMLbN2AUPWXImJzqa+kTo8OjePH4mfE7v/jlXZUVm1Z48rfkC3id4JmpPlotMB4NenKhuRV1TF97XyEBzQ3/krpopz7Izd1YtGnTbdrEBJpuZgle5Ei7jL0gZDLwktfkMow8BAaFtnWGh0fqmD2bV76LMjLS7+7padfb2+vL0Mzg8QSWrVlzG7w3TtUUAYMneyeZ5256XuavkzCj4AcpYIZWERjBzSpVQc3Fi9X6Sy/5J827EvLwPz+sZa/KxkR4TjcVpeHeYe46OjwwzAZRuZARRBgRnCAc9gTDMyPvMeZram09XzwyMnjDz5K7kMSmx2qBgYFFePuF658DOA3FW621R5MjxiFqymswFPwDPW09byY/T9Gb9Sl64z3V2dB5qqupa29bbdvelvMte+nz3v6O/r2DXYOnpianTtEb8ynjN37xy7suSZlJRQT2TjSBIdgY8UFopgLIw/MzPjyuP/kvT+4yNr+hRVr5RSi9ve362FgfB70qAyHffGVwl3LpmwaE3uxCw7hJJzk5U4uJSSoxdvWeSnNzpe50LvWSNeBEghhck5yQeBe8wpsZon4jQUd+h2YmQAxgJiJCKgCnv3/A39R0BeS2j9xWsnTV0vLMlZncrASvDAL2ADQYAZfHLQlEs+Icu6bZIHOANrriy/eIgYHuUgzMyB/8cokETgfqqkstXO+AQ1TgUDUGDPIZgIPvGk41FPu7svrlepNwR3gxXpAQP4MXVjR/Ic4GnsPm882iv63f7+E1ZNECDZqO2tubDCOB4FcEWcKzAYMh1TqwnhVsoqPjhdOZrd166weuyujBb0+MtlODYmTq+1ktQ+RntSxTqwBo0NwUHi5hJjISa2eFrr/ir/Dfodz+0O3l7/v0+1wIyhvoHmCX78TIBAMNejZYB2EDZMKLEBSMHk1yYEMoZoBva6vz34vXEQzrLnsFysBK5fFCfAHyVnojqYKPCBNnXj2j7yndc014Hj/wpQ9oUOOjX/zyjqRiX4U+0DVQih6TiMvD4IGYG+3i6Yt6rV5bvOcne/z1iCGW9/zFJzt3/sJz880f5m7b4+P0hjw+wrE0qgnKqjKuBmPTyHRsbEQ0N1fT9v2F+/e/t13ePvjB/10SHh7hAnDV1Lz+qSQmpovNm98nzp17VTQ01BlrpaSlLRPp6cu8HhoADbwyBQXLGHq6uibEF77wQX8Pp7cpmXmZ2ootK0q2/ck2ngQPEIPumfDKoFkJ406o8Sp4HApSeGt4mP+uaeF0FND9k4HBFy4c119++Ql/MPAbyIrNK8rDI8I1vJWqgfMw0zDG7YiMixQxiTEc80KVfuF7NR7Hw//wsGvOM6fxmCOzcxpBF5TLxtT4VCniHjxTntJDTx/yGx6/vC3BvGb2SLuGMo9nYXhwWFQdqvLX4/NkUQPNn//5v5c/9NDntb6+ETE5OcZAgwBhAAv35+e4GgU3SGWQsIIajFuDt+Tu7rbiY8euDcrdvHmHj9fIZvN43/RCQ+2uhx/+O7F+fT5dl0f8wz/8pXC7699UofZ4bHpnZ7NobKz0PwRvQzBaZ/6t+SU3/dFNPBw/jyg6MeVtZsIymkLgSVBAw901p2YYaDCarG0oSqxevo3L44kTzxdXVh7y34s3kBUbV2CwNBfiZBAACaDhgdMIZFC5Y8JPzGnzyF898q663RE/FegJdAUEBWhQ2exreE7p2QTYqnsPoBmhOoqgt7h879UfA8svfrlRZVEDzQc/+MWSL3zhW64JMiaTk/S2PDHKikH04KZGkLB0WSugMQFHjlEzxePXdHQ06ZQW79v32DX7BvXZz/6zlpu7ofzmm7eJqKhAUVXVKg4c+K1+5Mje4oqKff43v6soGNti3Z3rStbftV5DUwdgxWqs4Jnh2A6jaQRAg+9VvAdmlsaIouj5tDLtfaKno0OcPv1SoT9+5o1l+Ybl3HWbB8yLCOfeTOiZBEWTX/KSZHHod4eK9/zo3Wlu+vQ/f9plC7C5goKCNAQmA25VLA+av2S9Y4w9YkANoBcxVmgq6G3v1UcGRorrK/yjQvvFL1daFm0vJ4jd7nCuWqUVRUYmyjcjVlQomLUaFYzq/WOmqneQimWA+z8szO6kdVp29nq9uvrYNdfjZPv2j2mZmfnlt912v0hJCRMXL/YRzDxN6ZkHDhzwjxB5pWXD9g1aak5qUVpempaSmaJtuGfDztW3rdaA/zOTMww08MigyQkGi8udJQYKEOMV+g3KnfpuaLRH9Lb1o6u2/039TUhsaiyeXRcCfwEOCK5Wg+w54h1y4LGDVbvaatuu2nP78Dcf1tbfvX5n4f2FO0NCQzBfkJPHwzHGJEFXbx65GIOwhYVwDywecM04Z+6ZFWj00AoOdE6NTWldTV3+++8Xv1xhWdQeGsjf//2vydB/SBuhtyA5EeUYD6CHMWcANuZcSvDMmF28VTMUvDdogoKnprOzSUxPTxc+9dR3rhlIwAzh9933v0ruuecjWm5ukmhrGxWHD78knnvu0dLDh5/xR7e/Q4H3hYyNiw1OcKBLGSCkAJMlBUsEGTM50JXx1s2xMeOTnGK98s4gVYGrvM6yHk1UeEvHwFijw6PF/vbvNy8rNq7wAGIACxGxESIuJY5jaDCwGIGB/sP//cOrEosEkJmzzZUQrHDMFMMKRpANMkaHNcoJvDP4U9DKTU4z0jsDhccOsVTw0sGj19veK8aHxguP7Tnmfxnxi1+uoCzaXk5Kjhx5WUdAsOoSq3oysYEyushKld+3ttaK9vaL4sIFXdTWVoi6utOisvKQOHv2NR6Gfnx8+Jrozq1kzZrbS2666X4tJydR9PXNiOrqs+K11/6g+2HmnQtghmCjhEDFRYbIJT14kvGnxqfYA7D61tXslYEnAAqQgQJs0JseBozFSJQ3kJWMnVpWXhrAjh9m3prQ/dEVGHI+G3kNoBgfGb/iefmxb3xM+8TOT5QHhQaVR0ZHaghChqopFsKjzIkw1fg4fK+DDBimFB4afKeUR5fFwID0m6j4KMDRNVXP+MUv14Ms6iYnSFiY3Z2WtsyVmprNb8PwyMg3pTkCALdwuy+KhoazBAInBIKC0Uvo1Kn93G0WXhnM7wTPDv1Ep+/L5uamdtXXV77nzU7wzNx998d2v//9xdrq1Tm8rrr6ojh06Pf62bNHint6rp6L/UaQzIJMzeaxlZNxdKK8oOwAPJRxwlv1lvdv4aYE5ZWZmpwS0+PT/J3XA0Pq45GxrIN6g0PHZLfuifGJ0s6GzjLjNPzyJiQ2JRZDy/Pw8hxLQzCB+Bl4S2r0ml31FfVX5Fl48GsPauvvXL8TsGGPtjsZXuhYDC/GKMVoXsJ5cMwMBrWEdwZqgKyCYlZaD6Elb8p1E7x9M7POOPprr233lwW/+OUKyaJvcoJ86lM7yz/5yb/RJsngnDz5MkFMI8+s3dvbbmwhxM03F2GiSIALd9f+zW++LaKjk3R63dMDAjyl+/Y9fs24fwsKNmvr1r2vZPv2j2u5udkEbTZRW9spnn/+l5Tq73k388Uu6LE0MzdT7vWuGKImnoOs2bpGYNA8Nj4IKLcE+2IdNzUBoI2Ul2fltlaoQQoYUl27J0cmiysP+XuavRXJWZvjCg4PLmHvRlyUIBDg5iYCC/0/PvMfV6S5CV6ZwOBA9KjSeARiAhjVzAQPC2pKBhP8I1jxfiah0uD1GilgUZDMzZRodlJxVwgkp7LAAcJtveLg/xyUO/GLX/zyjuW6eJgKC7e7PvrRvyg5deoQx8HMF8TIwDOzdeuHRUrKEu7dVFt7Em3hhV//+vvfFhw8+OCXXZGR0fRWFojZtMmQTWlUgWmIzVFeogsXdH1oqFfv6+vU32z36s2btxPM3F1yxx0f1pYuzaT9C9HY2C5effW3oqur9ZqK71msskxbVjI5NslNTAAONkKkeONGbMTStUvFqltW8Rs3w4oxUi2AhkeuNUCGjRbgxfjMEGMBGvwOn5URA9CQgSv0j2b71gTetLDQsHKABjwzAJq8zXmY7E/f/YPdLne9u8LY9G3JQ197CIG+JegWrsa6UTCjvC8MMRCAjLGs0ssBjYJdBTQMNeNTXBbQjR+93ugaio88fcQPuH7xyxWQ6wJoMjPztLy8Qh6vZW7OowUE2CwGY06H92Xbto9pS5bklt9yyx+JuLhUMTU1Lvr7OzH7tq7rL5bu3//EZSuVhx/+BkFLpBYSEqoFBYVqwcHBmpwRmyo8MoKotDD5JWb9RhwOBvcD2GCcm95eNzdrTU9PFNbXV76uIdu27UGCmbs4ZiYry0m/8Yjm5mbx8su/EW53a+GePT/yG8IrICtvXekiw1ICQ8MQYgT7QtKWp4m1d67lpiaGGQNOuJmJAIUhRgGNYbBUyvsC0Biz66rf8Vg1g3K6/we/+mBpQGCAHhwYrH9B+4L/fr5JWbZhGYBGw+zaAJo1d6wRLdUtAt2fR0ZGXJUvV75lqMFovsGhwWhe0hAfA5jh4OPwENn0qJqQDKhhAdDI/2RKwkAjF3h5PtBwOVBAY3hpMJS94aXRDzx5wD/Aol/8cgXEeEpvDPnABz6vpafnla9Zc6uIjIxhGMGYNYilGR8fJeMyq4+Py15S09PjHFwcFBRCABOihYc7BAENBxZTXUWGiyqo6SmOv8HYN9gHFLE5UIyLA8F4N9iG9l96/vzRywby7tjxWVde3saSW28tEhkZyQRFs6KxsV688MJ/i66uhsJrqUnsepCC2wvKMfU/YAPQgbdxwAy8M4AZr/cFkGLEw1gBZj7YLNTUhBRv5Aw09Fb+J//fn4iU7BRpKNWbf5CtNMCIzadl7z3+zLLP+N/aLbJ0zdISgg1XZFwkT8638b6NolavFd3N3aAIfXRg1HW07OibhhrADN1zCTMxMtiXPTMEMyqYG/fIGhfDtaUFZC6pPQE0ABmlRtlAOWEvDZUzjFmEoHJ46zDYHuYBG+wa9Pd48otfroDMfySve4G3heqX8qysfMznJKKjEwlagrlZCvCBVHXtVj2k0IQkvwfETHLXcDUqMbwyw8MDYmiIKqbBXvbGYD1+v2KFxh4aAM3AQKdeV3f6kjexzZt3aFlZeSU33/yAlpe3XiQmRtK+pkR9/QVx7Niz+vnzx4oPHfJPC3+lZfOOzdrMzEwJgQcPkEaGjd/OYXzgSWHjZBgjwAnECjBqmb83tlFNTJwSzMCATY3RG/nYBBvhz3z7M2ZA6TxDySkJUjqC1ziSlOLN3mPz6I/velx/r4b3f68FzU7h9vBybnJKiRM3/dFNmL+Ju8Ij7olAwTPQNVA+OTX5yOkXTz9i/GxB8cJMjJ17MPEIxPYwERSKnpAyKNx7jwCeCj4t9+hycjmgQfnwaXYaGROj/aPc7NTr7i0+8MQBP8D6xS/vUC7/ZF7Hgqad8PAoV3r6ci01NVtDfA0qLwi8NlypEcjAAwPvC+BFpT097aK/v4vSVhEe7ijt7m4GsOhdXa20rs1bKd1550dL/v/23gQ+jqvK/71aW92t1traWpt3O3ZsJy45DsEhJCEJ4FEIZHgz//CGECbTmoEZ5r3HMJPh8/i/GHgD/AkwMP9HULOEQBIWk+WPlc1x7BA7iWV3ebclW5a1WFJr39VaW3rnd27d7pLshCwORNL9ta9vVXV1VXV1qe63zjn33Kuu+qC/puag6Oq6IDo7L8AdVUYl2iDdffdXjaKiFZVr115j5OcXC4cjgdYZEg0Np8WBA8+Yp08f0lmA3yVt2nSzPz4+zp+UFmckeqZEJH482lDhSR3TaIjgImCLDQiDdEmgocbKPs0WGoIaPInj83g6/7vv/J0oXl0sry107wUso+FEQ4nGk6479deoGkPAkSoMTFSoMTQBN03Hm8xvfuqbuDYWzfWxsmxlMC0rzYDLCUBzct9Jtn7h90HsE2kGuV5oWZDO+Y/3P77/IrDZ9g/bDIfTwWCEAphBsDGgFr+HApqLoAa/E64P/LOuk4vEHEovBTNWHb0uEFhuczvBSgO3U+eFTvPFh1/UbictrXeo1/nLXDxCcG9yssM/PR0xXK40gpRUAosUkZSUwtYXWFgwsvfw8IA5NNRrDg/3mQQ0ph1M5srv/5Y/O7ugMi0tSxw79rKorT2I7QQuXDjDLqdNm26E66vyuuvKjTVrNguPJ4MarUlap4Nz4hw4UGW2tdVV1NYe1jBzmYWg6+np+EqkrodLUZZkEYkbF6MzPWJkqosbLDRoaIQgNExKsLDYGyquARuYxnKsS/8ANdxle3xK5C7JFf/4//2jzEmSZOUlSU4WSQlJDDYJcQm8T/q0mIY1EMkeI1ME1LAITsrtTE1FLUDYNkrD8QZYfgK7f7Hb3PXQrgX/hF96ZWllRm6GP68kT2zethljODHQYJynaGZeAhA6NzMjgyMzBA0mTZszkZkf73l0z2HADJ37IMaCQiwO4mZUvAx/FqCpgAYgkxADGgWcUaixbp34zTCN2loQvQ7s14kCUsAtgAaJFgFfSLRIQIPg4LL9O/TglVpa70SLHmjmCgG/Lle6kZlZIFwuF8NMd3foTTcWn/3s14OFhcvp87kC2YrPnz8hDh9+0QwGd/ET2F133WcUFq6sXLt2i5GXV8oNHFxUra314tVXd4q6uqMYKHPeNE7p6V7jwx++xygv/6ixZEm66OubFv39MwSAU2JsDLFDYfp+AxxfBKtWV1fTn6WLPFx71BZVJiQkGjL5okrAmMjvM4iQJqZHxNB4O5WOaOMV/Sux2ixIrc/1nEaMGy+CD5Ut9h++/w+idG2pcKQ4hNPlFKmuVJERnyFS6ZVML2pOBX1CEL6IcXqN0ovOmhidHBXjY+N0HSEOayIKNgw09LSvgpmxj8HeQfN33/mdefIPJxdswkWMdp6alRosWF4gtt65VTSfbsb3ZkBUmXsV1JBmYA0ZHx2fmZyYnJkcmzxMv+dmZBhmy0y6i+Om1GeiljObhWYW1NC1wIXghsWXRsw9aFf0WrBbaeiaUO5I5DMC0LCVpn+EMwd3NncG/vDrP+hkmVpa70DqVq31DnXXXV8xMjIyKglSDMTlwOICGGppqTP7+7sqCIpEQcGSyrKyW4yVKzdxULKgRqy/v5uT/h06tMtsba3DCMzz4intvvt+jp5Y/oSEaf/Gje+nm76LYGaCnkbpiTVuhuZnRGLitEhOnqZ6huBGiMHBKdHe3kCw0xU4dep44Cc/+fd3/bvec89X6Rjj/U1NtQZioAAyABqUmGItErU/+F+MTQ2JjoEzDDizZGu8uDGTE7KyYIYbrknpetp06ybxif/zExznkeJMEW63W2Q5skQuvbLp5aKXahgBM8P06qfXAL0wPTKCAVfHuBEEvDDMUFHTCmiQWn+4f1jUBevMo3uPBlDTIS24J364nXKKc4wP/+2HAQGiN9TL8MEWGkCN3WVEFyLO7cjgiOi60BXHMJMtLTNzIYhBiD6jakAMb2Ou2wk1bptz75zRS4Em8M8GNXZLHq4N/r2QcZp+MwSL93X0IY4m8MyPntFAo6X1DqSB5jLo3nu/aqSmeitzcgoNtzudblpTHGsDmGlpORvweDLhWjJWrLjayM4uYKsAAoUBPAcPPg83U+DIkT3z4WZmfP3rTxrr15f6S0uX0XdOF729QoyOCm50JyfHZGM+Z9ws1CroGjFKHk863ezHRGtrjdnRMVzxzW9+6rI2vBiZHJY2aogIZpINwOW5c0cZYmARU5c9GigIDY9qkRTQAMwQDH6u7TURiR/jRm3WX4vVaPEkamuerTNouAg2MBL0x/7pY5wEDnEesM6k0/WRk5Aj8uiVSS9qNnkbEKGJ6LO9BiYGRDgcZivNLOsMis06g+BjDJQJ9wtcGN0t3RyfEaoPmcHnggsqNoPOZWW2L9v/0YqPcjwKgQoDg3I5zY2BgRWkuaZZZORkCLia0JsJcDkXZhTIqHoW0KBWMKMsNbh21PXAP7+8FqLXhVVzsaCGrw2q8fshMBjB4mNDY6K/q190NHSInT/cab/CtLS03qL0H9A71N13f8WfmZkPy4xAgj2ACqwQ7e1N3CV8+fKNoqhohfB6CwVy16BhR08oNLBHjuw129qaK06ceG/3XHnggeeNvLw4f35+un/TpmvoOwjR1yfE0JCEmfFxuEXQ+2uMoUVBDGoU1TsM7+EGj3G1YCnJzs4muJkW58/Xms3N3QQ2n3lH5+ELX/i+MTMTh4Em/RhFHXFQDoeTM0PD3YX9Klksw+L2B/9ZjZJqiND4DId7RF3ra9wLxt6gqfW44ZL/8fpovJRr4d5v3ws3CTegSJvP1pmULJEfly/wctDLLriceunVQy8AzeDooBgNj/L5BbSwmwlWGYCNDWg4yJSABo33QNeAOH/8PAMNelZRY7mgYjPgdvJ4PcEP/c2HRHZhNgMNrB3KZWSHEVg/zh0+x+ule9M5zwwsM1Frjh1mlLvpDeJo8LsrsFVAQ0v5uPhasM9b1wRfS5Z1hqHGioNScTT43eA2A4R2NnWWLdZebFpal0Pyr0/rLQs5bVJSPJUuVypibugmRU/JY2G6gU1TQ13AJSMjV7hcHpGYKAfLRE+pjo5mHp6hpuZQ4Pjx977P/BOfuCf4rW9938jP9zDIjIzAdSRrCTOI7wDQjFFB4ztqgQwaXnSDn+DeYlgHUANxgxGPQNh4zu2DHl5paUKcPl1rdnd3vWmw+eIXf2gIEW/QdrimxsYAyGCbCmhwzoPBF2SjxCASu+Qxi3aImx+eQB2bl5alKdHYelT0j7ZJqKEPqYJNRaGGavuTOJLz3f6527krsLLOeFI9IicxRxTSK4teqvFTgsupi14AGridhoaH6ByPxtxNc6wyahoNIxp1NI697b2i/ki9SM1M5UZ4qHcosO+3+xaUK+OKa6+oLPtomX/99evhqmHXDUCPIUQV+r3RrRsgiV5R6J7NI2VblpyoRUfBDKbtUGRtQ9UMNFTU+E346aLXggU7fE2QZl0TfB3Ja0JZ7hhK6bdTQANXIVxn3a3dFU8/OH/i57S03muafUfV+qNCcGlycrI/NTXDD4sLekZlZOTQ03c691ZCDUuNTMCH1lE+scMq09hYQ432a+jiXVFb+95PpHXPPf8e/Ld/+6qRmZlIN2W4lSTIhMNyegJ5VqIwM0Ywo5ISAmQAMBJkADVqHZyPOKtXD4AGNaw1iCkqKVnB6x848LzZ29td8dhjX+Nz9JWvPGpMT8f5rfYCwITRsfmzOM8oiYlypHUJMpwQkZdhdPVTp16z9if3ebEkyKjfK9YQAWikq6y+5ZAIj/dzr5jotqyGjNdnF5VsvPJK88Rnv/FZbkDZOpPiEC63S2S4MkR+fD4DjZNec4WYmSjQTPWL8AjyHcnEfwwvqhDEMNRYXYCV+wK9ZuBewTziRNBgDvQMICtt2eFdC6fHHMbiWvm+lZW3fvpWA0MI8PcfoWuLrg8GEPqN2863weUmvEVets4gADgKNJdwN6Hgs7Og5lJAg2n6zaOWHMwnWNcDvegqmHUt2K0zABkVLA44xXGPjsgs0oij6bzQGfhf3/9fOo5GS+ttat6Ptv2nVlHRip1eb2E5hk/weovYEpOamimcTjc3oriRoeEGwKDL9/nzx4Vp7hYnT74SOHZsb+Do0ZfmxUjZn//8t4Kf+9yXDbc7kW7asMRIy4y0ykiYgcVFFVioAG4yCSHcTnaXk7TUKOBBry6Z22eYlo3w+RodHRIdHa10DuPExz52vc/hSDO83uXizjv/2R8fn1hJEGk4HE4qKTx2VkqKi7vY47wDLFNSMC3n4WZCskRYgei80z4QA2M1OtTYyUZJFblMFvXUDeiRjRKsPZmZ+cKT6hWNF07wMqyDGi8lnqNlWHTnF+/kRhSNJ6AKFpqUlBThSfJwIHA6vegorE/GNESvQXqN0Gt0YpTOC6xbdF7xVE/nc9ZTPtxPlsWGoYYKgmQBNAXLCmY1opHxiNla17pggKavsy/kTHOK/KX55TlFOfxd+dGMzj1AA3FEp189LTLzMnkwS0Alw4odWgAqtjLLtWSBiypRkKEa24DbCtvE7wpYdTgcPK2sPrxNrM8HJcXXCv1Dt/wo5NA0u6DoNwKchvvDouZAjbbQaGm9TcX+4rT+qK666obKnJxiv4qHQWOHuAy+eVEjpxLxYQyn/v4uNNqBrq4LZn39sXl1k/rSlyqDd975t4bHk0DfEy4iaZFBzAysMzI/CqAF1gsAi7RiSGgZpe89wpCjCoAFIDM83B9dF5/HewAgFVMDCIGFBed3/frraDs94siRA+gaLjyeTFqPnqQT5PmGMC+LnAeIyN9C/h6InUFeHzWPon4rCS1SDCJWjeNBDesM9gvr28jIIB/rnv2PcEwNGjM0XtHGkBo65W7CKN0f+buPRK0zdndTbmKuKKZXBr3mipBEdNMLFhq4m4aHh+n7y/gZtsjMtc4AKGGhwVP+8KgY7B4Ux/YeE3lL89gawY3k2CRbbno7es1DVYcWXOK2j/g/Erzjn+4wYIUC0OH7wtJxfO9xzk3jLfRy4jy2zjjo90D8jM3tpErU2qJq63eNFrpmsB4DKgptAyCT4kgRDlgDEZtFd9LITESM03UyPDgsetp7OL6nq6WL45oGugfYEqO2yQHBw2McqJy/JF+kZqWKjsYO8btv/07fk7W03qb0H89b0MaNN/o9nnROmCcDTKU1RlochkxqpM2JiVFzYKAPo2vPyyfiz3zm/sp77vm//W63hJlkq3czLDOAmdFRGVei4mQk1MgCSIHF5bXXnuYBNQkAxdVX30TnaJQa6AEGAwU+ct1RnlaWHTQcAEW4nwASV199DT395nB+Hnx206abaB0JMfy4i2fg6BUsgUVCi4ScpqYacfz4Pp5WEBODG1nbhWMAlCDuqbBwBX8OcAbLEo61u6dV7Nr7MzmAITWS0Sd5aqAAQTklOeJv7v8bBhn1FM/uJpdLZLilu6mIXin0mitYZzrphaDggSmcqxExNmrrrj0nfgYwg6LymSDJXlt9myhZWxJ96sf6iK0Z7BoUQ91DZSf2v/HgqPNNm27dZNz0qZuCyzYuY3fb0T1HxZmDZxg6cktzOd8MXIRsPZkLNHa3k4IZwI0FHFGwoeXoGadABr+70+kUqc5UkZ6QLtLi0jiXUOtIqzh48KCo3l0tuloJSjv6+dzj9wJUoSjrGsMXLDLWCOzY78YbN/Lx/uYbv9H3ZC2ttyntcnoLys3No8Z3RgwO9hgDA11md3drVUdHS6CtrXF7ff3R7R0dzVXd3W3IJvyedyldSs8/P2FcddX1lQ66+ScSr1FbTY0+Ylakm2lyEo0+hgRQlgxpzVCWDcAAQKa19RyGgWBgWL58A1tnYLkCGEjrjoy3AfwoSw3AEOADgMD6IyMDBCT1IifHLZYu3SxCoQZ2HyGHD1xVGD9LDgIqBxel34TqXjrWKR7xHMeE7XR0NNI3QxuhYCcGM6hjsIMi2H2IY3YTgGAbACf1HV1Oj2hurhETU2Fu4LBZfA5slVuSK27+m5v5iVs1llhnrrspjV60V5zuqAgL2dWEF+JoRuk7cc8my93EDSHDIxWaZ3eTVQNuGk808phAECAKx4Xfgq1GFtxQI2p2NHYsKKAJ1YdCBJfla7as8VXvJJBo6WLAQxZgwAGDCyDFsrxEgQXzFvQylFoQYwdU/K5sZbMgCOdVWdqyndnCl+AT2XHZ4tSRU+LB/3xQPPGrJ8SBZw/wbw+lpKZwHBOCsxGYDNFVxLX6bVDwW83QPQW5ctArrWBZQRX9nvPy/qGl9eeWBpq3oM7O1lB7ewNBTBPgJQCgoUbVDIcH5v0NqKqq36DGPiiDa+MZaNBWo6B3k4QZFMSPoLbDjCzoTQTYwJARABa4mNasuYanZcxMmKEF85gGjABkYN2Bi0cVBAbjPaw3QE+wQ0M9vO2srDwGG1jEenraGFwUzGA7aLTweQASlgGKYPGRAdoSwLgFwf+zLDUoQqSlecW6ddeyqwmfARxx42N9Futjm129zTGgoRcsMzd+6kbhW+6TT/I4h6jxRA+XU4pTpMenM9Agkd5cITMwEunBShOexnkhwLMsMwpm1NO9KkjcB5hpq2vjmBE86aMnDwAGDSWOi2M06Pjx2bHwWKj9fHuVtcsFo9S0VDN0PmQkOhJ9+J4YvTrbl80QAYCJFjvQWNBiLwpsVK2sbApm0MMNMONN8Yri+GLRUtcifvSjH4kdO3aI6eRpXhfwYpcCGNT4++BZVApmMIvfivYJOMUYYnRsZsPxhgUFnlpafyppoNESTz7ZZdANP4ibPhrjhAT0HpIWGtyHYaFBDfF9ma00srFUMIMBOGGVUa4nAAaGc7j66g9SA40YGsSEIAhYWWck3MjtxGBGzQMmVq68SixdeqXA4KEAlJde2sGB1m1t9QSXLaKvr4NKFwdgA2ww3dvbztPYT0JCEsfe5OYWi7y8EtouPQmPDFogIwssNsCSzMw8sWHDBzjIG+5EQI4dtDBdX39MdLQ3lw0Md/jROOLzeBJ//yfez8nz2DKjXBlUY7wmBIy6nW6Om8EL7gm7pugFkAHQqGDgaN4ZwIuCGdSWtQUwA9hBd9+2c23cKCL5HiAKjSrS6aORFHIoKrYA0Ppm69nWBQc0nc2dofScdJOgww+3E85RWo4MBI6CjA1mMK0ghgvgRlll6JwpgFHWGRS4DVNTU4XP4RPjoXHxyKOPiEd//agIT4X59wc84h9L/Z2oCSXMWoX/ZiygUULPLMT9JLuSqxqOaaDR0no70kCzyPXb37YRzMRhjCMfrBKyoKGHFQM3X2tFkpqenrZ6+XCRULN//1MiKyufQQZxMajhZkLxegsIMvrZsiKtMxi5fIShRQEDplVsDgRLSWHhKpGeni3Qo2nVKkOUlq4VdXVHGJhk6yAljwPbUb2q0J0c7qshhh1YcmA1SkvLZmDB8eFY8F3REsHyg1gfr9fHQclo4LB9WHoQIxQKnRcHDz5nNjaeuL22Nmg6XI5yaiB9+UvzxV/d91ecERgAE7XMWDWsM9wYJqWyqwkveoePWQljNinrzMgM3HKzrTMKZpS7CQ023gO0nDtyTj7t0/fHiNEf/8LHRUZuhqg9WMvbZqghARKpsTcIfrbzggUmuJ6KlxdX9bT3+OHmQbxKFCxtZRbEWNMAHJwn1GyVsVtmLJhBl3vnsFM89uPHxM8DPxdtrW08hAJAhmFGCbBivfBPLopORAs+g98MAhSrOsmZZO7fsV9329bSepvSQLPIdeed/7yTbuaw0PBNHQG1ABrcZ617Lcu6/3KNQm0k1dIV88gj/8GWFDQUEk4m2UICqAFUIMC2r6+TLTQACbhtUPC+LKMEOUjINymcTpfACOT5+cuiMKNyy/h8y0VJyWrR1HSaQUVac2IQAyBSFiI5L5cp8MK+UKMXFSw2OJaUFKe47ba76Qk8Pbof9LbCNpqbz4hgcJfYt+/xwIkT+2+n78CuxeSUZIMAwrjpf79J5BbnSpghgLE3omgQYZ1B/Iw7wS089ALQ0Lt8HiEk0rPHzoxN4lxMsHVGwh0BjAU1XGwwUxesi8IMXEs4jqLVRZzaXw1/gGNCQ4n14NJwu9xV3aHuBRmf0Xi6MZTmTSsnoPPB3cS/B34L+k2iIGMBDE8DaqiguzZbYiyQUTCjgNTj8ojmI83iu/d9V/T394vsAromUwl642bHQSluYam/FWtC1QpemIHU+tYi/NaTo5NV9LstOCualtafSnP+KrUWkx566FRlXNyMgWkJKrK7Mt1bowXggqKkQAeuGjQIv/zl/ys2b76NXTvIw4McMMgT43KlCrfbw+CCeBhYSXp7O+AyMgksyk6fPhCH8qEP3WU+8MBucddd/0qQUSpWrSpjS4nbnUaAgQzLSVSk1QP16tVl4i//8v/g/QBkAB7YPiw+2Jd0P/UKdJ1HzyplJZKByTIHDtxWiO9ZsmQt7UPmrAHMcPCuJ5m+75B4+eUnzZ/85MsVzz33i7KGhlOznprpPJmIlwFA4OmeG0bUtoaTG0w0oAg+tV7Rp3US4QlbZ9jNRK/xGRkEDGBB48awQkVCGxXLUgOYuXDmwqxt2SehVZtXcQ8b3g5+WPq90EjHu5BReeGKrhED59x+3jAN8XnAP6q5WC8GeQCpBTEMo3StAWwSphLE7l/uFs/ueFb4VvoEBrdUvzfOKQDFXuzL1DTWnQVR1vWhwFfBL71HfxcTOgeNltY7kLbQLFL9/OfHDQKQSplHB5YZapSjAbIwiaMrMm7K1gdImIcAOJh+8MF/FR/84P/GVg20FmhAYFkAFCnQ6Oho4iDbhoaT5vj42O01NQe2d3Y2s5XA5XIZa9Zce/++fU/w2FZ5ecUiIyOPLTPIwIyhC5CfRuWoUcnykNTwiiuuERjYkxsJPvbZjQuWQTgmSH4P+WXkNIBtiruIP/fcQ+L8+ZOcUfj48WpRX39aPPPMT6saG09tn5wcv8iigS7AuaW5BgGND+4Nhi3LOqPcTWgQk+m42WVBLze90F0bLifADCwycDOxq8mKnVGJ9BTUoCjrDNxNw73Dovl0M+cz4UbZBj3uDLcoXl3Mx+dOc/P4QMh/gmOCsM748Hioo6ljwVoA8pbl3c+/B53/qIUGRVkfARIKLqgAJGCFQWGgsaAG861nWsXP7v+Z6OvuYxeW/RpjWFHXklWz1CTexzVo/S1F18FyNQ3R3xDci30dfSb9NhWNJxp17IyW1juQttAsQv3wh6YRiUxX8lMr7qp4VkUDOSOfaqXrBmWaGlgJMChYHQX39P/8z38UH/rQXZydF6ARs6QkMYAgYy+sLIhZOXRoV6CmprrMPtxDQcFyIzd3aeXRo3vZooJxrzyeLHb9qJ5JsgGJNSTqGHG8cD/927/9lC0rcGUpi9Gl4AyABbiCpUbGxSDeBt81wseyYcP1Al3A1X4QWNzT0/a6T8sEFGbdobqKF3/xotnX3sfL0FDhs7PaKzpe7IvOpBijFywxeAFmADFR68y0bTTt6LFJ6wJPW1DDMDMYtjYuC/+G1rRdH/yrD3LSPWWhQOOKOJuFLL5GIrZzZq9xPvn6kQXXiAJRdONWkIPkfC/veFm88vtXROGKQpGRlyFjkfDPuj4YVOZa5Kyu4Zi2AxTWU1YdlITkBA7+RUFX7da61kDDsYay5tpmDTNaWu9QGmgWoaanxyvp/m65mmIwgxpWC1Uk1MDaEnM/0SriW9+q4LgTWF6k5QQgI11C8maO+BEnW1nS03MQSzLrZl1SssbweDIrc3IKDeR9USCDcbAAMwAibhAITuySwBVrlNAz6YtfDDDcwJ0Ea5M8BtlLSX0mtizOAgZYkaQlCXE2gKL167fyd4Vb7KWXfhcYGOh+wwZmoHvADD4XrHj8e4+bredaoyntFYRgP7C2jI2NcaK8rpku0UqvFnq10wtZgQdnBrmbNltm6Dg46NeClyjMWKXmtZoozPD3t17y3wx3+Z2r1ZtX87awDr47rEYLWgzeFrzYfgt1PtV1w2ABixoKX2c0n5ggIqMR8Yv/5xei4UQDJ+RTVjcUtvioz9gsP7OgxlbsIIPu9MhPlJ4rh8MY6BwwW8+0Vpx97WxZR0OHDgLW0rpM0i6nRaYHHtiDfDP3S/BAkS4nBQDc+uF/uvFzUylnqYbpIU78z//5L+KOO/5JZGR4uZGU76mGV4IQQEHOAxgmYEEJtbc3savD6y0xMjNzKgloDACPx5PB8TfogRQDGhmYq4o8Prl/1PaCoOEtWz7CcNPQcDL6fZDdFdsBrGAZtgMrEjde1rxcJuEH++/tDYnu7payw4d3v9lYhlBPa0+g6WRTiIDCR0/zPlhB5LFS42qdl0kESU+Pi/BMWAxOD/LAkwOTA2JobEiERxHbI4OBoxYaaoCjNUEOBmBEvhmACxptbpitxlo10o3HG8XVN1/N+1VS3brRwGId2qZ5oebCgnU55ZTk3A8QicbDWMAB+OCargt2MyF7cIosbDFxJIm4qTjx8/t/zpmWnR6njH0CnND1gqIAJQoqlpUmei1aLwh1siuZe5xhLClsp72xXeBaOfGHE4E6s66iu7XbJOBdkAHaWlp/LmmgWUT6xjeeNOh2W0k3aB8acb5RqxuyvBdbUlAjp2UtxDPPPCRuueXTBBFOWl/G2Mj3UayYD4IYOS8BB7E0vb2dRih0fnt6utcoKFhS6XR6DIALhhhADAuABu4puK/UwJJytGwJHGiYsB8coypz4aawcKVYvnyjOHPmEAf+yhgcBUWw+CiXmAQYO9TgfQifaWqqCdTXH3tLDc1Q75B5bM+xQGQ6EqJGDr1sfGgslXUA7iRYa9Ale2x8TIyOjRLkwQU2xvljuFcTXE6InVFZgKlgfrhvmDMBI10+fhY+t5b1IVpoGfaFnk725G7oFYXeUHCH4LO0jtl8qnnBAg19//tx3mcBjc0VhIIeUApmsB5gBq65R77+iFh+1XIJMIAV9PQDuFhAo4oCGvu1p15QVn4WJ1qEVaa3vRegaRLAbD/6h6Pbm082B8JDYe1a0tJ6l6SBZhHp+us/uZNuygbfmOn+K2t5I5YuJ8SnyHkp2VhCjY2nxerV18jGgT4nJd9XFhqZCybWwAJwYLFBt+zkZGcVAUwlFR4tW/aCSmdXE8AGRbmbJMgomJGuIt4b78sONVimls8wGKHHFSwzFy6cwT6j21MF25OJ8+IYZOzvYYwuxNkcObLnbTX6SIh24PcHzPaGdpOAJNTb2ovu3dxw8rmwIOVSAMPWGYAMzUeXUwGQoGeTghmubSDDhabRgGM/GGlbCY0qNaA8rhAUHgwbrXWtCzIXDQQLDUMKul4DaJRlxnIPYbkCGjWNAOvHv/s49wyLAoqClrnFeh/i2roGHW4Hj66OQUJbzrRgCIbAkV1HAkdfPLr9rHl2O6wx05PT2hqjpfUuy/qT1Frouu++nxvU0AdVrhU09JhWLhnZ0KOXDhp32bNIAk+CQDI8fMYOQGx9sGJQ4FZCjTwvasgCgAG6TQ8M9PB4SocP74mCi3Q1SauMjKHJZEsNLDToqi2PL+Z2ku6wWIOC41DAI49JHpe9RjbhRx/9D/5+2dk+6zvGXGyoZZyPh/erLEZdXa1iz57flFVXP31ZnqQ33bzJf9vf3WaMDIz411+/HggYhRMFI6rmcxqRBXDT2dwpLtRcmLUug6OqbQGwACak599Wsc3as9SZQ2eE+bzJDTIy6b761KsL9m9+7fvXzmDgUPTygtsIMAn3koIYWK/QGwzrIOYIy3/9H7826bcJ0HIjLiHOSIhPMNCrCXdGPs/Wb2GvMeBkQlICEiyaGEUbI53TucW0iYBx63C0tLT+xNJAswj0hS9834iPd1SmpKQYEmKk5SJmDUFjr2pADZYrqIFFRj7hKmBA4yqBBkHDk2yFQUEPIvvQBhhmAEMWYNTrI0f2cJwLoAHwghoDQMZcTiqxHfYLmFHHFttvDGpoipbheFEDahTYoFaXNY4BwyW0tzfy/uT3kxYa+T2TLKBBcRPgyJG+9+z5deB3v/veZQ/WXL5puf+TX/yk6GnvMTbesJFjbPo7+/0YSHEW0ExN89hMdWYseR6/Dysa5q117e8BaJC5+P13vN/amxQS7D330HN8XuBa2f/4/gX7N79q86qgO93NQAKgAeApoHGmOdlihQKYSctOE02nm0wCmopQfWgWhCQlJRl0Pg06xzovjJbWPJJ2OS0CXXXVTffPzEyVw60h3UOIc5E1GkLlbsK8BBXpOnrllafEsmUbqPGXYGG3hqAhZVPDLMkGFrXaDvLQHDv2B96GjJOBa8lF8AC3k7SOoABkZoOVhI7XE3YDoOIG/aKC74PeLAl8/IjjQcI9gI4CNAVBgBtlCUJxOCTw7dv3xGVvzPpCfeb+J/abh3cdrnom8EzVsz9+tmrvY3u3P//T57cXry4OpeenV0XGIiHkJmk62eRDLc+jLLDIKKuMApvoPNWIt1l73Vp2WSE2ByNwwxVCDbYYGxljWGo+3bxgXU65S3KR8dpg91sigasVPwOXE+AGYIOYGVhu4PZrMBtuf23naxdZVOh8huj60ZYWLa15Jg00C1x33XUfPWlOVUpIkRYVCTIyYHdqChlq0XAqmJEggsb+iiu2yIYhCgGx3kZ28SJeJmGGWIKhAttqbDzFvY9ghQHASJhxMsQgjiYlBcVpgcxsmAE8XUqAFVWr41UgI+fltFqGbt04dgygGQOz2PdRFikUvEfnyDcw0FcVAgn8iXR492HzxYdfNPc8uqfqpV+9FFi1aVVVZDpiEoSE+DtFpnk0aQCoNS8LTTPo0Hft6+gTxq2GOGue5SEQkKIfMR1j4TF2i2B9b563KtQYWpDxHNmF2eUAGo6ZUd2r6fcGyChrDVxPsOBUV1WbOx7YsWDhTktrMWrBmp+1pD7+8c8HExMdhnLfzLVIACLUNCwTgA24XQA+S5euY/ePggwJAnKkbQUPsoGFy0nG08DthIJ4GiS8M83dorr6GR64EvEygBoUTMuA4DSOX1GuJukGk+4mZQ1SBZK1gidADf/P0xJQZn9GFXzPQ4d2idbWc2wpsoMTrEY4DglYSOqXJHbteqRi584H3zMuh23/sA15g+AGMQhgDAIYQ7mc8PVRI0YGPWzwu6y7bp0oXFXIy5tON4mDTx9k8JmYmiirfiqW4HAhadXmVZUEL35YYDhOhoAOMIMcMHDrYeBKDF/Q0dghDuw8UHZ41+F39Tzceu+tCMDncdL4d5vm38yg69GkGt22OfCbfheeHg+Pw3qnLUNaWm9TGmgWsNas2WIQlAQxLeFFNuLqZwegACJgNVEQgfwyS5asE0h2pwBDWk6kRUMKlhE0ptJlJa07CmiQvl9CDZLdYViB+vrjtN0cTsQHywyACTEzygUlY2fkviTQyGPFcSogUdMQam7Io8KxxGpkDZ4NNtK9hH0Egy8w1GB4BZWITwUEKxcYYCsY3BX40Y++9J5Nenbr3bcadPYNERF+hhv64iiwzLgz3Qw5yEuTXZTNsTPo+k2NuHjliVcW7N/8iqtXVDrcBDSwyBDMAGpQkNAO+WBgmQHwVVdVB5783pPv2m9b/oVyf2J8oj8hMYHHlkJANte4fgGfeNHfD/d0m5C93pChmIAG1jQTAcb0mwVqq2s13GhpvQVpl9MC1qZNN5ZPTU2UK7hAbyQAB4JlYT3BYI6Dg92ir6+Dg3eHhvrEhg03sHtIAY4CGeWewT1ZgYICIyUFGapxRTl//gRvX7qYZNdsGYArXU8Yr0mBFgogQ+1LKbZd/t+aV/uQriU5D6uRBKtYgj8VIyQDZwsKlonGxhreP/aBfeE72q1DiKNBcPO7EUdzuVR/rD6EbuINxxsCDScatpesLYFrKoTvlJGT4UONzMJI7oZAWPTuwbLgc8EF62bJ9GX66LcsV7EziKVha43byYnuUrNSuQv8yVdPVrTWtl52t9sdX7jDv3br2kran5/gyedKJ7ik8w7LEEBTARb3sKLjitZwh9HxcZyPy+FLTE7kHlf5hfnmQnUPamm9G9JAs4CVkZHrJ0AwFMiosYzGxoa5qO7VgBt0sX7/+8upwV86y0oii92Vgy0ry8fFUBMDDQkZTzzxXwwIygpihxkUuR+5LwUzsKbwx2dJLlDblttH3pzYvAKai6Em9h6+L/YJwMNnFTzZgQbHMj095evr6/6TxtG8EzWdauKkeUjeRw1jOXrxtJ9v50ZduVwwLlH+svzyI7uPLMjeO+nedCMhKaEcsTO4hhBHg95OgAiAg7fQK1rOtQSq/qvqsn7/O754h7H2urU7CVD8BC8+dBuHNciVKiEG+44OgIn8OPT3xPE9toK8OAhYRowPQCcpKck3MTHhL1xRWNVad/nhS0trIerSUZdaC0KwfiCWRRWADSAGUCO7WstgWoBEcfEqUVq6zmrgAS+qwL2DrUlAkdNSeC82KCQKGhLrhk2QguR2brcnuh25Pt6LWWPUchSlGKBYPXgYRmStCuZVUbCC76MK5vE9YWlBYj9Zj7MlanhYJpqTkt9Jgk9sWxgsMzU1lce7mk9qrW0NDPUM8bS3yCvqj9YDdsT46Ljw5nvF5ts2G+WfL2c35EJT44nGAAKf1XUD0ZXFzA03FIaC6GjouKwwg3PpSHIE07LSDMTnpGenC0+2J5rvBpDCEENwxUCD4rBqKwkg1uGSQkDjlJYaAGluSa5IciYFt35y67y7DrW0/hzSQLOANTkpIQY3dwUTs4uMK/H5lolbbvkUz8+FGUjChWwoFNhAeBvrxWBGmvqRVXjv3t+IY8deFpmZ+bwdrCs/L2N3ADRzQUbqYoix16rIrMSzl0komV2Uuw0gh4LcOJDcvzpuHAOOZfb3BxDORw0PDkdjL+ByOnf4HLqBi9HwqChaWiT+4u//wtj6ia0LEmoQbIv4FL5mqZY8E8eAMDI4Enj6wcuTMHHbvduM8n8sDyIhH2KWkLQPBW4mWGQAKvFJdJ0rKwyABt3JFcRYheHGKna4wTZgXcJQCo4UR+X6G9drqNHS+iPSQLOAhcba7kqxu5Hwnuo+vXTpem7AJZjIAtBQT7oSJqxGgou1A4YACQL4DOJlXnjhEXH48ItiYKCb94FgYLiYJMzEthGDGdS8MZLctoSn14cZCSv2dS4GmZi1RiX8A9CMsrVGSX5PFAlj9pKQEM/B0vNRfW19gaFeaaWBYC04GzzLo0gPDwyLlctXik9/7dPG5r/YvOCghn5zk68N63rl64yAFZaP/vb+ywYzCa6ESk+Gx/BkejhGCS4mWIHYGqMgxuZa4tHorVqBzVy4YZix1XA9WcHNRmp6aqW1ey0trdeRBpoFrEhkgm/gqju2LDJ+Bb2MEPyLRhsjTUvgULJnA47Bg6xlQzFXzz77c3Ho0POiv7+TgEDezKX1I4HHSMJH7LEs0uU1RZ+U21LblJASA6nYflHgIpPHI4uEF7VNuV1Z1LxcNsUwMz6OGKIJ3k8MxKTbzA5mqOEyAwzOR4XqQ4Gelp5ZjTedefPMwTPm2WNnRU9fj7hy+ZXC/z/8hnGbsaCgZjoyjdw90jpjCTCD7tEDnQPvGGjQfT4+JT5IgGGkZqVywC9cS4AUNeYTQ7E1hhQHKFtQw7lxrKKAZi7YRN1RsNgQ2CCgGZYauLS2bNvitw5DS0vrEtJAs4B1+PDeALFBGTXiphryADAjx1LKYJcKAAfdp6W1RAqTCgYuhgpVYmDz7LMPid7edgYBOxRIS0cC7xdPpgALFayLGu4wOR/h7UD2fSlwsU/LomAlNi8BKQYxsWVyOcrQkD12Rn5PdcwSaGJQA6vWfHU5QfWH6wODPdK9BtHTvtnZ1FlR81qNWXOkRnT1dYlrl10rPvefnzM23rhxwUDN9OS0ybldrGsTghWFfn/zqR889Y6A5qZP3VRJ1zPiZaJ5beAaArwwxFhlFtQA7AlqZoGNVdhSY7PWcKF5BTcAGsAYgAlWtlRvqgYaLa03kO7ltMDV2loXys1dYtIN1nC5Un3IzKssNRgOAOMr5eYWE3SoPDAYhBKXRaxBkA0/Gns1r6bjRHX1s5zXRQEBlkmpGuvjRo/kYhF2e2EfuNErkOBGwAIJJTswqenYMjUtwWo25MQsNDHAQW8nCTZKcjuxuCLVXVvmxJG9sg4dej507tyRtzXy9p9bw/3DJjWs5b4VPp+1yPz9f/0+kFOcY44OjxozSTO+1KxUsblgs8i7Ls937vi58q7mrnnf+2mgeyCUkZtRTnDgwyjY6HFUtLpItNW1hZLcSebb7a59w1/fEPRke8oR9IvzhlgZQEcUWgA1qsyBGq5tRVlyuFh/N/Zp/tOx/SnxMtLM9IyPfs9Q44nGy+I609JaaNIWmkWgw4d3mfv2PVE2PT1TgZuj6v0EqMnPL7XWiglWDQkEqlZgMNta0tPTJs6dOxq7EZPk9OwbOGJ2ADHLlq1n6xDcPuhxhNgW1HJAy1EO3sV7al8xUIntU87Hjse+DMcZO1YUZaGZDTNSsQYEhRuauBhkYbtOZ+q8bji627orBroGrDmpvY/tNTsaOthSEzSDom6wTtyy7BbxL4F/Ma6+5eoFEadBv53JI2NPyZ5OAI/u1m5jZnImiGzCvPAt6AN/9YGgJ8tjILAYgb/sYkqULqaLAMUq9uVR0IGlhupLWmnmWmqoJCXFLDUqSNid4dZWGi2t15G20CwiEXyYtbWHtp869ep21KWl63ylpWt4BG5lnQF8QHZrCLXvJLo5WzWWIVkesu4irwsAgN+hWk3blZmZK6699qOisHAlu7oGBnrMqakJDADoU/tAkfuU7gJsBtuSyy5VYm4vTNtBRk7HXE2yIF7HLmmh4afreOkWU+NMoQwMdIm9e39VFQrN36fh8EA4VFZeVoWvOhM/Ezix9wRbJ+gJP+Qt8prj4XFjImHCl5KTIq7Nu1ZkXpNpfOC/faBq10O75nXeEwIPH8FCObpBw1VTuq4U3bU5I68n22Nk+7LL073pJkHOH/2e1995fZC2Z2TkZLCbCWDB45spSAG0W9PyWiKQSYgBjb1WZRbw4G9G1Sj89yXFf0uYpd+Pp0kEaT7fKh8nVeQFWlpaUWmgWcS6/fa/99FTYHls6AGHdeO0g4NcVyr23qlTB0Qo1BC90aoaktO4Qcv5rVs/zoHHsL6gtxHBRtXAQDcy1qJHCkENSsx1pKxAWIZt4RjkscQgxn6MMYuMBBcFNTHrjHQ5wfoSE7aNBoaelKkhAswooEHPr+bmM+JXv/oft1srz1sBYk68dKJKwYwSQ02hFyn2jcnESZ8zzymuzb1WNIWb/B+864PzGmoGugbMzPzM8uSUZB+S2y3bsEx0NXfxiONIXIfkd840p5G3PO8NXVBb/mJL0OP1GOj6jtwyiGdhaFGWFuVqIjhJYNelXM6wYoMae+F1sJyu63hYAy2YUcv4b0f++cjpOeLeW9MzvjMHzyzI5IhaWu9E2uW0iEWAYIANmA94HsMDIFhXBu7Kgmk1L99D6etrxyescrGiN2e6xPr7u+iGLcFBdhtPEo899k3z4Ye3ByKR8YqammrOVjw6OsQWn9HREa5Vkbl0ACwSdOwAA1Cxu5YUzKjl9vftklAUO055fLI7u9PppP2GF/wTMNxPnY2dFej9dMg8JOqn6sWtK28VycnJwQf2PDCv857QNcDBwbDK4BKFtQbuG7h2ADWwuqRnpgev+tBVwUvleNlyxxbDle4yOPg3w80uoCig4Jqx1bPAZc57/P4cFyzDUKIFRlawMLuZrB5O7GayjtWevwbHDQsRFePmu2/WrictrTnSQLOIRWBCN0UFJTNRWJHgIiEAtVweG3Syu7uNgKbTso5IqwnWUV2iY8KNXXB+Ggk1eKqlG3OyO/p0uWPHD4zTp6s5d01XVysnvrOXcHiIyiCDjT2+RkKLssTMncaxx+ZVeT0BYmRBg4M6UQwO9i4Kk/6uh3dhvKCK2kO1ZrVZLULTIXHbhtvEVGQq+I0935i3UEO/ZUAN/oh4GoAALCwMDhY0ILPvkiuXGFl5WcFrb7+2ctOtm/j7ok6IS4CriXPMACgYUFSZCy5zl6lC81ErjK3w3wFBDI4BQyIgfw3DCgbVxHhOboaWaEEMDUMNFcwjP40r1aWBRktrjrTLaZHqnnu+6k9MTC6Hi0W5nAAmqgBwYrWyjAAkpkRnZzPBRwstlxaO3t6Q2L//KQKX49x9G9mB0WsKQAPB+oJtoDfVxMS4ed99H4kOkOj1FhkeT2Y5xnnCtuGSwjYloCgwkXCFgmOQUvE10mKD9RTIxD47u+B7KuGzcDnBaoQeTtLdpGJo4sTBgy8GTp16dVFATf3h+lDhykJ2P40njPvyffliTckacfT4Uf9H/vYjVS8+8uK8cz/1hfoQJ+QjSDCWblgqJsYIyMeltYZzwVhBuQAKWGFcHhdGxvZ7i70+gg4/QY4PwAOA4PXZumhZVeBWUsWyuERrNU1lltvJgp1oDhoLUOzHgmL/vP2zACP+c6Lj57/FqWnfSmNlVW117bx1DWppXW5poFmk2rDhen9SUrKBrsoyGDiB4UAWe2I7OT17CIFR0dHRbN3kE0V/f7egxp9H6+7ubqX3GjlDcCy/zQyDDj6bl7f09p07H4zehH2+Zf6srDwD3cflunHcAwsWHwlQMWuRch3JaWlxUUATg5pLwwwSCdqFZdLNhPgZBARj0EwZPzM+3i2effaxqra2+kUTeFkXrAsVLC8wqdE3xpLGfEvzl4rS5aWia6jLWLVplVn9dPW8azi9Pm+IoMBfemUp90wC0MBaw9etghSCCIAFLCPIVxMeCBvJzmRfZl4mW0KiwEHrAjZUPavYACRaaLmyxmB6rispCjSAGAVJts9FIcgqgBk1jb9JfI+J8QlRe6B2XqYV0NJ6N6SBZpHqyiu3licmJhmydxOCHZMIBqQVZjbUIK4GwwcgCZ50O+GmjoYfeWwABbDGYCBKuIUgWGTq64+JlpZzPI3PtLaeMy9cqLv9wQf/r1mQsHLl1eU5OcUGbubYF6eGT0ymd6T1BV3DsR8sUzE8dlDBstjxYl5Cjb1gPVhf7MJ3U/E8+C4YBRxWmrw8Lx37cfPhh79RYa26aASoKV5dLKHGOeYz8g0RSY74RsWosfvh3fMuCBW9mJCTxuVx+ZZtXCZGh0YZBAgL+Bq2wwpqvB86H+JRuZE0T0EPwwZiXaxpVbMFxgIQXscGM1zTZxhkrKEMGGYwr7pjW4W3Z13/GER0dGSULTF2kIFUPRNH13qEYJ++y8l9J3VwsJaWJQ00i1Tr17/fRzBSDpgBLCDhnRxWIGbpkKAQsUBGAg1uuliOXksYtRqwgG2gGzfBByAAT4xcwuGhqvb2xqrGxlPbQ6GG7Ujyh33btXHjDfcj4Z8EEgUZgJokfv/UqdfEoUO7eF95eSUMRzGwUbE98tjkMWM7s600mEfLoLaJZWgbJIylWDATSzj4wguPV508+cqifPKFC2PJhiVmeDDsn8yaFNf4rhEj8SO+SHykvOZAzbxrPNGTayw85r/ifVfQ707XxSRd2wQDKhhXwUz3hW7RXNPMifjSvekMIcp6otbjacRYAVjsRUGMmqbCEGMVdjFZg09yzEyKgwvmMebW6VdPi4PPHRSHnj0kDuw8IA78/gAsL/gteFBRWGJUYDIEIMN1PjU55VtlrArR5xeNJVFL642kgWaRas2aMuNioJEWGgUEmEYNiFCAg2UQLBsyGd4wgwHeb2mpraL30ejhBmsvl3RXbNt2rz8zM88P15QMPJ5kmBkY6OFtYzmsJ4jNQRDyyMiQmZ9fsn18fNxHAIPCIDM1hWBlCTaxY5WWJVWUJQrC90CzgH3B3YR9wOWUmppOUNYqDhx4oaKxcXY358Wk0/tPh4pXFYfoKiiPz4oXG30bRWJpou+G/3bDvOvODSuNJ9NTTmDjK1hWIAhu+NqAtQOAAqvMmeozoq2+jS0e2b5sHhCSIcYGMoAVZZlRNUo0TsaqAR2AFtWrigtBDQCG3Vpuj0iJTxFnj5wVux/bLaoCVaLmtRr5t0awBQslXF04PvTQGuweFGcPnRX1R+rF+Mi4HM3bKccYw/oEO6GT+05qt5OWFkkDzSLVqlXX0I05HoHB1NAjWViyDVpgoZHxKyiYRiOgigqmhdUEcTW4kcPK0dXV4hsa6n1TT/E33niXQQCxs6RkjSgoWCYyMnK599TgYLc4cuQl0d5+XixfvpFho63tPLuz+vs7fenpOT63O6MiEhkPTExMiYmJsCGzDo9xUdMqBgffB0CjAp8huKbQYADiYJlxuSTQZGfniFOnguYvfrE9GrS8WFVzoMbMLcktj3PF+ZKzk0VBfoE4ZZ7y3/KZW6r2PrZ3XkGN3UozOTbJvz1cOoCE88fOc08oLIdlJs2bxlASBRoqCl7mwky0AGSSpGsJvZWi1hnLIgOQyU/NF/Gj8WLfM/vEr3/wa1H9XDUDC+AF7i3lToKLCcdGf2lcw6oEl9ZEeEK01reKplNNDF4ZeRm8LpYf/8Nx7XbS0iJpoFmkqq2tDq1Zs/l+CTSyKJBRtbRkSBHHWDBjPZES1KBbNUawxjSAgZ4ufYODA1Xh8MAfbfBWr9600+db5qMicnKKRFZWPltbOjtbGGIQJAwBNDBkQkHBUt5/S8sZn8PhMF588dfbqXHxrV69ubykZDVn9h0c7OWAYhRYamCxkUAWEQ6HO9rLCbCD7wDAQe8qZaHxeBzihRd+W1VTU62feEneYi9GrjbiXfEcJJtTkCPOnz5vvPrkq/OqAYWVxpnmLC9cUcg9l+DmObX/lOgN9XLvIXTvjlpnCD4u2fMIxbLUKIhRRYHMXJhJSZEg4x53i52/3Cke+eEjorGmMTrgpIKYaM00I//OuCCJXkTGy/Do4fQPyQFbz7byseM3IfjyHdl9ZNEDuJYWpIFmEWvVKgMuJ5+EGhUUrGCG7p5RyRsspG7iuP0COoaHBxgaMA4S4mr6+kJGV1fLrAbv0UfPGXfc8fnyj3/8nwyU4uLVlcuXbzBgnYFlxoIhtpa0tzfwMhQE6aqbO4YmwLhTpaVXAKB8OPbp6Slzy5aPlOfmlnCXcPRkUkHISNIHa42CG7ivAC0yPgiuLTQ4GHlcwkxGRrbo6DgvgsEXKxobTy9ad5NdzaebQ8Uris3R8Kjfk+sRhfmFYjJ+0nft7dfOOyuN0+U0ExwJxsqrV/qOvnhUDPUNMUjg2kLvJ4yThLwzbJ15PaCxFZUZmGGGACUKM5ZVJsudJTLp9eLOF8Uvf/hL0Xy+mXPawBWlwIVr/vc6QEMFMMN/l1Sr44VGBkbEYNcgQ83KspUhjM3Fb2hpLWJpoFnEWrFik0EgQQUxNI4ozEDyoVHePOXNFTdUaZmRBZaaOJGXV8oWDriKsB2a9uXmFvm+9KWflm/bdm/57bf//f2TkxNUxsoJLMqnpibK8/JKfIAfaRWaZsvMxMQoQUaiaGur52R60t0lE/uhhptIHl+EGxL6HIFYUvm6ddfxsSHmBtuC68vjyWJrDeAG21GxOenpXt4Wvo9yNzmdHq6LivJEdfXL5mOPfUs/7dpUd7guhBG73Rluw5lFAOhxiZazLcb+x/fPKysNj8LtzTBb61r9ABZYZXAd0ZUtxsPjPOgk3D/cldrq3cRAAxeT3TKjCn2WrTJzYYam0xxpIvhyUPz0mz8VF85fYFjCevibURBjsUts2RxFgQYPF3K4A57HnyT2j8+hRxSmCWqqTrx8QgON1qKXzhS8iDU5ORp1zQAoZNyJhAbuEWL1dkKJybqxUo31AQyw1Kxb9z62gsBakp3t8zc2nvKPjg75h4Z6DfSAQh4aJOPr7LzABcG3PT0h7h0lSxfXAA+ZGTjMRea9UdOj0QLLC8AFbiP5HaQ1BgXrowbcuN0Z3Cj093cyzEhrknSRoVcTPo86Lm4IY1PpWIRLaLBjMFB/tF50tuAcRoRvpc/4atVX510W4eqnqzEgZxlgBJChAngnRicYSCAAjqoZKjAvF0VrAAgDjAUxCckSflxul1g9tVo89PWHxMuPvyzSctK4dxL2F80rY88vM3faPm8VfFZ9nqctoMJ+UQ/2DALW5IFpaS1yaQvNItaSJeu463ZysuzlBLfR3Lu3hBc8ScqnQjCwrHHDRe4MuojoKRZuG59vuVi+fL3IyioQZ88e5kBe2RsKQCLHaAKswAID6wnmZT0cfR+bbm6ujYKWtNRIK4sssmcToKaoaKUoKFjC28N2EaQstxWmbdTwyN5wW2Vm5vDxwSKE7QNmUlMz2EUlIaxQ1NS8Yu7b93SgtbVeu5vmqLm2OZRbmutDNl0VNNt0ssmorqqedwCIQTlTM1PLc4pyfIhP6evsY1hQQxwATOD+VO4mZamJwgTVbJVRlhmrN1Neap4Y7hgWX/vy18T4mLT4MIjQBSf/XqQ1hmubRYan+Z+1DBX9TSmYgmUmaqXBHxu9rwAHliQeKiHFEao/Uq/jvrQWvbSFZhFL9gqCRUMWmYcGPnt7LbtAw60Tq2MFsCF7Fo0TaEgIAWTcdNNfM1i0tJxl+JAWFjnY5MjIgBgY6Bboih2z0MiCz3s8mRb0AFRkQfdwfFYWOTzC0qVXcnZibA8wA6gB0DQ1nRYuF7IUowFCY0RPzzSP48U4TYAbWVwiIyOLsx4fO1ZbUV29S5vtX0f9Hf0BBKMiKJXT8AvBgzfym/NMfR19FV0XukxnmpO7PnM3aEAE/iNxjUk5S9cNlsgXIEJl+VUABCvPweqDovJrlRxYjFgcO8y8mcJQY1+mrDVzLDOzXGFYlkgPFZEZbVnU0iJpoFnEImgxASPSrQM3jszhYocZfjpkeLGeFGl62npaVPMKjFQQLmoE227b9rcMN4ANub78nPpsJAJXl3QRAVoAJgAUxOTgZq5gZq4VB59ZseIqvqlj2yhDQwCa2ECWyF4MkJGWJflkjRrLVVZgxM9kZLjEyy8/bj788H/XMPMGOrzrsDnYS8A4JGOVMP6Rt9A7L4Gm/nC92dvRW9HX3sddp2FxUpYRFnjGuk5ReDkVXEPRGBsqymJzdO9RceSFIwwzCkAYSKzCsIJpC1bs8II78EXLbeuqwS2xzSjE2OBGTAsTA4zKA9fSWtzSQLOItX//UybBiAmLByAAUIPGSsEM4iViN/YY2EioUXAjCz4roUjBzRhbUsrKbhPZ2V6GFb5pc8shGwy1LxWro2JcEFyMYGO4mBDbA0sNuogra4zXW8juJvSwwjIEAI+MSLBBnA6sL4jFkdaZGMzIRHox60x2dr44c+ao2dpat+iGOXg7SkhMCKB3DQZ6xKCNJetKrHfmn07sPWFeqL1QgR5OfF1aMBO73mMgQ3P8XhRmLAuJK9Ul0GPq5P6TbClR4GEHktcrdqiZu3zWe9gm4AVuL9oH79uaxm9Ax6atM1paljTQLHJNTk5WxFw5sH4AauwwEwMXBSH2ZaoARqSlRwXvAmokjGzevE34fAU8LhPm1c0a25PQIuEHVhiAC+AEYANwAYTMzCAJXjJn8kVX702bbubPDQ72iP5+GUyMGgVQg3igpCQk0sMYVTGwQfAvYAbDG2RlZdPnu0R9/dmKvXt36CfcN6Gh7iG20ABo0MjmluRa78xPDQ8McxwMBGiJQowlXoYF9A9WnFluJmey6GjqEK11rZxT5s2AzFyIUfOXhBtsywYzCqSUdQb7m45Mm9U7518ck5bWuyUNNItc1dVPw+0UUC4dgAVgAVAzG2Zm17Fp5ZqKcBxNOBxzD0nLT5jdQVdfvY1gZLk4d+6oOHPG5Nga9HICwKhu2zGoGeLhDwA6iKfxegtEfv4SsWpVmdiw4QMMTXJU7yYumAYsIS4HlhcE/QJmZHf0JK7hxkIQMGrE0yxdmiFeeaXK/MEP/lnDzJsUrBnoRo8AVSSiG+wZnJcuJ6WkBDleE8sCGQnxswtbRmxuJnzGkegQVQ/KONxZMGOBiJp/PYiZW+zLsT0UBplLFBxDZDpijg+Pa8uilpZNGmi0xIEDVRXj46OmilcBSFwKZuzwgiJdRXI5plEAJ7DCYDsKbFADNrZs+Zi48ca/pO1FeB4wglG6W1rqCEja2dICwEEAMBoS6SJKZavMlVdex2CDz2EohFAIpYFdTAAjWGfQO8XlSmeYkcM5wFLjYMtOenqOSEvL4uR/SNB36tQJs7X1nG4Q3qIQRMtgMzHF+Vvms+KT5O0P19pFNSapEGLwdaV6PgEm0F37uV88J7xF3hjIoNinqUTjY2i5HVhebxqFYYb24XA7BLIao7cUCqxAsBIxzBBMTo9PV5zYr3PPaGnZpYFGixUfH6mQFhIJI9JKYweZ2daZ2HJVZPI7uJ7wWdXjCJCkoKavr11cddXN4rbb7mJrCSwnAA60H4AowBCsPOjqjW7VXq+Ph0XAOoCWlpZz3B37woVahhnktunv7wYEBRwOdwVyzjgcyDrsoM8kcwAwIAZZh9PTs7k7+ZIlSwikgubLL79a8fTTP9ENwlsQAasBlwvDzOi4cLqd8/r8weICaxOkIMZeo0QtM4kSNOBqOnPwDLur+D0LcubCjL3MhRa1TC1HssKs/CyRvyxf5C3JE4WrCwUG0gTIYJwndM0GRAF2BrsGzYHQQJmGGS2ti6Xz0GixmpvrQj7fCh/dxA1l8pa5aawbMMmqLhK3AVYDgNZATqP30wRBDkBIDXo5za6loqIrCFby2SoD8IAbKDU1TXg82SIzM5dhB9YZAA7ASCXlgwVneLjfHB0dqZqYmAzMzExub2g4WXHFFdeG3G7PTlhiEB8DqEFPpoyMHIYZWGWKi5HwL0v84Q/PmPv3v1CxY8d3dIPwFlSwvMBYumHp/aVrS9lS0NfRJ1pqWqqaa5rn7XlEL63ExMRy5JEBMMx166BG9mCVcwZWkp62HtF0uom7emMdBTN2qFGWGYiWSHChF5LsZeRmCFeaC/sWeUsJXlYWisz8TM6DA6sM4AXnl/+W8M9y7w33D2MgTbPrQldFqDGkr10trUvodZoorcWq6667PehwOA1YSBC/AthQgbXcbZQDbFUB+KBrtIIeWaububy8ZtjCgrGYYDGR8S0pbH25cKFG7N79K/RUCgCexsbCfnyK1g1EIshpM8kWG8TMEBCZNG3W189+Mt2y5VZqlFKCOF4MQInBJgE2qamZbJ1BFuPi4hUEQoNi797fmrW1wQrEDVkf13qTuuqmqyqNDxv+wlWF3NDWHqgV546cK0N3bmuVeac1W9b4CR4qecRrgg1AC0AFyfKQWwbgASsJ6pTUFJGZmyle+MULIj07nT9P2C6hQ8GHNe9b6WMQcaW7hDuNrkn6PMZiApiowmM0WYVdt1OzpyfGJzgA+8KZC0gGaA4NDVWEajXIaGm9kTTQaM3S1q3bDEKKSkANgAaggEBbBTGzoYaeSq08L9En0jm1stwAitRwAwpuCgp8BCyI4XnObGmpqXjqqQff0g27rOxWv8uVSiXNgFUHYzXBGoNpQA1G8C4uLhYNDcfF44//xNyz5zdl1ke13qRuvftWIy0vzZ+/JN+fkZfBvXwGuwdFzWs1gWd//Oy8jkFaWbbSTxBTie7PyrWjrDEoyLWj4lcQz9J1oUvUHKjhfDPqugbAwGql1gUYKXixAwpqxB/xcrhrbQATXdeCnfBAWDTXNIszwTNmb6i3oru5W4OMltabkAYarYu0desdBDVxQTnQYyYBAqwf6Joas8rErDOAGXwqZpmJWWhiQIOCxYAaAI0CGwxPAGvNiRP7xWuvPR3YvfvRN2wkS0rWGwkJM34CJD8sPQCXK67Ywq4qWGXgZvL5CglsMsXQUKfYt2+3OHXq1YqXX35Cd2/9I9qybYvhSHUYWXlZIjEl0Uj3piMA2J9TlMMNOlwqI/0jor2h3Tx39FzF/h3753VDC6BJciRVwiqDsZ0ALoAbwAysKp5MDwMK3sM52PvrvYEjzx8xswqz/AQ1xoYbNojrbr+OzwsGu+SBVAEtcyDFDiuYViADqMFnMI8A65YzLSJ0LmR2tnYGkPyPwEaDjJbWW5AGGq1LClBDYBJELyMJNelsVZHuJ0CMstDY3U345NxLSsKMjKWhx1maRzCw3VKD3DB5eSUCGYbPnjXNcHjQ7O3tQKCwKZPn9bKVCC6pxMREA3EyCD5GIDGCfdeufR/3hCooKKHji+exoILBl9BF3Ozv766ora3WDcMltPWOrf70gnTEidA5dRgOt8PwZHs4SBUNO6wxCIaF0FAP9Q2JzqZOM9wXrtjxnfmfu2f5puVsoQHAON1OditxcaXELC7pboxmjQEszZ0/2FlxeK90sWHYh4IlBcaGmzYYBD7+K669QhSsKMBfAV/rdssM1wpsME81AquxDFaf2upa0dncGWg/0x4INWu3kpbW25UGGq3XlYSaeIIaN1tCkL8FAbeAmouBBlJQA2EiZp2RQCOhBjWsO9JaIwvibOAiKi0tFePjgmNe0CsKwcDoki2PIYNjZFAQ2+PxYDTtFNqnS4yO9ovTp49ROSDa2upN2o2OlZmjrZ/c6nd73EZmQSZm/Rk5GVGXChp19NqBtQFSwagYGgCjUcPNdKb6jNl4urEC1gNeaZ6LgMZISk4KwkIDVxPOA+JpcE4wHhMCdWGhySrIEsf2Hqt47GuPva6Vz1vo9ZeuLTVWXrNSRCYiBl3vPJAnwAjb7O/s53PYG+oVOaU5ge7mbtF8uln0tPeYfa195uTkpL5WtbTeoTTQaL2hFNTAooLxmZDnBXARs9TgEpoLMkoxy4yCGQU2qPE+wEYGDQNskDsG3a1TCFTSOCYGtcvlpO3Hi8lJmOgnOE8NEvjBeoNhDzo7m0V7e6Po6Wk1p6cjFYcP79WNA+nGu240qHE23Glug0CFY2DgRoEVAgCDnjkQ/y6wHiDHDAEM8syMDY+xRWagawDzZqg+FAg+F1xwbrs1W9YECWYM9HLCeYGlBiCicsDA1dTX2Wd+77Pfe1vxV/FJ8X5YfMbCY2J6clq7PbW03kVpoNH6o1IxNco9BMjAwI4KaqRmgwz/b4GMHWrsQKNq5LEBsKCnU8ytBQtQAruW8D72i3w2arwo5MsBzGCoA4IbMz5+uqK2dv72uLncuu9X9wXHw+NwG0Z78KAbMsTwMhVhtwd604yPjDO8YLBGWBJGh0fNsZExs7etF8McsPVgoQamrtq8CjE0iKVhNxviZdC1GtYruN9yS3PF0d1HK3Z8e4eGES2t97g00Gi9KW3Zss1ISIivTEpyGIh9Ua4fQAjAY7YALwCai60ycpkCGUxHrGkrmJIARn1eJdrD+tgnEvbJcaLkkAoTE+NmJDIaaG6u042NTfc9ep8h4kXQmmVLg7K+wH2E7sCwvPS09jC8DA8Mm5ywrXtAwBJjfWxRCHE0Ka4UjqNBd210s0ZeGACNt9jLkLP/d/vL9j6mrX5aWu91aaDRekt63/u2+RMTk1GMWGCvHDsJVpaY7HEzMZiJgYyaBtBEGFLUe2qZghxZywzEGLQSwcMTE2OBSGQsEArN38Ru76bu+9V9bCaDhQYjZANgEIA60j9iDvYMmn0dfeZ4eByupEV9/krWlxgulysIcAHQIG4GMTOw0ixdvxTjVZnf/vS3dXd/La15IA00Wm9ZsNbEx8dVJiQkGbDQoMihBpyzwGYuyMg6ZpEBmNiXzX0fEKMKYEYOjzAVmJmJBJqbazXIvIEIaJCk0H90z1HR09ID95EZHg4veoC5lFYaK4Po6QUrDdxMCmhWX7MawxwEfnbfz/SYX1pa80AaaLTetrZs+bCf4MWIi0swEhJQMIgfxmdKFvHxiIPB5RV3EajE6tiQCLPfA8TYgWbSHBkZNAEzodDC6GGj9d7R0g1LK50epx+9nQA0SJyHgSeRMO/0q6fLHvvaY/qa09KaB9JAo3VZtGnTzQw38fEAG67ZUiODe9EbSvaIAsDMjatRcIMy28WEgNSxQHd3yBwY0NlStd4dLV+/3Eh0JgYxlhJ6gSmYQTD1N/76G/oeqaU1T6T/WLUuu9av/4A/KSkBsALrDQDFEGKGp+25awAzMi6GezKZ8fFx5sxMnDk83IfkeDrQV+tPphXGimCKK8VAIj0AzUpjJVtrvvaJr+l7pJbWPJH+Y9X6kwpDFxDTwIpDIAPrzKSp42G0/tzirMGO5EoMeZBdmI38NCKvJE88+f0nKxZi/h0trYUoDTRaWlpapFWbVwUJaIys/Cyx5to1omhVkXj2J8+a+3bs072ctLTmgez9bLW0tLQWraYmp0yVrweDTcIl6kx1Gls/udWwVtHS0noPSwONlpaWFikuEhfgoR/GJnn0a8R5IS9NUlKSBhotrXkgDTRaWlpapPoT9ebUxJSJsayGeodkor3MVJG3NA85fbS0tN7j0kCjpaWlZWlGzFRgfKuhniHMcNftguUFxlee/Iq20mhpvcelgUZLS0vLUv1haaUJD4bF2MgYu5yKlhUJV6qr0lpFS0vrPSoNNFpaWlo2zUzPVIyFx3jkcbicrll2jVi1bJXx5R1fjg74qaWl9d7T3GGStbS0tBa1ulu7QyVrSqpc6S6MxC3Si9JFWVGZiHPH+dbdtq58042bzNd2vhayVtfS0nqPSAONlpaW1hy11rWGju09tj0yFSl357t9EWdEbC7eLBLSEnzhqbBRdluZuf+J/RpqtLTeQ9KJ9bS0tLTeQFe874rgh+/9sLHu2nXCWG6IzpFOcab+jBjsGzSHeobMwa5B88F/flBnE9bS+jNLA42WlpbWH9G9D9xrRCYjwU0f2iRWrFghHA6HGJscE729vaIr1CV62npEYmJiYHxsXIwNj4n4xHgTcTjjQzRP9fT0tKlH7dbSenelgUZLS0vrTejur95tpHpTK7MLso2MnAzBJTNDJKYkcmZhFOSwQbdvgA3qibEJTtQ3NYHR46cEMhHzNK0L6ElOSea8N7we1QRFpkrsR/Pmw//9YQ1BWlpvUhpotLS0tN6kkJNm480bjTgR5y9YVmAUrS4SmbmZIi07TSQ7kkVCYoKIT4jnUeXtd9eZmRkuGE5hZppqHpjVmp6hacxPTYvIFAEPwQ4AZ2RwBPBjRiYi5mD/oJgamzLD4bD58L9ryNHSupQ00GhpaWm9DaUXpBtbPrzFIIDxZ+RlGJ5Mj8jMzxRJjqRYSU4SicmJEnQIcuIS4rjm6fg4Xp6YlAjLDE+r9RiK4uIZdGDpCQ+FxdDgkLhQc8F84O4H9GCZWlqXkAYaLS0trcsgV7rLSPemG95Cr8gsyBQOp8NITU/Fch5GoaetB3E4RnJKskh2UqE6xZ3CuW5cHheDD8MN1Q6XAwNjCrfHLdxut0hxpmBMKXHs1WOBf/3Qv1ZYu9TS0rJJA42WlpbWn0mAIFeqy8jMyxRZBVki1ZsqEhMSjfS8dB4UkwDH8K30CVeaSzg9TtFW1xb47me/q4FGS+sS0kCjpaWl9R4VoKZgZYGB3lUJyQnGkiuXBL7zme/oGBotLS0tLS0tLS0tLS0tLS0tLS0tLS0tLS0tLS0tLS0tLS0tLS0tLS0tLS0tLS0tLS0tLS0tLS0tLS0tLS0tLS0tLS0tLS0tLS0tLS0tLS0tLS0tLS0tLS0tLS0tLS0tLS0trcspIf5/16VVFMytzSEAAAAASUVORK5CYII=;rotation=90;" parent="1" vertex="1">
          <mxGeometry x="689.14" y="628.61" width="255.75" height="179.03" as="geometry" />
        </mxCell>
        <mxCell id="Fqt_2ASM-14fc0Zu32w8-50" value="&lt;b&gt;6ono (AB)&lt;/b&gt;" style="text;html=1;align=center;verticalAlign=middle;resizable=0;points=[];autosize=1;strokeColor=none;fillColor=none;fontSize=16;fontColor=#000000;" parent="1" vertex="1">
          <mxGeometry x="755" y="557" width="100" height="30" as="geometry" />
        </mxCell>
        <mxCell id="Fqt_2ASM-14fc0Zu32w8-51" value="" style="endArrow=none;html=1;rounded=0;fontSize=16;fontColor=#000000;exitX=0.956;exitY=0.864;exitDx=0;exitDy=0;exitPerimeter=0;" parent="1" source="Fqt_2ASM-14fc0Zu32w8-40" edge="1">
          <mxGeometry width="50" height="50" relative="1" as="geometry">
            <mxPoint x="390" y="700" as="sourcePoint" />
            <mxPoint x="550" y="710" as="targetPoint" />
            <Array as="points">
              <mxPoint x="540" y="790" />
              <mxPoint x="530" y="710" />
            </Array>
          </mxGeometry>
        </mxCell>
        <mxCell id="Fqt_2ASM-14fc0Zu32w8-52" value="&lt;span style=&quot;background-color: rgb(204, 102, 0);&quot;&gt;align&lt;/span&gt;" style="edgeLabel;html=1;align=center;verticalAlign=middle;resizable=0;points=[];fontSize=16;fontColor=#000000;labelBackgroundColor=none;" parent="Fqt_2ASM-14fc0Zu32w8-51" vertex="1" connectable="0">
          <mxGeometry x="-0.2205" y="-1" relative="1" as="geometry">
            <mxPoint as="offset" />
          </mxGeometry>
        </mxCell>
        <mxCell id="Fqt_2ASM-14fc0Zu32w8-53" value="" style="endArrow=classic;html=1;rounded=0;fontSize=16;fontColor=#000000;entryX=0;entryY=0.5;entryDx=0;entryDy=0;strokeWidth=3;strokeColor=#CCCCCC;" parent="1" target="Fqt_2ASM-14fc0Zu32w8-47" edge="1">
          <mxGeometry width="50" height="50" relative="1" as="geometry">
            <mxPoint x="660" y="705" as="sourcePoint" />
            <mxPoint x="440" y="650" as="targetPoint" />
          </mxGeometry>
        </mxCell>
        <mxCell id="Fqt_2ASM-14fc0Zu32w8-54" value="" style="endArrow=classic;html=1;rounded=0;fontSize=16;fontColor=#000000;exitX=1;exitY=0;exitDx=0;exitDy=0;strokeWidth=2;fillColor=#d5e8d4;strokeColor=#82b366;" parent="1" source="Fqt_2ASM-14fc0Zu32w8-36" edge="1">
          <mxGeometry width="50" height="50" relative="1" as="geometry">
            <mxPoint x="390" y="800" as="sourcePoint" />
            <mxPoint x="230" y="741" as="targetPoint" />
          </mxGeometry>
        </mxCell>
        <mxCell id="Fqt_2ASM-14fc0Zu32w8-55" value="" style="rounded=1;whiteSpace=wrap;html=1;dashed=1;strokeWidth=2;" parent="1" vertex="1">
          <mxGeometry x="-60" y="-50" width="1035" height="470" as="geometry" />
        </mxCell>
        <mxCell id="Fqt_2ASM-14fc0Zu32w8-56" value="" style="shape=dataStorage;whiteSpace=wrap;html=1;fixedSize=1;dashed=1;labelBackgroundColor=#CC6600;fontSize=16;strokeWidth=2;fillColor=#d5e8d4;strokeColor=#82b366;" parent="1" vertex="1">
          <mxGeometry x="-15" y="70" width="130" height="170" as="geometry" />
        </mxCell>
        <mxCell id="Fqt_2ASM-14fc0Zu32w8-57" value="" style="endArrow=classic;html=1;rounded=0;fontSize=16;fontColor=#000000;entryX=0.106;entryY=0.638;entryDx=0;entryDy=0;entryPerimeter=0;exitX=0.098;exitY=0.106;exitDx=0;exitDy=0;exitPerimeter=0;strokeWidth=3;strokeColor=#CCCCCC;" parent="1" source="Fqt_2ASM-14fc0Zu32w8-1" target="Fqt_2ASM-14fc0Zu32w8-55" edge="1">
          <mxGeometry width="50" height="50" relative="1" as="geometry">
            <mxPoint x="420" y="420" as="sourcePoint" />
            <mxPoint x="470" y="370" as="targetPoint" />
          </mxGeometry>
        </mxCell>
        <mxCell id="Fqt_2ASM-14fc0Zu32w8-58" value="&lt;b&gt;MSAs &lt;br&gt;Database&lt;/b&gt;" style="text;html=1;align=center;verticalAlign=middle;resizable=0;points=[];autosize=1;strokeColor=none;fillColor=none;fontSize=16;fontColor=#000000;" parent="1" vertex="1">
          <mxGeometry y="130" width="90" height="50" as="geometry" />
        </mxCell>
        <mxCell id="0Qiq5kT88lRXWANyiNaD-1" value="" style="rhombus;whiteSpace=wrap;html=1;fillColor=#bac8d3;strokeColor=#23445d;" vertex="1" parent="1">
          <mxGeometry x="160" y="75" width="140" height="160" as="geometry" />
        </mxCell>
        <mxCell id="0Qiq5kT88lRXWANyiNaD-2" value="&lt;b&gt;&lt;font style=&quot;font-size: 20px;&quot;&gt;Filter&lt;/font&gt;&lt;/b&gt;" style="text;html=1;align=center;verticalAlign=middle;resizable=0;points=[];autosize=1;strokeColor=none;fillColor=none;" vertex="1" parent="1">
          <mxGeometry x="195" y="135" width="70" height="40" as="geometry" />
        </mxCell>
        <mxCell id="0Qiq5kT88lRXWANyiNaD-3" value="" style="rounded=1;whiteSpace=wrap;html=1;fontSize=20;fillColor=#d0cee2;strokeColor=#56517e;" vertex="1" parent="1">
          <mxGeometry x="350" y="85" width="140" height="140" as="geometry" />
        </mxCell>
        <mxCell id="0Qiq5kT88lRXWANyiNaD-4" value="&lt;b&gt;UltraFold&lt;/b&gt;" style="text;html=1;align=center;verticalAlign=middle;resizable=0;points=[];autosize=1;strokeColor=none;fillColor=none;fontSize=20;" vertex="1" parent="1">
          <mxGeometry x="365" y="135" width="110" height="40" as="geometry" />
        </mxCell>
        <mxCell id="0Qiq5kT88lRXWANyiNaD-5" value="" style="endArrow=classic;html=1;rounded=0;strokeWidth=3;strokeColor=#CCCCCC;" edge="1" parent="1">
          <mxGeometry width="50" height="50" relative="1" as="geometry">
            <mxPoint x="100" y="157" as="sourcePoint" />
            <mxPoint x="160" y="157" as="targetPoint" />
          </mxGeometry>
        </mxCell>
        <mxCell id="0Qiq5kT88lRXWANyiNaD-6" value="" style="endArrow=classic;html=1;rounded=0;strokeWidth=3;strokeColor=#CCCCCC;" edge="1" parent="1">
          <mxGeometry width="50" height="50" relative="1" as="geometry">
            <mxPoint x="300" y="157" as="sourcePoint" />
            <mxPoint x="351" y="157" as="targetPoint" />
          </mxGeometry>
        </mxCell>
      </root>
    </mxGraphModel>
  </diagram>
</mxfile>
